<svg id="SvgjsSvg1036" width="288" height="288" xmlns="http://www.w3.org/2000/svg" version="1.1" xmlns:xlink="http://www.w3.org/1999/xlink" xmlns:svgjs="http://svgjs.com/svgjs"><defs id="SvgjsDefs1037"></defs><g id="SvgjsG1038"><svg xmlns="http://www.w3.org/2000/svg" enable-background="new 0 0 322 322" viewBox="0 0 322 322" width="288" height="288"><path d="M275.445,135.123c0.387-45.398-38.279-87.016-86.192-92.771c-0.953-0.113-1.991-0.285-3.09-0.467
		c-2.372-0.393-4.825-0.797-7.3-0.797c-9.82,0-12.445,6.898-13.136,11.012c-0.672,4-0.031,7.359,1.902,9.988
		c3.252,4.422,8.974,5.207,13.57,5.836c1.347,0.186,2.618,0.359,3.682,0.598c43.048,9.619,57.543,24.742,64.627,67.424
		c0.173,1.043,0.251,2.328,0.334,3.691c0.309,5.102,0.953,15.717,12.365,15.717h0.001c0.95,0,1.971-0.082,3.034-0.244
		c10.627-1.615,10.294-11.318,10.134-15.98c-0.045-1.313-0.088-2.555,0.023-3.381C275.429,135.541,275.444,135.332,275.445,135.123z
		" fill="#d10d74" class="color000 svgShape"></path><path d="M176.077 25.688c1.275.092 2.482.18 3.487.334 70.689 10.871 103.198 44.363 112.207 115.605.153 1.211.177 2.688.202 4.252.09 5.566.275 17.145 12.71 17.385l.386.004c3.9 0 7.002-1.176 9.221-3.498 3.871-4.049 3.601-10.064 3.383-14.898-.053-1.186-.104-2.303-.091-3.281C318.481 68.729 255.411 2.658 182.614.201c-.302-.01-.59.006-.881.047-.143.021-.408.047-.862.047-.726 0-1.619-.063-2.566-.127C177.16.09 175.862 0 174.546 0c-11.593 0-13.797 8.24-14.079 13.152C159.817 24.504 170.799 25.303 176.077 25.688zM288.36 233.703c-1.503-1.148-3.057-2.336-4.512-3.508-7.718-6.211-15.929-11.936-23.87-17.473-1.648-1.148-3.296-2.297-4.938-3.449-10.172-7.145-19.317-10.617-27.957-10.617-11.637 0-21.783 6.43-30.157 19.109-3.71 5.621-8.211 8.354-13.758 8.354-3.28 0-7.007-.936-11.076-2.783-32.833-14.889-56.278-37.717-69.685-67.85-6.481-14.564-4.38-24.084 7.026-31.832 6.477-4.396 18.533-12.58 17.679-28.252-.967-17.797-40.235-71.346-56.78-77.428-7.005-2.576-14.365-2.6-21.915-.06-19.02 6.394-32.669 17.623-39.475 32.471C2.365 64.732 2.662 81.578 9.801 99.102c20.638 50.666 49.654 94.84 86.245 131.293 35.816 35.684 79.837 64.914 130.839 86.875 4.597 1.978 9.419 3.057 12.94 3.844 1.2.27 2.236.5 2.991.707.415.113.843.174 1.272.178l.403.002c.001 0 0 0 .002 0 23.988 0 52.791-21.92 61.637-46.91C313.88 253.209 299.73 242.393 288.36 233.703zM186.687 83.564c-4.107.104-12.654.316-15.653 9.021-1.403 4.068-1.235 7.6.5 10.498 2.546 4.252 7.424 5.555 11.861 6.27 16.091 2.582 24.355 11.48 26.008 28 .768 7.703 5.955 13.082 12.615 13.082h.001c.492 0 .995-.029 1.496-.09 8.01-.953 11.893-6.838 11.542-17.49.128-11.117-5.69-23.738-15.585-33.791C209.543 88.98 197.574 83.301 186.687 83.564z" fill="#d10d74" class="color000 svgShape"></path></svg></g></svg>