<svg xmlns="http://www.w3.org/2000/svg" width="59.978" height="52.247" viewBox="0 0 59.978 52.247">
  <g id="TV1hLN.tif" transform="translate(-449.884 -344.772)" style="isolation: isolate">
    <g id="Group_2517" data-name="Group 2517" transform="translate(450.034 344.922)">
      <path id="Path_3004" data-name="Path 3004" d="M483.946,350.77c-6.645,0-13.291.008-19.937-.014-.632,0-.766.207-.763.8.024,3.754.013,7.508.013,11.263,0,.141,0,.281,0,.422a.975.975,0,0,1-1.022,1.021.946.946,0,0,1-.965-1.01c-.018-1.325-.01-2.65-.01-3.976,0-2.589-.014-5.18.015-7.77.007-.585-.175-.807-.754-.735a6.358,6.358,0,0,1-.842,0c-.869-.007-1.3-.33-1.3-.981-.006-.679.426-1.017,1.33-1.018q3.885,0,7.77,0c5.079,0,10.159-.006,15.239.012.541,0,.762-.137.725-.708-.044-.7-.021-1.4,0-2.107a.995.995,0,1,1,1.987,0c.016.722.032,1.447,0,2.168-.025.511.176.645.663.643q8.433-.021,16.865-.009h5.24a3.86,3.86,0,0,1,.421.012.993.993,0,0,1-.033,1.982,8.7,8.7,0,0,1-1.264,0c-.525-.045-.7.144-.692.679.024,2.69.013,5.381.013,8.071,0,1.184,0,2.369,0,3.553,0,.758-.355,1.178-.973,1.192-.65.014-1.02-.41-1.021-1.2q-.006-5.692,0-11.384c0-.9,0-.9-.871-.9H483.946Z" transform="translate(-453.806 -344.922)" fill="#d10d74" stroke="#d10d74" stroke-width="0.3"/>
      <path id="Path_3005" data-name="Path 3005" d="M491.121,388.582a7.739,7.739,0,0,1,.468-2.953,5.663,5.663,0,0,1,3.69-3.689,9.112,9.112,0,0,1,6.308.113c2.678,1.014,4.118,3.151,4.146,6.294a18.429,18.429,0,0,1-1.855,8.2,8.222,8.222,0,0,1-2.127,2.664,4.77,4.77,0,0,1-6.377.034,8.951,8.951,0,0,1-2.736-3.6A17.414,17.414,0,0,1,491.121,388.582Zm12.541.285c0-.321.015-.643,0-.963a4.255,4.255,0,0,0-3.361-4.17,8.474,8.474,0,0,0-3.349-.135,3.9,3.9,0,0,0-3.642,3.517,12.612,12.612,0,0,0,.749,6.614,8.54,8.54,0,0,0,2.465,3.859,2.854,2.854,0,0,0,4.021.016,7.707,7.707,0,0,0,1.746-2.432A16.1,16.1,0,0,0,503.661,388.867Z" transform="translate(-468.612 -361.435)" fill="#d10d74" stroke="#d10d74" stroke-width="0.3"/>
      <path id="Path_3006" data-name="Path 3006" d="M475.962,428.458a15.746,15.746,0,0,1,.968-5.241,3.387,3.387,0,0,1,2.579-2.264c2.295-.489,4.565-1.1,6.836-1.692a1.5,1.5,0,0,1,1.667.482c.992,1.105,2.017,2.181,3.034,3.263.548.583.559.583,1.13-.021,1.034-1.094,2.071-2.186,3.084-3.3a1.408,1.408,0,0,1,1.566-.433c2.247.606,4.49,1.241,6.762,1.74a3.628,3.628,0,0,1,2.778,2.547,14.354,14.354,0,0,1,.738,3.769c.05.6.088,1.2.1,1.8.014.821-.425,1.362-1.049,1.342s-1.023-.534-1.023-1.319a19.753,19.753,0,0,0-.461-4.538,1.935,1.935,0,0,0-1.612-1.623c-2-.451-3.97-1-5.946-1.533a.826.826,0,0,0-.943.287q-1.818,1.969-3.679,3.9c-.646.674-1.132.67-1.784-.015q-1.807-1.9-3.584-3.82a.984.984,0,0,0-1.105-.336c-2.117.549-4.242,1.065-6.369,1.578a1.354,1.354,0,0,0-.977.967,11.679,11.679,0,0,0-.589,3.064c-.066.779-.082,1.563-.125,2.344a.983.983,0,0,1-1.015,1.036,1.021,1.021,0,0,1-.977-1.084C475.954,429.06,475.962,428.759,475.962,428.458Z" transform="translate(-461.76 -378.509)" fill="#d10d74" stroke="#d10d74" stroke-width="0.3"/>
      <path id="Path_3007" data-name="Path 3007" d="M473.758,388.154a12.433,12.433,0,0,1-2.106,7.095,4.649,4.649,0,0,1-3.016,2.038,3.95,3.95,0,0,1-2.717-.529,6.317,6.317,0,0,1-2.466-2.655A12.573,12.573,0,0,1,462,386.541a4.786,4.786,0,0,1,4.215-4.394,6.851,6.851,0,0,1,4.944.743,5.189,5.189,0,0,1,2.591,4.361C473.78,387.55,473.758,387.853,473.758,388.154Zm-1.988.279c0-2.5-.883-3.8-2.685-4.248a5.632,5.632,0,0,0-1.911-.131c-1.881.181-2.835.865-3.078,2.478a9.542,9.542,0,0,0,1.925,7.7c1.242,1.541,2.792,1.459,3.958-.129A10.622,10.622,0,0,0,471.771,388.432Z" transform="translate(-455.394 -361.685)" fill="#d10d74" stroke="#d10d74" stroke-width="0.3"/>
      <path id="Path_3008" data-name="Path 3008" d="M537.132,388.12a12.712,12.712,0,0,1-2.139,7.151,4.49,4.49,0,0,1-3.023,2.017,4.673,4.673,0,0,1-4.46-2.09,11.912,11.912,0,0,1-2.143-5.619,9.517,9.517,0,0,1-.014-3.115,4.83,4.83,0,0,1,4.112-4.292,6.489,6.489,0,0,1,6.184,1.628A5.607,5.607,0,0,1,537.132,388.12Zm-9.838,0a9.945,9.945,0,0,0,2.026,6.076c1.238,1.534,2.858,1.513,4-.086a10.038,10.038,0,0,0,1.755-6.615,3.2,3.2,0,0,0-2.519-3.271,6.011,6.011,0,0,0-2.149-.167,2.966,2.966,0,0,0-3.031,2.708C527.31,387.2,527.321,387.644,527.294,388.118Z" transform="translate(-484.046 -361.689)" fill="#d10d74" stroke="#d10d74" stroke-width="0.3"/>
      <path id="Path_3009" data-name="Path 3009" d="M539.812,419.089a5.444,5.444,0,0,1-.008.841,1,1,0,0,1-1.971.094,4.665,4.665,0,0,1-.089-1.258,12.809,12.809,0,0,0-.268-2.629,1.319,1.319,0,0,0-1.105-1.172c-1.448-.326-2.883-.71-4.316-1.1a.914.914,0,0,0-1.02.284c-.831.9-1.68,1.782-2.53,2.663-.834.865-1.284.87-2.1.021-.849-.882-1.7-1.765-2.529-2.663a.966.966,0,0,0-1.074-.3c-1.591.42-3.189.814-4.787,1.2a1.03,1.03,0,0,1-1.4-1.008.936.936,0,0,1,.738-.917q3.062-.783,6.13-1.541a1.22,1.22,0,0,1,1.23.464c.78.837,1.581,1.656,2.352,2.5.284.312.478.316.767,0,.785-.86,1.606-1.686,2.4-2.54a1.254,1.254,0,0,1,1.355-.391c1.805.472,3.61.95,5.427,1.374a2.8,2.8,0,0,1,2.064,1.832A12.232,12.232,0,0,1,539.812,419.089Z" transform="translate(-480.145 -375.068)" fill="#d10d74" stroke="#d10d74" stroke-width="0.3"/>
      <path id="Path_3010" data-name="Path 3010" d="M450.037,419.2a13.246,13.246,0,0,1,.808-4.411,2.867,2.867,0,0,1,2.109-1.781c1.8-.405,3.587-.866,5.372-1.332a1.365,1.365,0,0,1,1.506.446c.709.792,1.477,1.532,2.177,2.332.373.426.617.494,1.022.025.693-.8,1.467-1.54,2.18-2.328a1.452,1.452,0,0,1,1.616-.463c1.741.474,3.5.9,5.244,1.347a4.748,4.748,0,0,1,.463.131,1.033,1.033,0,0,1,.716,1.224.969.969,0,0,1-1.2.733c-.493-.084-.974-.233-1.461-.356-1.167-.294-2.336-.578-3.5-.891a.872.872,0,0,0-.963.285c-.874.94-1.762,1.868-2.654,2.792-.676.7-1.207.7-1.9,0-.881-.906-1.754-1.82-2.61-2.75a.955.955,0,0,0-1.066-.314c-1.454.387-2.909.771-4.378,1.091a1.289,1.289,0,0,0-1.1,1.1,12.386,12.386,0,0,0-.3,2.443c0,.421.008.845-.03,1.263a1.029,1.029,0,1,1-2.056-.043C450.028,419.563,450.037,419.381,450.037,419.2Z" transform="translate(-450.034 -375.086)" fill="#d10d74" stroke="#d10d74" stroke-width="0.3"/>
    </g>
  </g>
</svg>
