<svg version="1.1" id="methprocess" xmlns:x="&amp;ns_extend;" xmlns:i="&amp;ns_ai;" xmlns:graph="&amp;ns_graphs;" xmlns="http://www.w3.org/2000/svg" xmlns:xlink="http://www.w3.org/1999/xlink" x="0px" y="0px" viewBox="0 0 1132 520" style="enable-background:new 0 0 1132 520;" xml:space="preserve" data-llp-composed="true" class="lazy-line-painter">
                  <style>
                    .st0 {
                      fill: none;
                    }

                    .st1 {
                      fill: #C0C800;
                    }

                    .st2 {
                      font-family: 'HelveticaNeue', sans-serif;
                    }

                    .st3 {
                      font-size: 20px;
                    }

                    .st4 {
                      fill: #A3A3A3;
                    }

                    .st5 {
                      font-family: 'HelveticaNeue', sans-serif;
                    }

                    .st6 {
                      fill: #919191;
                    }

                    .st7 {
                      fill: none;
                      stroke: #919191;
                      stroke-width: 0.75;
                      stroke-linecap: round;
                      stroke-miterlimit: 10;
                    }

                    .st8 {
                      fill: #B4C201;
                    }

                    .st9 {
                      fill: #D4D4D4;
                    }

                    .st10 {
                      letter-spacing: 1;
                    }

                    #methprocess text,
                    .header-big-circle {
                      opacity: 0;
                      transition: opacity 0.3s ease-in-out;
                      -webkit-transition: opacity 0.3s ease-in-out;
                    }
                  </style>
                  <g i:extraneous="self">
                    <g class="header-meth-text-right"><text transform="matrix(1 0 0 1 344.8173 42.0211)" style="opacity: 1;">
                        <tspan x="0" y="0" class="st1 st2 st3">PMU</tspan>
                        <tspan x="0" y="24" class="st4 st5 st3">(Supportive / Controlling / Directive)</tspan>
                      </text></g>
                    <g class="header-meth-text-right-arrow">
                      <line class="st7" x1="278.9" y1="37" x2="321.2" y2="37" data-llp-id="methprocess-1" data-llp-duration="210" data-llp-delay="210" fill-opacity="1" style="stroke: gray; stroke-opacity: 1; stroke-width: 0.75; stroke-linecap: square; stroke-dasharray: 42.3, 42.3; stroke-dashoffset: 0;" stroke="gray">
                      </line>
                      <polyline class="st6" points="287.5,47 277.5,37 287.5,27 			" data-llp-id="methprocess-0" data-llp-duration="210" data-llp-delay="0" fill-opacity="1" style="stroke: rgb(128, 128, 128); stroke-opacity: 1; stroke-width: 0.75; stroke-linecap: square; stroke-dasharray: 28.2843, 28.2843; stroke-dashoffset: 0;">
                      </polyline>
                    </g>
                    <g class="header-big-circle" style="opacity: 1;">
                      <g>
                        <g>
                          <path class="st6" d="M241.2,1.9c19.4,0,35.1,15.8,35.1,35.1s-15.8,35.1-35.1,35.1S206.1,56.4,206.1,37S221.8,1.9,241.2,1.9
                                    M241.2,0.9c-20,0-36.1,16.2-36.1,36.1s16.2,36.1,36.1,36.1S277.3,57,277.3,37S261.1,0.9,241.2,0.9L241.2,0.9z" style="stroke: rgb(128, 128, 128); stroke-opacity: 1; stroke-width: 1; stroke-linecap: square; stroke-dasharray: 447.365, 447.365; stroke-dashoffset: 0;">
                          </path>
                        </g>
                      </g>
                      <g>
                        <g>
                          <g>
                            <path class="st1" d="M231.6,61c-0.2-0.2-0.4-0.4-0.3-0.8c0.2-0.3,0.4-0.4,0.8-0.4c6.3,0,12.6,0,18.8,0c0.3,0,0.7,0,0.8,0.4
                                    c0.1,0.3,0,0.6-0.3,0.8C244.8,61,238.2,61,231.6,61z" style="stroke: rgb(128, 128, 128); stroke-opacity: 1; stroke-width: 1; stroke-linecap: square; stroke-dasharray: 42.3559, 42.3559; stroke-dashoffset: 0;">
                            </path>
                          </g>
                          <g>
                            <path class="st1" d="M232.1,46.7c0-2.4,0-4.8,0-7.1c0-1.8,0.8-3,2.5-3.6c1-0.4,2-0.7,2.9-1.1c0.3-0.1,0.5-0.3,0.5-0.6
                                    c0-0.1,0-0.1,0-0.2c0.2-0.7,0.2-1.3-0.3-2c-0.8-1.1-1.1-2.5-1.2-3.8c-0.1-1.1-0.2-2.3,0-3.4c0-0.2-0.1-0.3-0.1-0.4
                                    c-0.4-1-0.5-2-0.2-3c0.1-0.3,0.3-0.5,0.6-0.3c1.4,0.5,2.7,0.2,4-0.1c0.9-0.2,1.7-0.4,2.6-0.4c2,0,3.9,2,3.5,4.1
                                    c-0.2,1,0,2.1-0.1,3.2c-0.1,1.7-0.5,3.3-1.5,4.7c-0.1,0.2-0.1,0.4-0.1,0.6c0,1.2,0.5,1.9,1.8,2.2c0.7,0.1,1.3,0.5,2,0.7
                                    c1.5,0.5,2.4,1.7,2.4,3.3c0,5,0,10,0,15c0,0.5-0.4,0.9-0.8,0.9c-0.5,0-0.9-0.4-0.9-0.9c0-1.6,0-3.2,0-4.8c0-1.8-0.1-3.7,0-5.5
                                    c0-1.5-0.1-2.9,0-4.4c0-1.2-0.3-1.6-1.4-2c-1.1-0.4-2.2-0.8-3.3-1.2c-0.7-0.2-1.1-0.6-1.1-1.3c0-0.1,0-0.1,0-0.2
                                    c-0.1-0.7-0.1-0.7-0.8-0.4c-1,0.4-1.9,0.4-2.8-0.1c-0.3-0.2-0.5-0.1-0.5,0.3c0,1.1-0.6,1.6-1.7,1.9c-1,0.3-2,0.7-3,1.1
                                    c-0.9,0.4-1.3,0.8-1.3,1.8c0,1.9,0,3.7,0,5.6c0,2.9,0,5.8,0,8.7c0,0.3,0,0.5-0.1,0.8c-0.1,0.5-0.4,0.7-0.9,0.7
                                    c-0.5,0-0.7-0.3-0.8-0.8c0-0.3,0-0.6,0-0.9C232.1,51.2,232.1,48.9,232.1,46.7C232.1,46.7,232.1,46.7,232.1,46.7z M241.8,26
                                    C241.8,26,241.8,26,241.8,26c-1,0-2,0-3,0c-0.4,0-0.5,0.1-0.5,0.5c0,0.8,0,1.5,0.2,2.3c0.2,1.3,0.7,2.5,1.8,3.4
                                    c1.1,0.9,2.1,0.9,3.2,0c0.7-0.6,1.2-1.3,1.5-2.2c0.4-1.1,0.4-2.2,0.5-3.4c0-0.4-0.1-0.6-0.6-0.6C243.8,26,242.8,26,241.8,26z" style="stroke: rgb(128, 128, 128); stroke-opacity: 1; stroke-width: 1; stroke-linecap: square; stroke-dasharray: 164.682, 164.682; stroke-dashoffset: 0;">
                            </path>
                          </g>
                          <g>
                            <path class="st1" d="M255.9,51.8c0-0.9,0-1.8,0-2.7c0-0.2,0-0.4-0.2-0.6c-1.7-1.7-1.9-3.6-0.7-5.6c0.4-0.7,0.9-1.3,1.5-1.8
                                    c0.7-0.7,1-1.6,1.5-2.4c0.2-0.3-0.1-0.7-0.1-1c0-0.5-0.4-0.5-0.8-0.5c-1.5-0.2-2.5-1.3-2.6-2.9c-0.1-1.3-0.1-2.6-0.1-3.9
                                    c-0.2-4.4,3.7-5.8,6.5-5.2c2,0.5,3.5,1.6,3.9,3.7c0.1,0.7,0.1,1.5,0.1,2.2c0,2.2,0,4.4-0.2,6.6c0,0.3,0,0.6,0.2,0.9
                                    c0.4,0.5,0.5,1,0.5,1.6c0,3.7-0.1,7.5-0.1,11.2c0,0.5-0.1,0.9-0.6,1c-0.6,0.2-1.2-0.2-1.2-1c0-1,0.1-1.9,0.1-2.9
                                    c0-1.9,0-3.8,0-5.7c0-0.8,0.1-1.5,0.1-2.3c0-0.9-0.4-1.5-1.3-1.7c-1.2-0.3-2.8,0.2-3.3,1.3c-0.5,1.2-1.3,2.1-2.2,3.1
                                    c-0.5,0.5-0.8,1.2-1,1.9c-0.1,0.9,0.2,1.7,0.9,2.2c0.6,0.5,0.8,1.1,0.8,1.8c0,1.8,0,3.6,0,5.4c0,0.4-0.1,0.7-0.4,0.9
                                    c-0.6,0.4-1.3,0-1.3-0.8C255.9,53.7,255.9,52.8,255.9,51.8C255.9,51.8,255.9,51.8,255.9,51.8z M257.8,35.4
                                    c1,0,1.2,0.1,1.4,0.8c0.1,0.3,0,0.8,0.3,1c0.3,0.1,0.7-0.2,1-0.2c0.5,0,0.6-0.3,0.5-0.7c-0.2-1.6-0.5-3.2-0.7-4.8
                                    c-0.2-1-0.7-1.5-1.7-1.4c-0.8,0-1.5,0.1-2.3,0.1c-0.4,0-0.4,0.2-0.4,0.5c0,0.5,0.1,0.9,0.1,1.4c0,0.8,0,1.6,0.1,2.4
                                    c0.1,0.5,0.3,0.8,0.8,0.9C257.3,35.3,257.6,35.4,257.8,35.4z" style="stroke: rgb(128, 128, 128); stroke-opacity: 1; stroke-width: 1; stroke-linecap: square; stroke-dasharray: 126.417, 126.417; stroke-dashoffset: 0;">
                            </path>
                          </g>
                          <g>
                            <path class="st1" d="M226.1,48.4c0-1.9,0-3.9,0-5.8c0-2.5-2.6-4.4-5-3.6c-1.2,0.4-1.9,1.4-1.9,3c0,2.5,0.1,5,0.1,7.4
                                    c0,0.6,0,1.2,0.1,1.8c0,0.2,0,0.5-0.1,0.7c-0.2,0.3-0.4,0.5-0.8,0.5c-0.4,0-0.6-0.2-0.8-0.5c-0.1-0.2-0.1-0.4-0.1-0.6
                                    c0-3.2-0.1-6.3-0.1-9.5c0-1.5,0.5-2.8,1.7-3.8c0.2-0.1,0.3-0.3,0.3-0.5c0,0,0-0.1,0-0.1c0.4-1.1,0.3-2.1-0.4-3.2
                                    c-1.2-1.9-1.3-4-0.8-6.2c0.6-2.5,3-4.1,5.7-4c1.7,0,3.3,0.6,4.4,2c0.8,1,1.2,2.1,1,3.4c-0.1,1.2,0,2.4-0.1,3.6
                                    c0,0.5,0,1.1-0.1,1.6c-0.1,1.3-1.1,2.3-2.6,2.5c-0.3,0-0.6,0.1-0.7,0.5c-0.1,0.4-0.3,0.7,0.2,1.1c1.2,1.1,1.8,2.4,1.8,4
                                    c0,3.9,0,7.8,0,11.7c0,0.1,0,0.2,0,0.3c-0.1,0.5-0.4,0.8-0.9,0.8c-0.5,0-0.8-0.4-0.9-0.9c0-1.2,0-2.4,0-3.5
                                    C226.1,50.2,226.1,49.3,226.1,48.4C226.1,48.4,226.1,48.4,226.1,48.4z M227.6,29.6c0,0,0.1,0,0.1,0c0-0.4,0-0.9,0-1.3
                                    c0-0.3-0.1-0.4-0.3-0.4c-0.8,0-1.7-0.1-2.5-0.1c-0.9,0-0.9,0-0.9,0.9c-0.1,1.3-0.7,1.9-2,1.9c-0.1,0-0.1,0-0.2,0
                                    c-0.4,0-0.6,0.2-0.6,0.6c0,0.5,0,1.1-0.2,1.6c-0.3,0.7-0.1,1.2,0.3,1.7c0.4,0.5,0.5,1.1,0.3,1.7c-0.1,0.2-0.1,0.3-0.1,0.5
                                    c-0.1,0.3,0,0.4,0.3,0.4c0.6,0,1.3,0,1.9,0.2c0.4,0.1,0.5,0,0.6-0.4c0.4-1.5,0.4-1.5,1.9-1.6c0.9-0.1,1.4-0.5,1.4-1.4
                                    C227.6,32.5,227.6,31.1,227.6,29.6z" style="stroke: rgb(128, 128, 128); stroke-opacity: 1; stroke-width: 1; stroke-linecap: square; stroke-dasharray: 135.548, 135.548; stroke-dashoffset: 0;">
                            </path>
                          </g>
                          <g>
                            <path class="st1" d="M232.2,26.2c-0.4-0.4-0.6-0.7-0.8-1.1c-0.7-1-1.5-2-2.2-3.1c-0.3-0.4-0.6-0.5-1-0.5c-1.3,0-1.3,0-1.3-1.3
                                    c0-2.2,0-4.4,0-6.6c0-0.6,0-0.7,0.7-0.6c1.2,0,2.4,0,3.5,0c0.8,0,1.6,0,2.4,0c2,0,4,0,5.9,0c0.7,0,1.4,0.1,2.1,0
                                    c0.3,0,0.5,0.1,0.5,0.5c0,1.9,0,3.7,0,5.6c0,0.2,0,0.4-0.3,0.5c-1.4,0.2-2.8,0.7-4.2,0.6c-0.5,0-1,0-1.4-0.2
                                    c-0.3-0.1-0.5,0-0.6,0.3c-0.1,0.2-0.1,0.5-0.2,0.7c0,0.4-0.2,0.5-0.6,0.5c-0.7,0-1.4,0-2.1,0c-0.4,0-0.5,0.1-0.5,0.5
                                    c0,1.3,0,2.5,0,3.8C232.2,25.9,232.2,26,232.2,26.2z M233.2,17.6c-1,0-2.1,0-3.1,0c-0.3,0-0.6,0-0.6,0.5
                                    c0,0.5,0.2,0.5,0.6,0.5c2.1,0,4.2,0,6.3,0c0.4,0,0.5-0.1,0.5-0.5c0-0.4-0.1-0.5-0.5-0.5C235.3,17.7,234.2,17.6,233.2,17.6z
                                    M232.4,15.2c-0.8,0-1.6,0-2.5,0c-0.4,0-0.5,0.1-0.5,0.5c0,0.4,0.1,0.5,0.5,0.5c1.6,0,3.2,0,4.8,0c0.4,0,0.5-0.1,0.5-0.5
                                    c0-0.4-0.2-0.5-0.5-0.5C234,15.2,233.2,15.2,232.4,15.2z M237.7,15.2c-0.1,0-0.2,0-0.2,0c-0.3,0-0.6-0.1-0.6,0.5
                                    c0,0.5,0.3,0.5,0.6,0.5c0.1,0,0.3,0,0.4,0c0.3,0,0.4-0.1,0.5-0.4C238.4,15.1,238,15.2,237.7,15.2z" style="stroke: rgb(128, 128, 128); stroke-opacity: 1; stroke-width: 1; stroke-linecap: square; stroke-dasharray: 86.1362, 86.1362; stroke-dashoffset: 0;">
                            </path>
                          </g>
                          <g>
                            <path class="st1" d="M241.5,58.2c-5.1,0-10.1,0-15.2,0c-0.2,0-0.4,0-0.7,0c-0.3-0.1-0.5-0.2-0.5-0.6c0-0.3,0.2-0.5,0.5-0.6
                                    c0.3,0,0.5-0.1,0.8-0.1c10.1,0,20.2,0,30.4,0c0,0,0,0,0.1,0c0.7,0,1,0.2,1,0.6c0,0.4-0.3,0.6-1,0.6
                                    C251.8,58.2,246.7,58.2,241.5,58.2z" style="stroke: rgb(128, 128, 128); stroke-opacity: 1; stroke-width: 1; stroke-linecap: square; stroke-dasharray: 66.9485, 66.9485; stroke-dashoffset: 0;">
                            </path>
                          </g>
                          <g>
                            <path class="st1" d="M244.1,45.4c0.1,0.6-0.1,1.1-0.7,1.5c-0.4,0.3-0.7,0.7-1,1c-0.5,0.4-0.9,0.4-1.4,0
                                    c-0.5-0.4-0.9-0.9-1.3-1.3c-0.3-0.3-0.4-0.6-0.3-0.9c0.1-1.9,0.3-3.7,0.4-5.6c0-0.6,0.1-1.3,0.1-1.9c0.1-0.6,0.4-1,1-1
                                    c0.5,0,0.8,0.5,0.8,1.1c-0.1,2.3-0.3,4.6-0.5,6.8c0,0.3,0,0.5,0.2,0.7c0.2,0.1,0.3,0.4,0.5,0.3c0.2-0.2,0.5-0.3,0.5-0.7
                                    c-0.1-2.1-0.3-4.2-0.4-6.3c0-0.4-0.1-0.7,0-1.1c0-0.4,0.4-0.8,0.8-0.8c0.4,0,0.8,0.3,0.9,0.7c0.1,0.6,0.1,1.3,0.2,1.9
                                    C243.9,41.6,244,43.4,244.1,45.4z" style="stroke: rgb(128, 128, 128); stroke-opacity: 1; stroke-width: 1; stroke-linecap: square; stroke-dasharray: 44.6629, 44.6629; stroke-dashoffset: 0;">
                            </path>
                          </g>
                          <g>
                            <path class="st1" d="M223.2,48.7c0,1.9,0,3.8,0,5.7c0,0.3,0,0.6-0.3,0.9c-0.5,0.4-1.2,0.3-1.4-0.3c-0.1-0.2-0.1-0.4-0.1-0.7
                                    c0-3.7,0-7.5,0-11.2c0-0.2,0-0.3,0-0.5c0.1-0.5,0.4-0.8,0.9-0.7c0.5,0,0.8,0.3,0.8,0.8c0,0.4,0,0.8,0,1.2
                                    C223.2,45.4,223.2,47,223.2,48.7C223.2,48.7,223.2,48.7,223.2,48.7z" style="stroke: rgb(128, 128, 128); stroke-opacity: 1; stroke-width: 1; stroke-linecap: square; stroke-dasharray: 29.3732, 29.3732; stroke-dashoffset: 0;">
                            </path>
                          </g>
                          <g>
                            <path class="st1" d="M246.1,48.4c0-1.8,0-3.7,0-5.5c0-0.4,0.1-0.7,0.4-0.9c0.6-0.4,1.3,0,1.3,0.8c0.1,1.7,0.1,3.4,0.1,5.1
                                    c0,2,0,3.9,0,5.9c0,0.3,0,0.5-0.1,0.8c-0.1,0.4-0.4,0.6-0.8,0.6c-0.4,0-0.7-0.3-0.8-0.7c-0.1-0.3,0-0.5,0-0.8
                                    C246.1,51.9,246.1,50.2,246.1,48.4z" style="stroke: rgb(128, 128, 128); stroke-opacity: 1; stroke-width: 1; stroke-linecap: square; stroke-dasharray: 28.61, 28.61; stroke-dashoffset: 0;">
                            </path>
                          </g>
                          <g>
                            <path class="st1" d="M259.8,48.7c0-1.9,0-3.9,0-5.8c0-0.6,0.2-1,0.7-1c0.5-0.1,1,0.2,1,0.8c0,1.4,0,2.8,0,4.2
                                    c0,1.2,0,2.4,0,3.5c0,1.4,0,2.9,0,4.3c0,0.5-0.4,0.9-0.9,0.9c-0.5,0-0.8-0.4-0.8-0.9c0-1.5,0-3,0-4.5
                                    C259.8,49.6,259.8,49.1,259.8,48.7C259.8,48.7,259.8,48.7,259.8,48.7z" style="stroke: rgb(128, 128, 128); stroke-opacity: 1; stroke-width: 1; stroke-linecap: square; stroke-dasharray: 29.434, 29.434; stroke-dashoffset: 0;">
                            </path>
                          </g>
                          <g>
                            <path class="st1" d="M235.9,48.5c0-1.8,0-3.6,0-5.4c0-0.1,0-0.3,0-0.4c0.1-0.5,0.4-0.8,0.9-0.8c0.5,0,0.8,0.3,0.8,0.8
                                    c0,1,0,2.1,0,3.1c0,2.7,0,5.4,0,8.2c0,0.2,0,0.3,0,0.5c-0.1,0.4-0.4,0.7-0.9,0.7c-0.4,0-0.8-0.3-0.8-0.8c0-0.3,0-0.6,0-0.9
                                    C235.9,51.8,235.9,50.1,235.9,48.5C235.9,48.5,235.9,48.5,235.9,48.5z" data-llp-id="methprocess-15" style="stroke: rgb(128, 128, 128); stroke-opacity: 1; stroke-width: 0.75; stroke-linecap: square; stroke-dasharray: 28.6053, 28.6053; stroke-dashoffset: 0;" fill-opacity="1">
                            </path>
                          </g>
                        </g>
                      </g>
                    </g>
                    <g class="header-meth-text-left"><text transform="matrix(1 0 0 1 24.7087 42.024)" style="opacity: 1;">
                        <tspan x="0" y="0" class="st1 st2 st3">Programme</tspan>
                        <tspan x="25.9" y="30" class="st1 st2 st3">Business</tspan>
                        <tspan x="36.2" y="60" class="st1 st2 st3">Support</tspan>
                      </text></g>
                    <g class="header-meth-text-left-arrow">
                      <line class="st7" x1="203.5" y1="37" x2="161.2" y2="37" data-llp-id="methprocess-3" data-llp-duration="210" data-llp-delay="630" fill-opacity="1" style="stroke: gray; stroke-opacity: 1; stroke-width: 0.75; stroke-linecap: square; stroke-dasharray: 42.3, 42.3; stroke-dashoffset: 0;" stroke="gray">
                      </line>
                      <polyline class="st6" points="194.8,27 204.8,37 194.8,47 			" data-llp-id="methprocess-2" data-llp-duration="210" data-llp-delay="420" fill-opacity="1" style="stroke: rgb(128, 128, 128); stroke-opacity: 1; stroke-width: 0.75; stroke-linecap: square; stroke-dasharray: 28.2843, 28.2843; stroke-dashoffset: 0;">
                      </polyline>
                    </g>
                    <g class="arrow-with-cap">
                      <line class="st7" x1="241.2" y1="73" x2="241.2" y2="175" data-llp-id="methprocess-16" data-llp-duration="210" data-llp-delay="1000" fill-opacity="1" style="stroke: gray; stroke-opacity: 1; stroke-width: 0.75; stroke-linecap: square; stroke-dasharray: 102, 102; stroke-dashoffset: 0;" stroke="gray">
                      </line>
                      <polyline class="st6" points="251.2,172.7 241.2,182.7 231.2,172.7 		" data-llp-id="methprocess-17" data-llp-duration="210" data-llp-delay="1210" fill-opacity="1" style="stroke: rgb(128, 128, 128); stroke-opacity: 1; stroke-width: 0.75; stroke-linecap: square; stroke-dasharray: 28.2843, 28.2843; stroke-dashoffset: 0;">
                      </polyline>
                    </g>
                    <g class="methnode-1-circle">
                      <g>
                        <g>
                          <path class="st6" d="M241.2,183.7c5,0,9,4,9,9s-4,9-9,9s-9-4-9-9S236.2,183.7,241.2,183.7 M241.2,182.7c-5.5,0-10,4.5-10,10
                                c0,5.5,4.5,10,10,10c5.5,0,10-4.5,10-10C251.2,187.2,246.7,182.7,241.2,182.7L241.2,182.7z" data-llp-id="methprocess-18" data-llp-duration="210" data-llp-delay="1420" fill-opacity="1" style="stroke: rgb(128, 128, 128); stroke-opacity: 1; stroke-width: 0.75; stroke-linecap: square; stroke-dasharray: 119.409, 119.409; stroke-dashoffset: 0;">
                          </path>
                        </g>
                      </g>
                      <circle class="st8" cx="241.2" cy="192.7" r="3" data-llp-id="methprocess-19" data-llp-duration="210" data-llp-delay="1630" fill-opacity="1" style="stroke: rgb(128, 128, 128); stroke-opacity: 1; stroke-width: 0.75; stroke-linecap: square; stroke-dasharray: 18.8496, 18.8496; stroke-dashoffset: 0;">
                      </circle>
                    </g>
                    <g class="methnode-1-txt-left"><text transform="matrix(1 0 0 1 183.0942 199.7318)" class="st9 st2 st3 st10" style="opacity: 1;">01</text></g>
                    <g class="methnode-1-txt-right"><text transform="matrix(1 0 0 1 274.9786 199.733)" class="st9 st5 st3" style="opacity: 1;">Outline Business Case</text></g>
                    <line class="st7 line-1-2" x1="241.2" y1="202.7" x2="241.2" y2="260.6" data-llp-id="methprocess-20" data-llp-duration="210" data-llp-delay="1840" fill-opacity="0" style="stroke: gray; stroke-opacity: 1; stroke-width: 0.75; stroke-linecap: square; stroke-dasharray: 57.9, 57.9; stroke-dashoffset: 0;">
                    </line>
                    <g class="methnode-2-circle">
                      <g>
                        <g>
                          <path class="st6" d="M241.2,261.6c5,0,9,4,9,9s-4,9-9,9s-9-4-9-9S236.2,261.6,241.2,261.6 M241.2,260.6c-5.5,0-10,4.5-10,10
                                s4.5,10,10,10c5.5,0,10-4.5,10-10S246.7,260.6,241.2,260.6L241.2,260.6z" data-llp-id="methprocess-21" data-llp-duration="210" data-llp-delay="2050" fill-opacity="1" style="stroke: rgb(128, 128, 128); stroke-opacity: 1; stroke-width: 0.75; stroke-linecap: square; stroke-dasharray: 119.41, 119.41; stroke-dashoffset: 0;">
                          </path>
                        </g>
                      </g>
                      <circle class="st8" cx="241.2" cy="270.6" r="3" data-llp-id="methprocess-22" data-llp-duration="210" data-llp-delay="2260" fill-opacity="1" style="stroke: rgb(128, 128, 128); stroke-opacity: 1; stroke-width: 0.75; stroke-linecap: square; stroke-dasharray: 18.8496, 18.8496; stroke-dashoffset: 0;">
                      </circle>
                    </g>
                    <g class="methnode-2-txt-left"><text transform="matrix(1 0 0 1 183.0942 277.5802)" class="st9 st2 st3 st10" style="opacity: 1;">02</text></g>
                    <g class="methnode-2-txt-right"><text transform="matrix(1 0 0 1 274.9783 277.5777)" class="st9 st5 st3" style="opacity: 1;">Feasibility Study</text></g>
                    <line class="st7" x1="241.2" y1="280.6" x2="241.2" y2="338.4" data-llp-id="methprocess-23" data-llp-duration="210" data-llp-delay="2470" fill-opacity="0" style="stroke: gray; stroke-opacity: 1; stroke-width: 0.75; stroke-linecap: square; stroke-dasharray: 57.8, 57.8; stroke-dashoffset: 0;">
                    </line>
                    <g class="methnode-3-circle">
                      <g>
                        <g>
                          <path class="st6" d="M241.2,339.4c5,0,9,4,9,9s-4,9-9,9s-9-4-9-9S236.2,339.4,241.2,339.4 M241.2,338.4c-5.5,0-10,4.5-10,10
                                c0,5.5,4.5,10,10,10c5.5,0,10-4.5,10-10C251.2,342.9,246.7,338.4,241.2,338.4L241.2,338.4z" data-llp-id="methprocess-24" data-llp-duration="210" data-llp-delay="2680" fill-opacity="1" style="stroke: rgb(128, 128, 128); stroke-opacity: 1; stroke-width: 0.75; stroke-linecap: square; stroke-dasharray: 119.41, 119.41; stroke-dashoffset: 0;">
                          </path>
                        </g>
                      </g>
                      <circle class="st8" cx="241.2" cy="348.4" r="3" data-llp-id="methprocess-25" data-llp-duration="210" data-llp-delay="2890" fill-opacity="1" style="stroke: rgb(128, 128, 128); stroke-opacity: 1; stroke-width: 0.75; stroke-linecap: square; stroke-dasharray: 18.8496, 18.8496; stroke-dashoffset: 0;">
                      </circle>
                    </g>
                    <g class="methnode-3-txt-left"><text transform="matrix(1 0 0 1 183.0942 355.4278)" class="st9 st2 st3 st10" style="opacity: 1;">03</text></g>
                    <g class="methnode-3-txt-right"><text transform="matrix(1 0 0 1 274.9784 355.4281)" class="st9 st5 st3" style="opacity: 1;">Risk Assessment</text></g>
                    <line class="st7" x1="241.2" y1="358.4" x2="241.2" y2="416.3" data-llp-id="methprocess-26" data-llp-duration="210" data-llp-delay="3100" fill-opacity="0" style="stroke: gray; stroke-opacity: 1; stroke-width: 0.75; stroke-linecap: square; stroke-dasharray: 57.9, 57.9; stroke-dashoffset: 0;">
                    </line>
                    <g class="methnode-4-circle">
                      <g>
                        <g>
                          <path class="st6" d="M241.2,417.3c5,0,9,4,9,9s-4,9-9,9s-9-4-9-9S236.2,417.3,241.2,417.3 M241.2,416.3c-5.5,0-10,4.5-10,10
                                c0,5.5,4.5,10,10,10c5.5,0,10-4.5,10-10C251.2,420.7,246.7,416.3,241.2,416.3L241.2,416.3z" data-llp-id="methprocess-27" data-llp-duration="210" data-llp-delay="3310" fill-opacity="1" style="stroke: rgb(128, 128, 128); stroke-opacity: 1; stroke-width: 0.75; stroke-linecap: square; stroke-dasharray: 119.431, 119.431; stroke-dashoffset: 0;">
                          </path>
                        </g>
                      </g>
                      <circle class="st8" cx="241.2" cy="426.3" r="3" data-llp-id="methprocess-28" data-llp-duration="210" data-llp-delay="3520" fill-opacity="1" style="stroke: rgb(128, 128, 128); stroke-opacity: 1; stroke-width: 0.75; stroke-linecap: square; stroke-dasharray: 18.8496, 18.8496; stroke-dashoffset: 0;">
                      </circle>
                    </g>
                    <g class="methnode-4-txt-left"><text transform="matrix(1 0 0 1 183.0942 433.2772)" class="st9 st2 st3 st10" style="opacity: 1;">04</text></g>
                    <g class="methnode-4-txt-right"><text transform="matrix(1 0 0 1 274.9782 433.2745)" class="st9 st5 st3" style="opacity: 1;">Project Assessment Form (PAF) approval</text></g>
                    <g class="arrow-with-cap-2">
                      <line class="st7" x1="241.2" y1="436.3" x2="241.2" y2="504.1" data-llp-id="methprocess-29" data-llp-duration="210" data-llp-delay="3730" fill-opacity="1" style="stroke: gray; stroke-opacity: 1; stroke-width: 0.75; stroke-linecap: square; stroke-dasharray: 67.8, 67.8; stroke-dashoffset: 0;" stroke="gray">
                      </line>
                      <line class="st7" x1="241.2" y1="504.1" x2="463.5" y2="504.1" data-llp-id="methprocess-30" data-llp-duration="210" data-llp-delay="3940" fill-opacity="1" style="stroke: gray; stroke-opacity: 1; stroke-width: 0.75; stroke-linecap: square; stroke-dasharray: 222.3, 222.3; stroke-dashoffset: 0;" stroke="gray">
                      </line>
                      <polyline class="st6" points="460.5,494.1 470.5,504.1 460.5,514.1 		" data-llp-id="methprocess-31" data-llp-duration="210" data-llp-delay="4150" fill-opacity="1" style="stroke: rgb(128, 128, 128); stroke-opacity: 1; stroke-width: 0.75; stroke-linecap: square; stroke-dasharray: 28.2842, 28.2842; stroke-dashoffset: 0;">
                      </polyline>
                    </g>
                    <g class="methnode-approval-border">
                      <g>
                        <path class="st6" d="M636.7,490.1c7.7,0,14,6.3,14,14c0,7.7-6.3,14-14,14H485.5c-7.7,0-14-6.3-14-14c0-7.7,6.3-14,14-14H636.7
                               M636.7,489.1H485.5c-8.3,0-15,6.7-15,15v0c0,8.3,6.7,15,15,15h151.2c8.3,0,15-6.7,15-15v0C651.7,495.8,644.9,489.1,636.7,489.1
                              L636.7,489.1z" data-llp-id="methprocess-32" data-llp-duration="210" data-llp-delay="4360" fill-opacity="1" style="stroke: rgb(128, 128, 128); stroke-opacity: 1; stroke-width: 0.75; stroke-linecap: square; stroke-dasharray: 786.989, 786.989; stroke-dashoffset: 0;" stroke="gray">
                        </path>
                      </g>
                    </g>
                    <g class="methnode-approval-txt"><text transform="matrix(1 0 0 1 486.0422 511.0677)" class="st1 st5 st3" style="opacity: 1;">Approved Project</text></g>
                    <g class="arrow-with-cap-3">
                      <line class="st7" x1="651.5" y1="504.1" x2="881.2" y2="504.1" data-llp-id="methprocess-33" data-llp-duration="210" data-llp-delay="4570" fill-opacity="1" style="stroke: gray; stroke-opacity: 1; stroke-width: 0.75; stroke-linecap: square; stroke-dasharray: 229.7, 229.7; stroke-dashoffset: 0;" stroke="gray">
                      </line>
                      <line class="st7" x1="881.2" y1="504.1" x2="881.2" y2="443.3" data-llp-id="methprocess-34" data-llp-duration="210" data-llp-delay="4780" fill-opacity="1" style="stroke: gray; stroke-opacity: 1; stroke-width: 0.75; stroke-linecap: square; stroke-dasharray: 60.8, 60.8; stroke-dashoffset: 0;" stroke="gray">
                      </line>
                      <polyline class="st6" points="871.2,446.3 881.2,436.3 891.2,446.3 		" data-llp-id="methprocess-35" data-llp-duration="210" data-llp-delay="4990" fill-opacity="1" style="stroke: rgb(128, 128, 128); stroke-opacity: 1; stroke-width: 0.75; stroke-linecap: square; stroke-dasharray: 28.2843, 28.2843; stroke-dashoffset: 0;">
                      </polyline>
                    </g>
                    <g class="methnode-5-circle">
                      <g>
                        <g>
                          <path class="st6" d="M881.2,417.3c5,0,9,4,9,9s-4,9-9,9s-9-4-9-9S876.2,417.3,881.2,417.3 M881.2,416.3c-5.5,0-10,4.5-10,10
                                c0,5.5,4.5,10,10,10c5.5,0,10-4.5,10-10C891.2,420.7,886.7,416.3,881.2,416.3L881.2,416.3z" data-llp-id="methprocess-36" data-llp-duration="210" data-llp-delay="5200" fill-opacity="1" style="stroke: rgb(128, 128, 128); stroke-opacity: 1; stroke-width: 0.75; stroke-linecap: square; stroke-dasharray: 119.431, 119.431; stroke-dashoffset: 0;">
                          </path>
                        </g>
                      </g>
                      <circle class="st8" cx="881.2" cy="426.3" r="3" data-llp-id="methprocess-37" data-llp-duration="210" data-llp-delay="5410" fill-opacity="1" style="stroke: rgb(128, 128, 128); stroke-opacity: 1; stroke-width: 0.75; stroke-linecap: square; stroke-dasharray: 18.8496, 18.8496; stroke-dashoffset: 0;">
                      </circle>
                    </g>
                    <g class="methnode-5-txt-left"><text transform="matrix(1 0 0 1 823.0684 433.2762)" class="st9 st2 st3 st10" style="opacity: 1;">05</text></g>
                    <g class="methnode-5-txt-right"><text transform="matrix(1 0 0 1 914.649 433.2752)" class="st9 st5 st3" style="opacity: 1;">Initiate the Project</text></g>
                    <line class="st7" x1="881.2" y1="416.3" x2="881.2" y2="358.4" data-llp-id="methprocess-38" data-llp-duration="210" data-llp-delay="5620" fill-opacity="0" style="stroke: gray; stroke-opacity: 1; stroke-width: 0.75; stroke-linecap: square; stroke-dasharray: 57.9, 57.9; stroke-dashoffset: 0;">
                    </line>
                    <g class="methnode-6-circle">
                      <g>
                        <g>
                          <path class="st6" d="M881.2,339.4c5,0,9,4,9,9s-4,9-9,9s-9-4-9-9S876.2,339.4,881.2,339.4 M881.2,338.4c-5.5,0-10,4.5-10,10
                                c0,5.5,4.5,10,10,10c5.5,0,10-4.5,10-10C891.2,342.9,886.7,338.4,881.2,338.4L881.2,338.4z" data-llp-id="methprocess-39" data-llp-duration="210" data-llp-delay="5830" fill-opacity="1" style="stroke: rgb(128, 128, 128); stroke-opacity: 1; stroke-width: 0.75; stroke-linecap: square; stroke-dasharray: 119.41, 119.41; stroke-dashoffset: 0;">
                          </path>
                        </g>
                      </g>
                      <circle class="st8" cx="881.2" cy="348.4" r="3" data-llp-id="methprocess-40" data-llp-duration="210" data-llp-delay="6040" fill-opacity="1" style="stroke: rgb(128, 128, 128); stroke-opacity: 1; stroke-width: 0.75; stroke-linecap: square; stroke-dasharray: 18.8496, 18.8496; stroke-dashoffset: 0;">
                      </circle>
                    </g>
                    <g class="methnode-6-txt-left"><text transform="matrix(1 0 0 1 823.0684 355.4273)" class="st9 st2 st3 st10" style="opacity: 1;">06</text></g>
                    <g class="methnode-6-txt-right"><text transform="matrix(1 0 0 1 914.9277 355.4254)" class="st9 st5 st3" style="opacity: 1;">Planning</text></g>
                    <line class="st7" x1="881.2" y1="338.4" x2="881.2" y2="280.6" data-llp-id="methprocess-41" data-llp-duration="210" data-llp-delay="6250" fill-opacity="0" style="stroke: gray; stroke-opacity: 1; stroke-width: 0.75; stroke-linecap: square; stroke-dasharray: 57.8, 57.8; stroke-dashoffset: 0;">
                    </line>
                    <g class="methnode-7-circle">
                      <g>
                        <g>
                          <path class="st6" d="M881.2,261.6c5,0,9,4,9,9s-4,9-9,9s-9-4-9-9S876.2,261.6,881.2,261.6 M881.2,260.6c-5.5,0-10,4.5-10,10
                                s4.5,10,10,10c5.5,0,10-4.5,10-10S886.7,260.6,881.2,260.6L881.2,260.6z" data-llp-id="methprocess-42" data-llp-duration="210" data-llp-delay="6460" fill-opacity="1" style="stroke: rgb(128, 128, 128); stroke-opacity: 1; stroke-width: 0.75; stroke-linecap: square; stroke-dasharray: 119.41, 119.41; stroke-dashoffset: 0;">
                          </path>
                        </g>
                      </g>
                      <circle class="st8" cx="881.2" cy="270.6" r="3" data-llp-id="methprocess-43" data-llp-duration="210" data-llp-delay="6670" fill-opacity="1" style="stroke: rgb(128, 128, 128); stroke-opacity: 1; stroke-width: 0.75; stroke-linecap: square; stroke-dasharray: 18.8496, 18.8496; stroke-dashoffset: 0;">
                      </circle>
                    </g>
                    <g class="methnode-7-txt-left"><text transform="matrix(1 0 0 1 823.0684 277.5802)" class="st9 st2 st3 st10" style="opacity: 1;">07</text></g>
                    <g class="methnode-7-txt-right"><text transform="matrix(1 0 0 1 914.9275 277.577)" class="st9 st5 st3" style="opacity: 1;">Executing</text></g>
                    <line class="st7" x1="881.2" y1="260.6" x2="881.2" y2="202.7" data-llp-id="methprocess-44" data-llp-duration="210" data-llp-delay="6880" fill-opacity="0" style="stroke: gray; stroke-opacity: 1; stroke-width: 0.75; stroke-linecap: square; stroke-dasharray: 57.9, 57.9; stroke-dashoffset: 0;">
                    </line>
                    <g class="methnode-8-circle">
                      <g>
                        <g>
                          <path class="st6" d="M881.2,183.7c5,0,9,4,9,9s-4,9-9,9s-9-4-9-9S876.2,183.7,881.2,183.7 M881.2,182.7c-5.5,0-10,4.5-10,10
                                c0,5.5,4.5,10,10,10c5.5,0,10-4.5,10-10C891.2,187.2,886.7,182.7,881.2,182.7L881.2,182.7z" data-llp-id="methprocess-45" data-llp-duration="210" data-llp-delay="7090" fill-opacity="1" style="stroke: rgb(128, 128, 128); stroke-opacity: 1; stroke-width: 0.75; stroke-linecap: square; stroke-dasharray: 119.41, 119.41; stroke-dashoffset: 0;">
                          </path>
                        </g>
                      </g>
                      <circle class="st8" cx="881.2" cy="192.7" r="3" data-llp-id="methprocess-46" data-llp-duration="210" data-llp-delay="7300" fill-opacity="1" style="stroke: rgb(128, 128, 128); stroke-opacity: 1; stroke-width: 0.75; stroke-linecap: square; stroke-dasharray: 18.8496, 18.8496; stroke-dashoffset: 0;">
                      </circle>
                    </g>
                    <g class="methnode-8-txt-left"><text transform="matrix(1 0 0 1 823.0684 199.7318)" class="st9 st2 st3 st10" style="opacity: 1;">08</text></g>
                    <g class="methnode-8-txt-right"><text transform="matrix(1 0 0 1 914.9277 199.7293)" class="st9 st5 st3" style="opacity: 1;">Monitoring &amp; Controling</text></g>
                    <line class="st7" x1="881.2" y1="182.7" x2="881.2" y2="124.9" data-llp-id="methprocess-47" data-llp-duration="210" data-llp-delay="7510" fill-opacity="0" style="stroke: gray; stroke-opacity: 1; stroke-width: 0.75; stroke-linecap: square; stroke-dasharray: 57.8, 57.8; stroke-dashoffset: 0;">
                    </line>
                    <g class="methnode-9-circle">
                      <g>
                        <g>
                          <path class="st6" d="M881.2,105.9c5,0,9,4,9,9s-4,9-9,9s-9-4-9-9S876.2,105.9,881.2,105.9 M881.2,104.9c-5.5,0-10,4.5-10,10
                                c0,5.5,4.5,10,10,10c5.5,0,10-4.5,10-10C891.2,109.3,886.7,104.9,881.2,104.9L881.2,104.9z" data-llp-id="methprocess-48" data-llp-duration="210" data-llp-delay="7720" fill-opacity="1" style="stroke: rgb(128, 128, 128); stroke-opacity: 1; stroke-width: 0.75; stroke-linecap: square; stroke-dasharray: 119.431, 119.431; stroke-dashoffset: 0;">
                          </path>
                        </g>
                      </g>
                      <circle class="st8" cx="881.2" cy="114.9" r="3" data-llp-id="methprocess-49" data-llp-duration="210" data-llp-delay="7930" fill-opacity="1" style="stroke: rgb(128, 128, 128); stroke-opacity: 1; stroke-width: 0.75; stroke-linecap: square; stroke-dasharray: 18.8496, 18.8496; stroke-dashoffset: 0;">
                      </circle>
                    </g>
                    <g class="methnode-9-txt-left"><text transform="matrix(1 0 0 1 823.0684 121.8836)" class="st9 st2 st3 st10" style="opacity: 1;">09</text></g>
                    <g class="methnode-9-txt-right"><text transform="matrix(1 0 0 1 914.9274 121.8802)" class="st9 st5 st3" style="opacity: 1;">Deployment</text></g>
                    <line class="st7" x1="881.2" y1="104.9" x2="881.2" y2="47" data-llp-id="methprocess-50" data-llp-duration="210" data-llp-delay="8140" fill-opacity="0" style="stroke: gray; stroke-opacity: 1; stroke-width: 0.75; stroke-linecap: square; stroke-dasharray: 57.9, 57.9; stroke-dashoffset: 0;">
                    </line>
                    <g class="methnode-10-circle">
                      <g>
                        <g>
                          <path class="st6" d="M881.2,28c5,0,9,4,9,9s-4,9-9,9s-9-4-9-9S876.2,28,881.2,28 M881.2,27c-5.5,0-10,4.5-10,10s4.5,10,10,10
                                c5.5,0,10-4.5,10-10S886.7,27,881.2,27L881.2,27z" data-llp-id="methprocess-51" data-llp-duration="210" data-llp-delay="8350" fill-opacity="1" style="stroke: rgb(128, 128, 128); stroke-opacity: 1; stroke-width: 0.75; stroke-linecap: square; stroke-dasharray: 119.41, 119.41; stroke-dashoffset: 0;">
                          </path>
                        </g>
                      </g>
                      <circle class="st8" cx="881.2" cy="37" r="3" data-llp-id="methprocess-52" data-llp-duration="210" data-llp-delay="8560" fill-opacity="1" style="stroke: rgb(128, 128, 128); stroke-opacity: 1; stroke-width: 0.75; stroke-linecap: square; stroke-dasharray: 18.8496, 18.8496; stroke-dashoffset: 0;">
                      </circle>
                    </g>
                    <g class="methnode-10-txt-left"><text transform="matrix(1 0 0 1 823.0684 44.0352)" class="st9 st2 st3 st10" style="opacity: 1;">10</text></g>
                    <g class="methnode-10-txt-right"><text transform="matrix(1 0 0 1 914.6492 44.0321)" class="st9 st5 st3" style="opacity: 1;">Project Closing</text></g>
                  </g>
                </svg>