<svg xmlns="http://www.w3.org/2000/svg" width="50.124" height="40.286" viewBox="0 0 50.124 40.286">
  <g id="Group_2524" data-name="Group 2524" transform="translate(-126.812 -1512.369)" style="isolation: isolate">
    <g id="Group_2513" data-name="Group 2513" transform="translate(138.641 1526.059)">
      <path id="Path_3000" data-name="Path 3000" d="M174.815,1540.851l-4.7-4.693-12.31,12.312-4.763-4.762-4.7,4.7,9.455,9.455.006-.012.014.012Z" transform="translate(-148.346 -1536.158)" fill="#d10d74"/>
    </g>
    <g id="Group_2514" data-name="Group 2514" transform="translate(126.812 1512.369)">
      <path id="Path_3001" data-name="Path 3001" d="M163.717,1516.344a25.377,25.377,0,0,0-28.852,38.886,23.857,23.857,0,0,1,2.7-5.336c-.123-.232-.263-.452-.379-.689a20.267,20.267,0,0,1,36.458-17.714,20.43,20.43,0,0,1,1,2.507c.506.034,1.016.057,1.52.109,1.368.142,2.693.351,3.982.609A25.386,25.386,0,0,0,163.717,1516.344Z" transform="translate(-130.016 -1514.944)" fill="#d10d74" style="mix-blend-mode: screen;isolation: isolate"/>
    </g>
  </g>
</svg>
