<svg xmlns="http://www.w3.org/2000/svg" width="45.458" height="54.912" viewBox="0 0 45.458 54.912">
  <g id="GpTYdx.tif" transform="translate(-555 -135.464)" style="isolation: isolate">
    <g id="Group_2504" data-name="Group 2504" transform="translate(555 135.464)">
      <path id="Path_2971" data-name="Path 2971" d="M558.405,189.446q1.962-2.642,3.924-5.286c1.854-2.513,3.7-5.035,5.555-7.545a1.482,1.482,0,0,0,.33-1.26,2.523,2.523,0,0,1,2.105-3.111,2.584,2.584,0,1,1,.677,5.121,1.361,1.361,0,0,0-.97.517q-4.713,6.4-9.443,12.787a1.312,1.312,0,0,0-.1.274,2.378,2.378,0,0,0,1.086-.36,85.438,85.438,0,0,1,16.107-5.713,2.692,2.692,0,0,0,2.063-1.628c2.663-5.451,5.4-10.865,8.113-16.291.092-.183.177-.37.281-.546a1.232,1.232,0,0,1,1.686-.592,1.177,1.177,0,0,1,.484,1.7q-1.594,3.279-3.226,6.541c-1.893,3.8-3.814,7.595-5.679,11.413a2.559,2.559,0,0,1-1.99,1.555,78.7,78.7,0,0,0-17.009,5.889c-1.774.8-3.511,1.675-5.257,2.532a1.488,1.488,0,0,1-1.662.039,1.433,1.433,0,0,1-.415-1.593,100.1,100.1,0,0,0,1.464-12.178,53.251,53.251,0,0,0-.445-11.63,1.5,1.5,0,0,1,.493-1.311q4.03-4.325,8.055-8.656,2.823-3.036,5.646-6.073a4.537,4.537,0,0,1,.491-.485,1.2,1.2,0,0,1,1.67.048,1.123,1.123,0,0,1,.076,1.6c-.833.97-1.709,1.9-2.579,2.841q-5.332,5.736-10.682,11.455a1.781,1.781,0,0,0-.529,1.585,47.427,47.427,0,0,1,.421,7.422C559.061,182.143,558.769,185.76,558.405,189.446Z" transform="translate(-555 -141.335)" fill="#d10d74"/>
      <path id="Path_2972" data-name="Path 2972" d="M582.974,135.464a6.344,6.344,0,0,1,1.811,1.28c.032.285-.182.468-.326.673-1.027,1.469-2.043,2.946-3.105,4.389-.344.468-.3.688.18,1.02q9.852,6.883,19.68,13.8c.862.605.869.611,1.464-.23.989-1.4,1.981-2.8,2.943-4.221.328-.483.616-.583,1.115-.218,1.646,1.208,1.452.824.424,2.336-1.31,1.926-2.689,3.806-4.006,5.727-.338.493-.6.561-1.1.207q-5.956-4.214-11.941-8.387-5.879-4.123-11.76-8.244c-.828-.579-.829-.571-.251-1.4q2.13-3.056,4.26-6.113C582.531,135.842,582.661,135.54,582.974,135.464Z" transform="translate(-562.494 -135.464)" fill="#d10d74"/>
      <path id="Path_2973" data-name="Path 2973" d="M586.378,213.768q7.144,0,14.288,0a4.565,4.565,0,0,1,.614.019,1.2,1.2,0,0,1,1.043,1.224,1.1,1.1,0,0,1-1.048,1.128,18.057,18.057,0,0,1-2.068.077c-2.913-.039-5.825-.053-8.738,0-1.276.025-2.553-.029-3.83-.03-1.763,0-3.528.034-5.291.019-1.2-.01-2.4,0-3.6,0-1.916,0-3.832-.06-5.748.021a1.441,1.441,0,0,1-1.533-.785,1.122,1.122,0,0,1,.258-1.337,1.48,1.48,0,0,1,1.214-.34Z" transform="translate(-556.867 -161.32)" fill="#d10d74"/>
    </g>
  </g>
</svg>
