<svg xmlns="http://www.w3.org/2000/svg" width="56.003" height="42.797" viewBox="0 0 56.003 42.797">
  <g id="_0mlEaJ.tif" data-name="0mlEaJ.tif" transform="translate(-281.791 -151.663)" style="isolation: isolate">
    <g id="Group_2511" data-name="Group 2511" transform="translate(281.791 151.663)">
      <path id="Path_2991" data-name="Path 2991" d="M281.9,196.081a.849.849,0,0,1,.321-.288,1.632,1.632,0,0,1,.885-.194c1.017.026,2.034,0,3.051.014.379.007.507-.13.505-.508q-.019-3.486,0-6.972c0-.442-.169-.585-.58-.555a3.313,3.313,0,0,1-.652-.021.942.942,0,0,1-.768-1.532c1.064-1.839,2.149-3.665,3.225-5.5.184-.313.361-.63.557-.936a.931.931,0,0,1,1.706-.024q1.944,3.249,3.841,6.524a.92.92,0,0,1-.722,1.45,2.2,2.2,0,0,1-.6.033c-.532-.059-.732.12-.724.692.031,2.251.023,4.5,0,6.755,0,.447.13.6.587.593,1.616-.023,3.232-.021,4.848,0,.43,0,.608-.1.606-.573q-.02-8.771,0-17.542c0-.47-.173-.594-.606-.578-.535.021-1.125.117-1.457-.477-.343-.611.068-1.073.354-1.548q1.671-2.777,3.352-5.547c.648-1.064,1.356-1.065,2,0q1.787,2.93,3.55,5.873c.6,1,.2,1.7-.974,1.707-.127,0-.255.011-.381,0-.386-.037-.55.1-.55.518q.016,8.826,0,17.65c0,.422.163.526.55.518.889-.021,1.78-.035,2.668,0,.507.021.646-.147.644-.648-.017-4.721-.01-9.442-.009-14.164q0-4.849,0-9.7c0-.958.265-1.217,1.237-1.218q1.389,0,2.778,0c1.069,0,1.292.23,1.292,1.325q0,11.794,0,23.588c0,.8,0,.8.8.8.835,0,1.671-.014,2.506.007.386.009.55-.1.549-.517q-.016-8.826,0-17.651c0-.419-.166-.55-.55-.52a4.549,4.549,0,0,1-.653,0,.939.939,0,0,1-.831-1.464c.3-.56.645-1.095.974-1.639.91-1.508,1.817-3.018,2.736-4.52.61-1,1.339-1,1.947,0q1.813,2.977,3.605,5.967c.563.939.15,1.649-.949,1.658s-.975-.1-.975,1.008q0,8.471,0,16.942c0,.726,0,.727.708.728,1.579,0,3.159-.014,4.739.009.458.007.59-.148.586-.594q-.027-3.4,0-6.81c0-.465-.125-.678-.614-.637a2.932,2.932,0,0,1-.759-.044.9.9,0,0,1-.689-1.389q1.918-3.327,3.9-6.618a.9.9,0,0,1,1.608-.017q1.982,3.288,3.9,6.616a.908.908,0,0,1-.713,1.415,5.166,5.166,0,0,1-.868.041c-.311,0-.465.11-.464.446q.011,3.569,0,7.137c0,.381.179.452.5.449,1.017-.011,2.034.015,3.051-.012a1.631,1.631,0,0,1,.881.193.856.856,0,0,1,.325.289.987.987,0,0,1,0,.872,1.4,1.4,0,0,1-1.206.482q-26.689-.014-53.378,0a1.4,1.4,0,0,1-1.206-.482A.987.987,0,0,1,281.9,196.081Z" transform="translate(-281.791 -154.638)" fill="#d10d74"/>
      <path id="Path_2992" data-name="Path 2992" d="M314.707,165.249c-.544,0-1.09.009-1.634,0a.879.879,0,0,1-.977-.978c-.012-1.071-.028-2.143.006-3.213.015-.491-.159-.661-.628-.6a3.81,3.81,0,0,1-.6,0,.924.924,0,0,1-.812-1.459c.632-1.164,1.293-2.312,1.943-3.466.587-1.044,1.18-2.085,1.765-3.13.221-.395.461-.74.984-.736.5.005.732.33.945.708,1.209,2.152,2.394,4.317,3.644,6.444.463.788.163,1.723-.973,1.657-1.087-.064-.967-.138-.973.989,0,.925.006,1.851,0,2.777a.888.888,0,0,1-1,1.009C315.832,165.257,315.269,165.25,314.707,165.249Z" transform="translate(-286.743 -151.663)" fill="#d10d74"/>
    </g>
  </g>
</svg>
