<svg xmlns="http://www.w3.org/2000/svg" width="36.3" height="54.213" viewBox="0 0 36.3 54.213">
  <g id="Group_2523" data-name="Group 2523" transform="translate(-763.342 -4068.452)" style="isolation: isolate">
    <path id="Path_2994" data-name="Path 2994" d="M798.269,4098.47a1.315,1.315,0,0,0-1.315,1.315v18.425c0,1.521-.636,1.826-1.664,1.826H767.5a1.707,1.707,0,0,1-1.533-1.608v-45.6a1.571,1.571,0,0,1,1.607-1.745h2.192a1.314,1.314,0,0,0,0-2.629h-2.192a4.166,4.166,0,0,0-4.236,4.374v45.6a4.31,4.31,0,0,0,4.163,4.236h27.785c2.689,0,4.293-1.666,4.293-4.454v-18.425A1.314,1.314,0,0,0,798.269,4098.47Z" transform="translate(0 0)" fill="#d10d74"/>
    <path id="Path_2995" data-name="Path 2995" d="M803.983,4069.586h-7.559a10.736,10.736,0,0,0,10.736,10.736v-7.711A2.876,2.876,0,0,0,803.983,4069.586Z" transform="translate(-7.518 -0.257)" fill="#d10d74"/>
    <path id="Path_2996" data-name="Path 2996" d="M787.785,4078.112l-7.67,3.835a1.534,1.534,0,1,0,1.374,2.742l7.668-3.832a1.535,1.535,0,0,0-1.372-2.746Z" transform="translate(-3.619 -2.159)" fill="#d10d74"/>
    <path id="Path_2997" data-name="Path 2997" d="M797.612,4085.267a1.533,1.533,0,0,0-2.11.5l-4.382,7.146a1.533,1.533,0,0,0,.506,2.109,1.516,1.516,0,0,0,.8.228,1.534,1.534,0,0,0,1.309-.732l4.381-7.145A1.534,1.534,0,0,0,797.612,4085.267Z" transform="translate(-6.261 -3.77)" fill="#d10d74"/>
    <path id="Path_2998" data-name="Path 2998" d="M778.559,4071.52l7.853.111h.022a1.535,1.535,0,0,0,.021-3.069l-7.851-.109h-.022a1.534,1.534,0,0,0-.022,3.067Z" transform="translate(-3.115 0)" fill="#d10d74"/>
    <path id="Path_2999" data-name="Path 2999" d="M807.784,4099.38h.008a1.531,1.531,0,0,0,1.525-1.541l-.043-8.436a1.533,1.533,0,0,0-1.534-1.526h-.008a1.533,1.533,0,0,0-1.526,1.541l.044,8.436A1.534,1.534,0,0,0,807.784,4099.38Z" transform="translate(-9.741 -4.415)" fill="#d10d74"/>
    <rect id="Rectangle_421" data-name="Rectangle 421" width="5.14" height="19.921" rx="1" transform="translate(769.282 4096.697)" fill="#d10d74"/>
    <rect id="Rectangle_422" data-name="Rectangle 422" width="5.746" height="11.356" rx="1" transform="translate(786.581 4105.261)" fill="#d10d74"/>
    <rect id="Rectangle_423" data-name="Rectangle 423" width="6.289" height="8.138" rx="1" transform="translate(777.377 4108.48)" fill="#d10d74"/>
  </g>
</svg>
