<svg xmlns="http://www.w3.org/2000/svg" width="46.488" height="53.366" viewBox="0 0 46.488 53.366">
  <path id="Path_3015" data-name="Path 3015" d="M609.256,4123.429a7.432,7.432,0,0,0-7.327.641,6.986,6.986,0,0,0-4.072-2.814,7.2,7.2,0,0,0-4.652.5,8.254,8.254,0,0,0-3.62-3.932c.05-.983.141-2.493.254-3.292.525-3.71,2.72-11.035,4.079-13.429,13.058,2.819,22.321-5.632,21.07-20.92-13.649-2.189-27.072,4.81-24.4,17.423,4.451-6.232,9.347-11.87,18.731-13.133-10.5,4.661-17.641,14.824-22.033,25.594a31.376,31.376,0,0,0-13.782-15.892c.033,0,.246.036.279.036a22.169,22.169,0,0,1,9.979,5.323,32.374,32.374,0,0,1,3.333,4.685s1.045-14.923-16.863-12.92c-.769,10.968,3.607,17.639,14.419,17.364.414,1.29,1.018,2.593,1.422,4.062a20.121,20.121,0,0,0-.939,4.035c-.04,0-.077,0-.117,0a9.453,9.453,0,0,0-9.026,6.388,7.74,7.74,0,0,0-5.426,2.242,7.871,7.871,0,0,0-1.935,5.682,1.558,1.558,0,0,0,3.1-.271,4.738,4.738,0,0,1,1.107-3.282,5.391,5.391,0,0,1,4.253-1.263,1.551,1.551,0,0,0,1.586-1.237c.044-.211,1.135-5.142,6.338-5.142,4.947,0,5.661,3.983,5.726,4.427a1.558,1.558,0,0,0,2.549.993,4.925,4.925,0,0,1,3.811-1.015,4.387,4.387,0,0,1,2.959,2.829,1.565,1.565,0,0,0,2.6.392c.094-.105,2.337-2.6,5.3-1.238a4.666,4.666,0,0,1,2.549,4.957,1.561,1.561,0,0,0,1.135,1.89,1.581,1.581,0,0,0,.377.046,1.559,1.559,0,0,0,1.511-1.181A7.677,7.677,0,0,0,609.256,4123.429Z" transform="translate(-568.613 -4079.787)" fill="#d10d74"/>
</svg>
