<svg xmlns="http://www.w3.org/2000/svg" xmlns:xlink="http://www.w3.org/1999/xlink" width="1769.787" height="765.563" viewBox="0 0 1769.787 765.563">
  <defs>
    <filter id="Ellipse_303" x="275.081" y="275.707" width="236" height="236" filterUnits="userSpaceOnUse">
      <feOffset input="SourceAlpha"/>
      <feGaussianBlur stdDeviation="15" result="blur"/>
      <feFlood flood-opacity="0.302"/>
      <feComposite operator="in" in2="blur"/>
      <feComposite in="SourceGraphic"/>
    </filter>
  </defs>
  <g id="Group_2534" data-name="Group 2534" transform="translate(-15.919 -260.293)">
    <text id="Sharpens" transform="translate(814.669 668.755)" fill="#4d4f53" font-size="50" font-family="HelveticaNeue-Bold, Helvetica Neue" font-weight="700" letter-spacing="0.22em"><tspan x="80.079" y="49">Sharpens</tspan></text>
    <g id="Group_2475" data-name="Group 2475" transform="translate(-151.503 -2.514)">
      <path id="Polygon_5" data-name="Polygon 5" d="M34.758,0,69.517,37.138H0Z" transform="translate(1514.504 621.623) rotate(90)" fill="#d1d1d1"/>
      <g id="Group_2474" data-name="Group 2474" transform="translate(881 642.876)">
        <rect id="Rectangle_388" data-name="Rectangle 388" width="1.589" height="25.42" fill="#d1d1d1"/>
        <rect id="Rectangle_396" data-name="Rectangle 396" width="3.178" height="25.42" transform="translate(6.355)" fill="#d1d1d1"/>
        <rect id="Rectangle_397" data-name="Rectangle 397" width="4.766" height="25.42" transform="translate(14.299)" fill="#d1d1d1"/>
        <rect id="Rectangle_398" data-name="Rectangle 398" width="7.944" height="25.42" transform="translate(23.832)" fill="#d1d1d1"/>
        <rect id="Rectangle_390" data-name="Rectangle 390" width="9.533" height="25.42" transform="translate(36.542)" fill="#d1d1d1"/>
        <rect id="Rectangle_391" data-name="Rectangle 391" width="11.121" height="25.42" transform="translate(50.841)" fill="#d1d1d1"/>
        <rect id="Rectangle_392" data-name="Rectangle 392" width="12.71" height="25.42" transform="translate(66.729)" fill="#d1d1d1"/>
        <rect id="Rectangle_399" data-name="Rectangle 399" width="12.71" height="25.42" transform="translate(84.205)" fill="#d1d1d1"/>
        <rect id="Rectangle_400" data-name="Rectangle 400" width="15.888" height="25.42" transform="translate(101.682)" fill="#d1d1d1"/>
        <rect id="Rectangle_401" data-name="Rectangle 401" width="17.477" height="25.42" transform="translate(122.336)" fill="#d1d1d1"/>
        <rect id="Rectangle_402" data-name="Rectangle 402" width="20.654" height="25.42" transform="translate(144.579)" fill="#d1d1d1"/>
        <rect id="Rectangle_403" data-name="Rectangle 403" width="20.654" height="25.42" transform="translate(169.999)" fill="#d1d1d1"/>
        <rect id="Rectangle_404" data-name="Rectangle 404" width="23.832" height="25.42" transform="translate(195.42)" fill="#d1d1d1"/>
        <rect id="Rectangle_405" data-name="Rectangle 405" width="25.42" height="25.42" transform="translate(224.018)" fill="#d1d1d1"/>
        <rect id="Rectangle_406" data-name="Rectangle 406" width="28.598" height="25.42" transform="translate(254.204)" fill="#d1d1d1"/>
        <rect id="Rectangle_407" data-name="Rectangle 407" width="31.776" height="25.42" transform="translate(287.569)" fill="#d1d1d1"/>
        <rect id="Rectangle_408" data-name="Rectangle 408" width="31.776" height="25.42" transform="translate(324.111)" fill="#d1d1d1"/>
        <rect id="Rectangle_409" data-name="Rectangle 409" width="36.542" height="25.42" transform="translate(362.241)" fill="#d1d1d1"/>
        <rect id="Rectangle_410" data-name="Rectangle 410" width="39.719" height="25.42" transform="translate(403.549)" fill="#d1d1d1"/>
        <rect id="Rectangle_411" data-name="Rectangle 411" width="41.308" height="25.42" transform="translate(448.035)" fill="#d1d1d1"/>
        <rect id="Rectangle_412" data-name="Rectangle 412" width="47.663" height="25.42" transform="translate(495.698)" fill="#d1d1d1"/>
        <rect id="Rectangle_413" data-name="Rectangle 413" width="47.663" height="25.42" transform="translate(549.717)" fill="#d1d1d1"/>
      </g>
    </g>
    <g id="Ring_Chart1" data-name="Ring Chart1" transform="matrix(0.875, -0.485, 0.485, 0.875, -373.484, 309.814)">
      <path id="Path_2954" data-name="Path 2954" d="M0-236A288.513,288.513,0,0,1,248.335-94.352a288.513,288.513,0,0,1,4.491,285.857L0,52.513Z" transform="translate(518.013 628)" fill="#d10d74" stroke="#fff" stroke-width="2"/>
      <path id="Path_2955" data-name="Path 2955" d="M297.164,138.992A288.513,288.513,0,0,1,53.4,288.371,288.513,288.513,0,0,1-199.261,154.593L44.338,0Z" transform="translate(473.675 680.513)" fill="#be156e" stroke="#fff" stroke-width="2"/>
      <path id="Path_2956" data-name="Path 2956" d="M-191.087,207.106A288.513,288.513,0,0,1,52.513-236V52.513Z" transform="translate(465.5 628)" fill="#a0175f" stroke="#fff" stroke-width="2"/>
    </g>
    <text id="Function_Process" data-name="Function &amp; 
Process" transform="translate(432 493)" fill="#fff" font-size="26" font-family="HelveticaNeue, Helvetica Neue"><tspan x="0" y="0">Function &amp; </tspan><tspan x="0" y="36">Process</tspan></text>
    <text id="Policy_Regulation" data-name="Policy &amp; 
Regulation" transform="translate(169.632 651.455)" fill="#fff" font-size="26" font-family="HelveticaNeue, Helvetica Neue"><tspan x="0" y="0">Policy &amp; </tspan><tspan x="0" y="36">Regulation</tspan></text>
    <text id="Methodology_Responsibility" data-name="Methodology &amp; 
Responsibility" transform="translate(406 793.044)" fill="#fff" font-size="26" font-family="HelveticaNeue, Helvetica Neue"><tspan x="0" y="0">Methodology &amp; </tspan><tspan x="0" y="36">Responsibility</tspan></text>
    <g transform="matrix(1, 0, 0, 1, 15.92, 260.29)" filter="url(#Ellipse_303)">
      <g id="Ellipse_303-2" data-name="Ellipse 303" transform="translate(320.08 320.71)" fill="#fff" stroke="#d10d74" stroke-width="20">
        <circle cx="73" cy="73" r="73" stroke="none"/>
        <circle cx="73" cy="73" r="63" fill="none"/>
      </g>
    </g>
    <text id="PMU" transform="translate(375 664.867)" fill="#d10d74" font-size="30" font-family="HelveticaNeue-Bold, Helvetica Neue" font-weight="700"><tspan x="0" y="0">PMU</tspan></text>
    <g id="Group_2499" data-name="Group 2499" transform="translate(32)">
      <text id="Expectations_and_strategic_alignment" data-name="Expectations 
and strategic alignment" transform="translate(1480.706 413)" fill="#4d4f53" font-size="26" font-family="HelveticaNeue-Bold, Helvetica Neue" font-weight="700"><tspan x="0" y="0">Expectations</tspan><tspan y="0" font-family="HelveticaNeue, Helvetica Neue" font-weight="400"> </tspan><tspan font-family="HelveticaNeue, Helvetica Neue" font-weight="400"><tspan x="0" y="36">and strategic alignment</tspan></tspan></text>
      <text id="Resource_utilisation_and_accountability" data-name="Resource utilisation 
and accountability" transform="translate(1480.706 569)" fill="#4d4f53" font-size="26" font-family="HelveticaNeue-Bold, Helvetica Neue" font-weight="700"><tspan x="0" y="0">Resource utilisation</tspan><tspan y="0" font-family="HelveticaNeue, Helvetica Neue" font-weight="400"> </tspan><tspan font-family="HelveticaNeue, Helvetica Neue" font-weight="400"><tspan x="0" y="36">and accountability</tspan></tspan></text>
      <text id="Visibility_and_performance" data-name="Visibility
and performance" transform="translate(1480.706 724)" fill="#4d4f53" font-size="26" font-family="HelveticaNeue-Bold, Helvetica Neue" font-weight="700"><tspan x="0" y="0">Visibility</tspan><tspan y="0" font-family="HelveticaNeue, Helvetica Neue" font-weight="400"></tspan><tspan font-family="HelveticaNeue, Helvetica Neue" font-weight="400"><tspan x="0" y="36">and performance</tspan></tspan></text>
      <text id="Risk_mitigation_and_compliance" data-name="Risk mitigation
and compliance" transform="translate(1480.706 880)" fill="#4d4f53" font-size="26" font-family="HelveticaNeue-Bold, Helvetica Neue" font-weight="700"><tspan x="0" y="0">Risk mitigation</tspan><tspan font-family="HelveticaNeue, Helvetica Neue" font-weight="400"><tspan x="0" y="36">and compliance</tspan></tspan></text>
      <g id="Group_2493" data-name="Group 2493" transform="translate(0 -12)">
        <circle id="Ellipse_304" data-name="Ellipse 304" cx="55" cy="55" r="55" transform="translate(1331 378)" fill="#d10d74"/>
        <g id="DLD0MP.tif" transform="translate(541.98 89)">
          <g id="Group_2476" data-name="Group 2476" transform="translate(814.02 314)">
            <path id="Path_2944" data-name="Path 2944" d="M826.071,332.935c2.647,0,5.293-.006,7.94,0,.959,0,1.486.53,1.414,1.361a1.178,1.178,0,0,1-1.364,1.1c-.815-.019-.869.447-.9,1.062-.034.71.368.765.91.751.806-.021,1.613-.018,2.42,0a1.113,1.113,0,0,0,1.054-.583c1.077-1.675,2.2-3.322,3.259-5.005a1.84,1.84,0,0,1,1.811-.967c.829.046,1.663,0,2.495.017a1.284,1.284,0,0,1,1.4,1.182c.029.731-.424,1.174-1.267,1.308a5.914,5.914,0,0,1-1.579-.013,1.18,1.18,0,0,0-1.249.625c-.934,1.5-1.966,2.933-2.861,4.452a2.971,2.971,0,0,1-2.671,1.547c-1.612.042-3.226.031-4.839.011a1.257,1.257,0,0,1-1.357-1.384,18.369,18.369,0,0,1,.006-2.041c.055-.717-.191-.966-.93-.96-3.806.031-7.612.017-11.418.014a6.243,6.243,0,0,1-1.506-.084,3.618,3.618,0,0,1-2.353-5.3,1.053,1.053,0,0,0,.034-1.169,3.483,3.483,0,0,1,1.088-4.736.874.874,0,0,0,.434-1.046,3.414,3.414,0,0,1,1.5-3.676.94.94,0,0,0,.435-1.124,3.581,3.581,0,0,1,3.553-4.254c3.327-.009,6.655.053,9.981-.022a7.432,7.432,0,0,1,4.141,1.154c2.05,1.235,4.15,2.386,6.22,3.589a2.312,2.312,0,0,0,1.222.306q2.987-.015,5.974,0a3.087,3.087,0,0,1,.821.084,1.178,1.178,0,0,1,.947,1.352,1.144,1.144,0,0,1-1.2,1.13c-2.495.025-4.99.013-7.485,0a2.615,2.615,0,0,1-1.25-.5c-2.449-1.4-4.9-2.795-7.348-4.2a3.077,3.077,0,0,0-1.588-.406q-4.915.005-9.83.006a3.955,3.955,0,0,0-.679.033c-.619.109-1.031.449-.991,1.12a1.025,1.025,0,0,0,1.078,1.042c.856.032,1.714.01,2.57.019,1.027.011,1.575.433,1.6,1.214s-.583,1.334-1.583,1.355c-1.436.031-2.873.012-4.31.022-.839.006-1.306.373-1.32,1.019s.5,1.082,1.347,1.087c1.286.008,2.571,0,3.856,0,.2,0,.4-.009.6.006a1.4,1.4,0,0,1,1.407,1.305,1.378,1.378,0,0,1-1.428,1.275c-1.083.025-2.168.008-3.252.008s-2.168-.008-3.251,0a1.065,1.065,0,1,0-.032,2.1c1.966.015,3.932.006,5.9.01a5.581,5.581,0,0,1,.829.041,1.322,1.322,0,0,1,1.231,1.372,1.309,1.309,0,0,1-1.361,1.159c-1.688.021-3.378.01-5.066.012-.53,0-1.06-.018-1.588.008a1.074,1.074,0,0,0-1.142,1.066A1.109,1.109,0,0,0,817.6,332.9a4.654,4.654,0,0,0,.754.033Q822.215,332.936,826.071,332.935Z" transform="translate(-814.021 -314)" fill="#fff"/>
            <path id="Path_2945" data-name="Path 2945" d="M900.8,411.572c-2.621,0-5.242,0-7.864,0-1.028,0-1.552-.439-1.543-1.244.009-.784.507-1.2,1.477-1.241.051,0,.1,0,.151,0,.988.025.433-.77.584-1.168.165-.435-.156-.624-.59-.621-.933.007-1.865.015-2.8,0a1.065,1.065,0,0,0-.958.613c-1.095,1.693-2.217,3.369-3.3,5.072a1.673,1.673,0,0,1-1.627.865c-.881-.037-1.765.012-2.646-.016a1.292,1.292,0,0,1-1.389-1.281,1.27,1.27,0,0,1,1.5-1.237c1.7.366,2.659-.348,3.41-1.79.6-1.157,1.457-2.18,2.112-3.313a2.921,2.921,0,0,1,2.634-1.478c1.561-.054,3.125-.033,4.687-.015,1.056.012,1.483.481,1.491,1.56.005.656.033,1.313-.01,1.965-.044.67.226.866.879.862,4.008-.023,8.015-.019,12.023-.008a3.6,3.6,0,0,1,3.756,3.97c-.036.772-.711,1.351-.682,2.036.028.658.628,1.231.676,1.969a3.5,3.5,0,0,1-1.574,3.315.9.9,0,0,0-.43,1.052,3.537,3.537,0,0,1-1.64,3.777.66.66,0,0,0-.323.812,3.6,3.6,0,0,1-3.626,4.455c-3.6.017-7.209-.024-10.813.013a6.93,6.93,0,0,1-3.486-1.308c-1.979-1.108-3.941-2.246-5.9-3.391a2.424,2.424,0,0,0-1.289-.34c-1.916.011-3.831.005-5.747,0a6.1,6.1,0,0,1-.755-.023,1.255,1.255,0,0,1-1.227-1.356,1.219,1.219,0,0,1,1.307-1.192c1.713-.029,3.436.09,5.139-.048a8.033,8.033,0,0,1,5.1,1.449c1.9,1.2,3.873,2.259,5.819,3.374a3,3,0,0,0,1.532.337q4.953,0,9.906,0a2.982,2.982,0,0,0,.676-.05,1.078,1.078,0,0,0-.128-2.14c-.88-.044-1.764-.013-2.646-.026-.951-.014-1.535-.453-1.576-1.168-.045-.788.548-1.374,1.537-1.4,1.435-.039,2.873-.008,4.309-.015.89-.005,1.367-.381,1.368-1.054,0-.641-.526-1.055-1.376-1.06-1.412-.008-2.823,0-4.235,0-.965-.006-1.622-.564-1.6-1.332s.6-1.241,1.592-1.247c2.117-.013,4.234,0,6.352-.012a1.106,1.106,0,0,0,1.227-1.054c0-.6-.5-1.021-1.234-1.054-.226-.01-.454,0-.68,0-1.764,0-3.529,0-5.293,0a4.5,4.5,0,0,1-.827-.06,1.257,1.257,0,0,1,.169-2.507c1.461-.03,2.923-.015,4.385-.018.731,0,1.462.015,2.193,0,.8-.022,1.279-.456,1.275-1.1a1.177,1.177,0,0,0-1.3-1.1c-2.722-.015-5.444-.006-8.167-.006Z" transform="translate(-852.196 -369.885)" fill="#fff"/>
            <path id="Path_2946" data-name="Path 2946" d="M832.96,400.8q0-3.933,0-7.865c0-.991.4-1.5,1.184-1.511.816-.016,1.279.485,1.266,1.506-.008.626.262.784.82.761s1.108.015,1.1-.778c-.012-.93-.016-1.86-.04-2.789-.011-.432-.33-.646-.657-.859-1.65-1.068-3.287-2.156-4.945-3.214a1.874,1.874,0,0,1-1.006-1.868c.065-.827-.008-1.663.023-2.494a1.194,1.194,0,0,1,1.245-1.314c.74,0,1.16.465,1.206,1.341a6.656,6.656,0,0,1,.02,1.73c-.1.482.232.722.587.953,1.543,1,3.062,2.04,4.624,3.01a2.889,2.889,0,0,1,1.393,2.531c.052,1.586.035,3.176.014,4.763-.013.992-.453,1.412-1.451,1.44a19.986,19.986,0,0,1-2.041-.008c-.718-.053-.9.253-.894.924.024,3.907.015,7.814.01,11.722,0,3.315-2.618,4.929-5.561,3.426a.814.814,0,0,0-.842.028,3.515,3.515,0,0,1-4.957-1.136.726.726,0,0,0-.819-.329,3.636,3.636,0,0,1-3.932-1.626.664.664,0,0,0-.824-.323,3.674,3.674,0,0,1-4.461-3.882c.1-3.451.036-6.906.023-10.36a5.377,5.377,0,0,1,.787-2.8c1.284-2.2,2.527-4.419,3.814-6.615a3.182,3.182,0,0,0,.432-1.723c-.023-1.815-.01-3.63-.008-5.445a5.492,5.492,0,0,1,.027-.679c.1-.829.6-1.329,1.288-1.321.763.009,1.231.491,1.24,1.41.023,2.395.008,4.79.008,7.184a2.691,2.691,0,0,1-.5,1.328c-1.387,2.429-2.771,4.86-4.172,7.281a3.212,3.212,0,0,0-.451,1.652q0,4.953,0,9.907a3.379,3.379,0,0,0,.055.677,1.083,1.083,0,0,0,2.157-.117c.045-.905.019-1.814.027-2.722a1.414,1.414,0,0,1,.527-1.2,1.2,1.2,0,0,1,1.916.674,6.514,6.514,0,0,1,.13,1.8c0,1.084-.008,2.168,0,3.252.008.734.384,1.189.966,1.215a1.13,1.13,0,0,0,1.144-1.225c.021-1.26.008-2.521.011-3.781,0-.252-.007-.5.006-.756a1.29,1.29,0,1,1,2.558.02c.018,1.966.009,3.932.011,5.9,0,.227-.011.454,0,.681a1.091,1.091,0,0,0,1.1,1.106,1.047,1.047,0,0,0,1-1.105c.02-1.941.016-3.882.015-5.823a5.052,5.052,0,0,1,.106-1.2,1.2,1.2,0,0,1,1.233-1.019,1.155,1.155,0,0,1,1.183,1.065,8.077,8.077,0,0,1,.058,1.432c.006,1.79-.015,3.579.01,5.369.013.965.673,1.49,1.452,1.219.68-.237.769-.806.77-1.41.005-1.966,0-3.932,0-5.9Q832.96,401.854,832.96,400.8Z" transform="translate(-814.02 -352.203)" fill="#fff"/>
            <path id="Path_2947" data-name="Path 2947" d="M911.591,326.018q0,3.895,0,7.789c0,.1,0,.2,0,.3a1.232,1.232,0,1,1-2.46.048c-.082-.913-.679-1.273-1.562-.96-.3.108-.341.339-.351.6-.036.929.114,1.855.018,2.788-.045.439.256.724.622.96,1.7,1.091,3.366,2.219,5.072,3.293a1.784,1.784,0,0,1,.93,1.751c-.042.855.008,1.714-.02,2.57a1.189,1.189,0,0,1-1.246,1.31c-.793-.006-1.31-.439-1.173-1.314.285-1.833-.518-2.891-2.072-3.683-1.094-.558-2.068-1.348-3.125-1.985a2.918,2.918,0,0,1-1.46-2.575c-.047-1.612-.032-3.226-.015-4.839a1.252,1.252,0,0,1,1.366-1.372c.705-.02,1.414-.037,2.117.009s.91-.244.905-.923c-.025-3.63-.013-7.26-.014-10.89,0-.4.005-.806,0-1.21a3.582,3.582,0,0,1,5.306-3.186.967.967,0,0,0,1.112.109,3.478,3.478,0,0,1,4.779.894,1.242,1.242,0,0,0,1.321.556,3.428,3.428,0,0,1,3.618,1.656.652.652,0,0,0,.746.323c2.816-.359,4.5,1.14,4.49,3.965-.006,3.429-.013,6.857,0,10.285a4.947,4.947,0,0,1-.708,2.584c-1.358,2.329-2.683,4.678-4.036,7.01a2.331,2.331,0,0,0-.284,1.23c0,1.941,0,3.882,0,5.823a2.768,2.768,0,0,1-.132,1.044,1.184,1.184,0,0,1-1.349.848,1.1,1.1,0,0,1-1.061-1.1q-.045-3.818.006-7.637a3.645,3.645,0,0,1,.735-1.641q1.968-3.447,3.949-6.887a3.105,3.105,0,0,0,.411-1.589q0-5.029,0-10.058a2.316,2.316,0,0,0-.024-.452,1.069,1.069,0,0,0-1.128-1,1.028,1.028,0,0,0-1.062,1.061c-.043.83-.011,1.663-.028,2.495a2.9,2.9,0,0,1-.1.818,1.217,1.217,0,0,1-2.36-.146,11.972,11.972,0,0,1-.106-2.337c-.017-.907.012-1.815-.016-2.722-.022-.722-.442-1.153-1.038-1.138a1.1,1.1,0,0,0-1.061,1.146c-.021,1.411-.008,2.823-.011,4.235a3.616,3.616,0,0,1-.026.679,1.258,1.258,0,0,1-2.5.077,3.457,3.457,0,0,1-.051-.826c0-1.992,0-3.983-.007-5.974,0-.752-.4-1.252-.992-1.286a1.129,1.129,0,0,0-1.12,1.248c-.016,1.764,0,3.529,0,5.293a6.325,6.325,0,0,1-.122,1.654,1.173,1.173,0,0,1-1.2.959,1.135,1.135,0,0,1-1.185-.965,3.677,3.677,0,0,1-.068-.825c-.007-2.042.006-4.084-.013-6.125a1.133,1.133,0,0,0-1.057-1.242c-.661-.013-1.093.444-1.161,1.232-.011.125-.01.252-.01.378q0,3.214,0,6.428Q911.589,325.3,911.591,326.018Z" transform="translate(-869.917 -314.02)" fill="#fff"/>
          </g>
        </g>
      </g>
      <line id="Line_822" data-name="Line 822" y2="359" transform="translate(1386 476.5)" fill="none" stroke="#d10d74" stroke-width="1"/>
      <g id="Group_2492" data-name="Group 2492" transform="translate(0 -10)">
        <circle id="Ellipse_305" data-name="Ellipse 305" cx="55" cy="55" r="55" transform="translate(1331 532)" fill="#d10d74"/>
        <g id="Group_2348" data-name="Group 2348" transform="translate(-4204.06 -1276.299)">
          <path id="Path_2546" data-name="Path 2546" d="M5566.682,1884.6a4.4,4.4,0,0,1-.15-4.225,3.662,3.662,0,0,1,.683-.943q4.657-4.619,9.309-9.24c.37-.367.748-.726,1.15-1.056.366-.3.339-.566.112-.953a19.214,19.214,0,0,1,28.286-24.927c.1.078.216.14.325.21l3,3a21.687,21.687,0,0,1,2.617,4.458c2.7,6.818,1.99,13.256-2.366,19.167a19.132,19.132,0,0,1-24.606,5.221c-1.05-.577-1.06-.568-1.9.265q-4.746,4.682-9.491,9.367c-1.829,1.8-3.409,2.056-5.7.92Zm17.054-36.791a15.079,15.079,0,1,0,21.322.018A14.979,14.979,0,0,0,5583.736,1847.81Z" transform="translate(0 0)" fill="#fff"/>
          <path id="Path_2547" data-name="Path 2547" d="M5603.655,1868.831c-2.085,0-4.171-.008-6.255.008-.421,0-.541-.125-.558-.554a5.932,5.932,0,0,1,1.155-3.929,5.363,5.363,0,0,1,2.169-1.7c.318-.141.394-.216.15-.535a4.1,4.1,0,0,1-.453-4.6,4.257,4.257,0,0,1,7.654.148,4.124,4.124,0,0,1-.462,4.39c-.3.411-.3.392.162.628a5.482,5.482,0,0,1,3.23,5.179c0,1.073.169.971-.958.972Q5606.571,1868.835,5603.655,1868.831Z" transform="translate(-8.824 -3.986)" fill="#fff"/>
        </g>
      </g>
      <g id="Group_2494" data-name="Group 2494" transform="translate(0 6)">
        <circle id="Ellipse_306" data-name="Ellipse 306" cx="55" cy="55" r="55" transform="translate(1331 671)" fill="#d10d74"/>
        <g id="Group_2349" data-name="Group 2349" transform="translate(-4554.297 -886.382)">
          <path id="Path_2548" data-name="Path 2548" d="M5960.359,1590.2h1.825l-14.631,17.214-4.064-2.438a1.555,1.555,0,0,0-1.985.322l-5.287,6.167-2.989-2.242a1.558,1.558,0,0,0-2.2.34l-5.2,7.277a1.56,1.56,0,0,0,2.538,1.813l4.27-5.978,2.881,2.161a1.559,1.559,0,0,0,2.12-.233l5.38-6.277,4.067,2.441a1.561,1.561,0,0,0,1.991-.327L5964,1592.884v.955a1.559,1.559,0,1,0,3.118,0v-5.2c0-.02,0-.04-.006-.06a1.5,1.5,0,0,0-.016-.162,1.428,1.428,0,0,0-.026-.145,1.493,1.493,0,0,0-.045-.145c-.018-.047-.033-.095-.054-.141s-.047-.088-.072-.132a1.343,1.343,0,0,0-.081-.129c-.029-.039-.061-.076-.094-.113a1.4,1.4,0,0,0-.112-.117c-.016-.014-.026-.031-.043-.044s-.046-.031-.068-.047a1.414,1.414,0,0,0-.134-.092c-.043-.026-.086-.049-.13-.071s-.094-.043-.142-.06a1.422,1.422,0,0,0-.147-.046,1.268,1.268,0,0,0-.144-.03,1.553,1.553,0,0,0-.162-.017c-.028,0-.054-.008-.083-.008h-5.2a1.559,1.559,0,1,0,0,3.118Z" transform="translate(-3.113)" fill="#fff"/>
          <path id="Path_2549" data-name="Path 2549" d="M5965.563,1625.021H5964v-25.468a1.559,1.559,0,1,0-3.118,0v25.468h-40.54v-29.106h33a1.559,1.559,0,0,0,0-3.119h-34.564a1.559,1.559,0,0,0-1.56,1.559v30.665h-1.559a1.559,1.559,0,0,0-1.56,1.559v3.119a1.56,1.56,0,0,0,1.56,1.559h14.108l-3.03,6.059a1.559,1.559,0,1,0,2.79,1.395l3.727-7.454h14.7l3.727,7.454a1.559,1.559,0,1,0,2.789-1.395l-3.029-6.059h14.109a1.559,1.559,0,0,0,1.559-1.559v-3.119A1.559,1.559,0,0,0,5965.563,1625.021Z" transform="translate(0 -1.556)" fill="#fff"/>
        </g>
      </g>
      <g id="Group_2491" data-name="Group 2491" transform="translate(0 33)">
        <circle id="Ellipse_307" data-name="Ellipse 307" cx="55" cy="55" r="55" transform="translate(1331 800)" fill="#d10d74"/>
        <g id="Group_2350" data-name="Group 2350" transform="translate(-4546.641 -1009.363)">
          <rect id="Rectangle_339" data-name="Rectangle 339" width="30.494" height="1.906" transform="translate(5917.63 1886.946)" fill="#fff"/>
          <path id="Path_2550" data-name="Path 2550" d="M5936.689,1873.894v-7.6c2.84-6.011,6.209-13.865,6.1-17.08a9.964,9.964,0,0,0-9.911-9.911,9.843,9.843,0,0,0-9.911,9.911c0,3.193,3.306,10.96,6.1,16.955v7.729h-14.958v10.859h37.541v-10.859Zm-9.53-25.066a5.718,5.718,0,1,1,5.718,5.718A5.615,5.615,0,0,1,5927.16,1848.828Zm21.253,32.689h-31.071v-4.388h31.071Z" transform="translate(0)" fill="#fff"/>
        </g>
      </g>
    </g>
  </g>
</svg>
