<svg xmlns="http://www.w3.org/2000/svg" width="1062" height="732.88" viewBox="0 0 1062 732.88">
  <g id="Group_2536" data-name="Group 2536" transform="translate(-738 -251.284)">
    <line id="Line_820" data-name="Line 820" x2="567.5" transform="translate(922.5 936.293)" fill="none" stroke="#d10d74" stroke-linecap="round" stroke-miterlimit="10" stroke-width="1"/>
    <line id="Line_821" data-name="Line 821" y2="534.794" transform="translate(1490.944 398.5)" fill="none" stroke="#d10d74" stroke-linecap="round" stroke-miterlimit="10" stroke-width="1"/>
    <path id="Path_2950" data-name="Path 2950" d="M866.753,1663.342l13.349,13.349-13.349,13.348" transform="translate(328.682 -740.404)" fill="#d10d74"/>
    <path id="Path_2950-2" data-name="Path 2950" d="M866.753,1663.342l13.349,13.349-13.349,13.348" transform="translate(-185.747 1718.799) rotate(-90)" fill="#d10d74"/>
    <g id="_7_6_5_4_3_2" data-name=" 7 6 5 4 3 2" transform="translate(1449.762 372.579)" style="isolation: isolate">
      <text id="_7" data-name="7" transform="translate(0 26.421)" fill="#4d4f53" font-size="26" font-family="HelveticaNeue-Bold, Helvetica Neue" font-weight="700" letter-spacing="0.065em" style="isolation: isolate"><tspan x="0" y="0">7</tspan></text>
      <text id="_6" data-name="6" transform="translate(0 113.421)" fill="#4d4f53" font-size="26" font-family="HelveticaNeue-Bold, Helvetica Neue" font-weight="700" letter-spacing="0.065em" style="isolation: isolate"><tspan x="0" y="0">6</tspan></text>
      <text id="_5" data-name="5" transform="translate(0 200.421)" fill="#4d4f53" font-size="26" font-family="HelveticaNeue-Bold, Helvetica Neue" font-weight="700" letter-spacing="0.065em" style="isolation: isolate"><tspan x="0" y="0">5</tspan></text>
      <text id="_4" data-name="4" transform="translate(0 287.421)" fill="#4d4f53" font-size="26" font-family="HelveticaNeue-Bold, Helvetica Neue" font-weight="700" letter-spacing="0.065em" style="isolation: isolate"><tspan x="0" y="0">4</tspan></text>
      <text id="_3" data-name="3" transform="translate(0 374.421)" fill="#4d4f53" font-size="26" font-family="HelveticaNeue-Bold, Helvetica Neue" font-weight="700" letter-spacing="0.065em" style="isolation: isolate"><tspan x="0" y="0">3</tspan></text>
      <text id="_2" data-name="2" transform="translate(0 461.421)" fill="#4d4f53" font-size="26" font-family="HelveticaNeue-Bold, Helvetica Neue" font-weight="700" letter-spacing="0.065em" style="isolation: isolate"><tspan x="0" y="0">2</tspan></text>
    </g>
    <g id="Closeout_Training_Deployment_Monitoring_Controlling_Execution_Planning_Initiation" data-name="Closeout Training Deployment Monitoring Controlling Execution Planning Initiation" transform="translate(1518 372.146)" style="isolation: isolate">
      <text id="Closeout" transform="translate(0 23.854)" fill="#4d4f53" font-size="26" font-family="HelveticaNeue, Helvetica Neue" style="isolation: isolate"><tspan x="0" y="0">Closeout</tspan></text>
      <text id="Training_Deployment" data-name="Training &amp; Deployment" transform="translate(0 111.854)" fill="#4d4f53" font-size="26" font-family="HelveticaNeue, Helvetica Neue" style="isolation: isolate"><tspan x="0" y="0">Training &amp; Deployment</tspan></text>
      <text id="Monitoring_Controlling" data-name="Monitoring &amp; Controlling" transform="translate(0 199.854)" fill="#4d4f53" font-size="26" font-family="HelveticaNeue, Helvetica Neue" style="isolation: isolate"><tspan x="0" y="0">Monitoring &amp; Controlling</tspan></text>
      <text id="Execution" transform="translate(0 287.854)" fill="#4d4f53" font-size="26" font-family="HelveticaNeue, Helvetica Neue" style="isolation: isolate"><tspan x="0" y="0">Execution</tspan></text>
      <text id="Planning" transform="translate(0 375.854)" fill="#4d4f53" font-size="26" font-family="HelveticaNeue, Helvetica Neue" style="isolation: isolate"><tspan x="0" y="0">Planning</tspan></text>
      <text id="Initiation" transform="translate(0 463.854)" fill="#4d4f53" font-size="26" font-family="HelveticaNeue, Helvetica Neue" style="isolation: isolate"><tspan x="0" y="0">Initiation</tspan></text>
    </g>
    <g id="Group_2481" data-name="Group 2481" transform="translate(1477.955 638)">
      <circle id="Ellipse_211-2" data-name="Ellipse 211-2" cx="13.349" cy="13.349" r="13.349" transform="translate(0)" fill="#d10d74"/>
      <circle id="Ellipse_212-2" data-name="Ellipse 212-2" cx="4.005" cy="4.005" r="4.005" transform="translate(9.344 9.344)" fill="#fff"/>
    </g>
    <g id="Group_2482" data-name="Group 2482" transform="translate(1477.955 376)">
      <circle id="Ellipse_211-3" data-name="Ellipse 211-3" cx="13.349" cy="13.349" r="13.349" transform="translate(0)" fill="#d10d74"/>
      <circle id="Ellipse_212-3" data-name="Ellipse 212-3" cx="4.005" cy="4.005" r="4.005" transform="translate(9.344 9.344)" fill="#fff"/>
    </g>
    <g id="Group_2483" data-name="Group 2483" transform="translate(1477.955 464)">
      <circle id="Ellipse_211-4" data-name="Ellipse 211-4" cx="13.349" cy="13.349" r="13.349" transform="translate(0)" fill="#d10d74"/>
      <circle id="Ellipse_212-4" data-name="Ellipse 212-4" cx="4.005" cy="4.005" r="4.005" transform="translate(9.344 9.344)" fill="#fff"/>
    </g>
    <g id="Group_2484" data-name="Group 2484" transform="translate(1477.955 551)">
      <circle id="Ellipse_211-5" data-name="Ellipse 211-5" cx="13.349" cy="13.349" r="13.349" transform="translate(0)" fill="#d10d74"/>
      <circle id="Ellipse_212-5" data-name="Ellipse 212-5" cx="4.005" cy="4.005" r="4.005" transform="translate(9.344 9.344)" fill="#fff"/>
    </g>
    <g id="Group_2485" data-name="Group 2485" transform="translate(1477.955 725)">
      <circle id="Ellipse_211-6" data-name="Ellipse 211-6" cx="13.349" cy="13.349" r="13.349" transform="translate(0)" fill="#d10d74"/>
      <circle id="Ellipse_212-6" data-name="Ellipse 212-6" cx="4.005" cy="4.005" r="4.005" transform="translate(9.344 9.344)" fill="#fff"/>
    </g>
    <g id="Group_2486" data-name="Group 2486" transform="translate(1477.955 812)">
      <circle id="Ellipse_211-7" data-name="Ellipse 211-7" cx="13.349" cy="13.349" r="13.349" transform="translate(0)" fill="#d10d74"/>
      <circle id="Ellipse_212-7" data-name="Ellipse 212-7" cx="4.005" cy="4.005" r="4.005" transform="translate(9.344 9.344)" fill="#fff"/>
    </g>
    <g id="Approved_Projects" data-name="Approved Projects" transform="translate(1107.75 960.196)" style="isolation: isolate">
      <text id="Approved_Projects-2" data-name="Approved Projects" transform="translate(0 15)" fill="#d10d74" font-size="20" font-family="HelveticaNeue-Bold, Helvetica Neue" font-weight="700" style="isolation: isolate"><tspan x="0" y="0">Approved Projects</tspan></text>
    </g>
    <g id="Group_2301" data-name="Group 2301" transform="translate(1442.179 887.699)">
      <circle id="Ellipse_210" data-name="Ellipse 210" cx="48.233" cy="48.233" r="48.233" fill="#d10d74"/>
      <g id="Group_2300" data-name="Group 2300" transform="translate(16.599 16.201)">
        <g id="Group_2299-2" data-name="Group 2299-2">
          <g id="Group_2288-2" data-name="Group 2288-2" transform="translate(18.396 62.537)">
            <path id="Path_2498-2" data-name="Path 2498-2" d="M459.37,1108.188c-.268-.293-.545-.582-.341-1.024a.979.979,0,0,1,1.032-.507h25.16c.452,0,.887.045,1.09.525.183.431-.05.741-.368,1Z" transform="translate(-458.958 -1106.656)" fill="#fff"/>
          </g>
          <g id="Group_2289-2" data-name="Group 2289-2" transform="translate(19.465 10.051)">
            <path id="Path_2499-2" data-name="Path 2499-2" d="M460.162,1083.241v-9.516a4.672,4.672,0,0,1,3.363-4.839c1.306-.478,2.606-.976,3.918-1.443a.879.879,0,0,0,.7-.814,1.047,1.047,0,0,1,.059-.267,2.67,2.67,0,0,0-.446-2.647,9.651,9.651,0,0,1-1.591-5.1,15.579,15.579,0,0,1,.032-4.567c.046-.224-.087-.39-.162-.578a5.353,5.353,0,0,1-.219-4c.158-.421.343-.614.862-.438a9.716,9.716,0,0,0,5.4-.134,16.927,16.927,0,0,1,3.512-.5,4.821,4.821,0,0,1,4.712,4.926,4.952,4.952,0,0,1-.041.529,35.484,35.484,0,0,0-.177,4.231,11.508,11.508,0,0,1-2,6.221,1.068,1.068,0,0,0-.15.77,2.681,2.681,0,0,0,2.363,2.88,20.1,20.1,0,0,1,2.7.972,4.492,4.492,0,0,1,3.211,4.38c.034,6.663.025,13.327.023,19.99a1.136,1.136,0,0,1-2.262.208,1.186,1.186,0,0,1,0-.219c-.016-2.143,0-4.286-.012-6.43-.013-2.459-.086-4.921-.039-7.378.037-1.94-.093-3.871-.056-5.812a2.293,2.293,0,0,0-1.85-2.653c-1.48-.533-2.944-1.117-4.437-1.614a1.878,1.878,0,0,1-1.482-1.735,2.1,2.1,0,0,0-.052-.268c-.178-.963-.17-.945-1.1-.586a4.807,4.807,0,0,1-3.8-.077c-.458-.2-.707-.142-.726.368a2.524,2.524,0,0,1-2.211,2.526c-1.358.368-2.658.957-3.982,1.456a2.205,2.205,0,0,0-1.7,2.418c-.024,2.488-.016,4.975-.018,7.463V1092.6a4.7,4.7,0,0,1-.1,1.017,1.127,1.127,0,0,1-2.222-.118,7.8,7.8,0,0,1-.034-1.161v-9.105ZM473.11,1055.7h0c-1.347,0-2.694.012-4.04,0-.5-.006-.693.175-.687.682a20.707,20.707,0,0,0,.206,3.07,7.015,7.015,0,0,0,2.387,4.489,2.977,2.977,0,0,0,4.209.07c.034-.033.067-.067.1-.1a6.362,6.362,0,0,0,1.943-2.925,15.75,15.75,0,0,0,.609-4.525c.012-.569-.2-.773-.754-.764-1.32.02-2.645,0-3.967,0Z" transform="translate(-460.145 -1048.395)" fill="#fff"/>
          </g>
          <g id="Group_2292" data-name="Group 2292" transform="translate(12.496)">
            <path id="Path_2502" data-name="Path 2502" d="M459.511,1054.808a8.019,8.019,0,0,1-1.122-1.43c-.967-1.357-1.938-2.709-2.871-4.086a1.43,1.43,0,0,0-1.357-.7c-1.749.035-1.751.01-1.752-1.713v-8.759c0-.864.058-.868.957-.851,1.571.028,3.142-.016,4.713-.006,1.068,0,2.136-.01,3.2,0,2.64.014,5.28.031,7.92-.009.954-.014,1.91.079,2.868-.01.44-.041.656.177.654.652-.013,2.487,0,4.973,0,7.459,0,.287-.021.573-.382.624a29.352,29.352,0,0,1-5.663.867,6.377,6.377,0,0,1-1.88-.292c-.414-.154-.668-.031-.771.382a4.4,4.4,0,0,0-.2,1c-.013.546-.268.7-.775.686-.934-.027-1.868.012-2.8-.016-.5-.014-.682.167-.676.667.021,1.687,0,3.376,0,5.063A3.975,3.975,0,0,1,459.511,1054.808Zm1.327-11.407h-4.176c-.432,0-.8-.026-.814.611-.008.607.267.718.787.713q4.177-.022,8.353,0c.472,0,.723-.116.715-.65-.008-.495-.182-.688-.689-.679-1.386.022-2.777.007-4.167.005Zm-1.022-3.287c-1.092,0-2.184.016-3.275-.008-.492-.011-.693.15-.691.667s.2.668.691.668q3.2-.025,6.408,0c.48,0,.709-.144.7-.668s-.215-.678-.7-.667c-1.034.022-2.081.008-3.128.008Zm7.049,0h-.29c-.439-.008-.849-.072-.856.623s.366.724.865.694a4.576,4.576,0,0,1,.546,0c.432.025.587-.166.623-.6.073-.812-.454-.733-.883-.712Z" transform="translate(-452.409 -1037.238)" fill="#fff"/>
          </g>
          <g id="Group_2293-2" data-name="Group 2293-2" transform="translate(10.29 58.594)">
            <path id="Path_2503-2" data-name="Path 2503-2" d="M471.766,1103.929h-20.26a4.911,4.911,0,0,1-.884-.057.725.725,0,0,1-.659-.751.7.7,0,0,1,.646-.754h0a6.775,6.775,0,0,1,1.087-.087h40.589c.868,0,1.335.291,1.351.834s-.422.813-1.335.814Z" transform="translate(-449.961 -1102.279)" fill="#fff"/>
          </g>
          <g id="Group_2294-2" data-name="Group 2294-2" transform="translate(29.231 32.178)">
            <path id="Path_2504-2" data-name="Path 2504-2" d="M477.31,1084.027a2.03,2.03,0,0,1-.893,2.056c-.469.4-.869.875-1.322,1.291a1.2,1.2,0,0,1-1.693.146,1.219,1.219,0,0,1-.177-.184c-.607-.587-1.2-1.189-1.8-1.785a1.467,1.467,0,0,1-.432-1.239c.182-2.477.336-4.957.5-7.437.056-.863.091-1.735.163-2.592s.585-1.377,1.269-1.324a1.262,1.262,0,0,1,1.081,1.419c0,.027-.008.054-.013.08q-.3,4.571-.634,9.14a.936.936,0,0,0,.288.934c.2.153.352.533.668.343.334-.205.725-.441.693-.934-.188-2.82-.385-5.638-.571-8.459a12.113,12.113,0,0,1-.044-1.435,1.178,1.178,0,0,1,1.058-1.081,1.129,1.129,0,0,1,1.168.946c.119.833.183,1.677.238,2.518C477.007,1078.9,477.152,1081.381,477.31,1084.027Z" transform="translate(-470.986 -1072.956)" fill="#fff"/>
          </g>
          <g id="Group_2296-2" data-name="Group 2296-2" transform="translate(38.215 38.399)">
            <path id="Path_2506-2" data-name="Path 2506-2" d="M480.972,1088.7v-7.386a1.316,1.316,0,0,1,.533-1.253c.81-.515,1.671.018,1.736,1.048.133,2.277.073,4.557.087,6.836.017,2.621,0,5.242.008,7.864a3.361,3.361,0,0,1-.113,1.016,1.078,1.078,0,0,1-1.118.826,1.041,1.041,0,0,1-1.068-.886,5.061,5.061,0,0,1-.064-1.088Q480.966,1092.188,480.972,1088.7Z" transform="translate(-480.958 -1079.862)" fill="#fff"/>
          </g>
          <g id="Group_2526" data-name="Group 2526">
            <g id="Group_2529" data-name="Group 2529" transform="translate(1 -5.071)">
              <g id="Group_2290-2" data-name="Group 2290-2" transform="translate(48.938 15.848)">
                <path id="Path_2500-2" data-name="Path 2500-2" d="M495.443,1095.219v-4.078a1.2,1.2,0,0,0-.361-.959,6.254,6.254,0,0,1-1.041-8.435,16.623,16.623,0,0,1,2.2-2.767,21.711,21.711,0,0,0,2.251-3.658c.313-.495-.13-1.034-.18-1.558-.071-.719-.611-.686-1.135-.75a4.307,4.307,0,0,1-3.869-4.281c-.08-1.972-.087-3.949-.18-5.92-.312-6.532,5.551-8.718,9.689-7.771a6.9,6.9,0,0,1,5.838,5.588,18.106,18.106,0,0,1,.22,3.3c.031,3.282-.063,6.562-.263,9.84a1.966,1.966,0,0,0,.359,1.373,3.928,3.928,0,0,1,.722,2.462q-.1,8.388-.18,16.772a1.412,1.412,0,0,1-.887,1.545c-.933.333-1.732-.3-1.74-1.436-.012-1.46.078-2.921.093-4.381.03-2.873.03-5.746.061-8.62.01-1.153.087-2.3.1-3.451a2.381,2.381,0,0,0-1.938-2.592,4.332,4.332,0,0,0-4.951,2.018,17.027,17.027,0,0,1-3.252,4.635,5.629,5.629,0,0,0-1.454,2.85,3.449,3.449,0,0,0,1.33,3.347,3.1,3.1,0,0,1,1.135,2.753c-.073,2.717-.026,5.438-.015,8.157a1.486,1.486,0,0,1-.61,1.408,1.255,1.255,0,0,1-1.934-1.137c-.034-1.411-.007-2.823-.007-4.233Zm2.957-24.707c1.432,0,1.762.208,2.089,1.212.163.506.061,1.239.5,1.471s.978-.318,1.51-.351c.76-.048.9-.436.795-1.121-.372-2.376-.7-4.761-1.05-7.139a2.189,2.189,0,0,0-2.2-2.182,2.216,2.216,0,0,0-.354.031c-1.127.022-2.25.1-3.377.113-.526.009-.657.258-.62.726.056.688.088,1.379.118,2.07a29.7,29.7,0,0,0,.15,3.6,1.64,1.64,0,0,0,1.16,1.389,3.6,3.6,0,0,0,1.27.18Z" transform="translate(-492.861 -1054.829)" fill="#fff"/>
              </g>
              <g id="Group_2297-2" data-name="Group 2297-2" transform="translate(57.365 41.204)">
                <path id="Path_2507-2" data-name="Path 2507-2" d="M501.189,1090.155v-8.692c0-.929.367-1.45,1.05-1.561a1.214,1.214,0,0,1,1.454.916,1.182,1.182,0,0,1,.03.252c.041,2.123.031,4.246.041,6.369q.012,2.65.019,5.3c0,2.147.016,4.3-.01,6.451a1.272,1.272,0,0,1-1.247,1.3c-.03,0-.062,0-.091,0a1.308,1.308,0,0,1-1.238-1.375l0-.028c-.022-2.25-.011-4.511-.012-6.768v-2.153Z" transform="translate(-501.184 -1079.872)" fill="#fff"/>
              </g>
            </g>
          </g>
          <g id="Group_2527" data-name="Group 2527" transform="translate(-3.258 10.99)">
            <g id="Group_2290-2-2" data-name="Group 2290-2" transform="translate(0 0)">
              <path id="Path_2500-2-2" data-name="Path 2500-2" d="M507.043,1095.032v-4.06a1.2,1.2,0,0,1,.36-.954,6.225,6.225,0,0,0,1.036-8.4,16.547,16.547,0,0,0-2.185-2.754,21.614,21.614,0,0,1-2.24-3.641c-.311-.493.129-1.029.179-1.551.071-.715.608-.683,1.13-.747a4.288,4.288,0,0,0,3.851-4.261c.08-1.963.087-3.93.179-5.893.31-6.5-5.525-8.677-9.644-7.735a6.869,6.869,0,0,0-5.811,5.562,18.025,18.025,0,0,0-.219,3.286c-.031,3.267.063,6.532.262,9.794a1.957,1.957,0,0,1-.358,1.366,3.91,3.91,0,0,0-.719,2.45q.1,8.349.179,16.695a1.405,1.405,0,0,0,.883,1.538c.929.332,1.724-.3,1.732-1.429.012-1.453-.078-2.907-.093-4.361-.03-2.86-.03-5.72-.06-8.58-.01-1.148-.087-2.293-.095-3.435a2.37,2.37,0,0,1,1.929-2.58,4.312,4.312,0,0,1,4.928,2.008,16.95,16.95,0,0,0,3.237,4.613,5.6,5.6,0,0,1,1.447,2.837,3.433,3.433,0,0,1-1.324,3.332,3.082,3.082,0,0,0-1.13,2.741c.073,2.7.026,5.413.015,8.119a1.479,1.479,0,0,0,.607,1.4,1.249,1.249,0,0,0,1.925-1.132c.034-1.4.007-2.81.007-4.213Zm-2.943-24.592c-1.425,0-1.754.208-2.079,1.206-.162.5-.06,1.234-.5,1.464s-.974-.316-1.5-.35c-.757-.047-.9-.434-.791-1.115.37-2.365.692-4.739,1.045-7.105a2.179,2.179,0,0,1,2.186-2.172,2.225,2.225,0,0,1,.353.03c1.122.022,2.239.1,3.361.113.524.009.654.257.617.723-.055.685-.088,1.373-.118,2.06a29.57,29.57,0,0,1-.149,3.584,1.632,1.632,0,0,1-1.155,1.383,3.586,3.586,0,0,1-1.264.179Z" transform="translate(-492.861 -1054.829)" fill="#fff"/>
            </g>
            <g id="Group_2297-2-2" data-name="Group 2297-2" transform="translate(5.772 25.239)">
              <path id="Path_2507-2-2" data-name="Path 2507-2" d="M503.771,1090.108v-8.651c0-.924-.366-1.443-1.045-1.554a1.209,1.209,0,0,0-1.447.912,1.179,1.179,0,0,0-.03.251c-.04,2.113-.031,4.227-.04,6.339q-.012,2.638-.019,5.274c0,2.137-.016,4.278.01,6.421a1.266,1.266,0,0,0,1.242,1.29c.03,0,.061,0,.091,0a1.3,1.3,0,0,0,1.233-1.369l0-.028c.022-2.239.011-4.49.012-6.736v-2.143Z" transform="translate(-501.184 -1079.872)" fill="#fff"/>
            </g>
          </g>
          <g id="Group_2298-2" data-name="Group 2298-2" transform="translate(24.52 38.42)">
            <path id="Path_2508-2" data-name="Path 2508-2" d="M465.761,1088.757V1081.5a5.044,5.044,0,0,1,.014-.547,1.1,1.1,0,0,1,1.129-1.071l.055,0a1.059,1.059,0,0,1,1.058,1.062.513.513,0,0,1,0,.053c.024,1.391.013,2.782.013,4.175v10.879a4.022,4.022,0,0,1-.023.615,1.113,1.113,0,0,1-1.141.971,1.089,1.089,0,0,1-1.086-1.02c-.034-.385-.017-.775-.017-1.162v-6.706Z" transform="translate(-465.756 -1079.885)" fill="#fff"/>
          </g>
        </g>
      </g>
    </g>
    <g id="Group_2532" data-name="Group 2532" transform="translate(217.5 0.362)">
      <line id="Line_819" data-name="Line 819" y2="545.003" transform="translate(705 390.928)" fill="none" stroke="#d10d74" stroke-linecap="round" stroke-miterlimit="10" stroke-width="1"/>
      <path id="Path_2948" data-name="Path 2948" d="M485.535,1259.129l-13.349,13.348-13.348-13.348" transform="translate(232.813 -750.197)" fill="#d10d74"/>
      <path id="Path_2949" data-name="Path 2949" d="M485.971,1488.8l-13.349,13.349L459.274,1488.8" transform="translate(232.377 -723.102)" fill="#d10d74"/>
      <g id="Group_2480" data-name="Group 2480" transform="translate(691.651 522.28)">
        <circle id="Ellipse_211" data-name="Ellipse 211" cx="13.349" cy="13.349" r="13.349" fill="#d10d74"/>
        <circle id="Ellipse_212" data-name="Ellipse 212" cx="4.005" cy="4.005" r="4.005" transform="translate(9.344 9.344)" fill="#fff"/>
      </g>
      <g id="_1" data-name=" 1" transform="translate(663.601 520.141)" style="isolation: isolate">
        <text id="_1-2" data-name="1" transform="translate(0 23)" fill="#4d4f53" font-size="26" font-family="HelveticaNeue-Bold, Helvetica Neue" font-weight="700" letter-spacing="0.065em" style="isolation: isolate"><tspan x="0" y="0">1</tspan></text>
      </g>
      <g id="Project_Assessment_Business_case_Feasibility_Risk_" data-name="Project Assessment Business case Feasibility Risk " transform="translate(731.839 520.141)" style="isolation: isolate">
        <text id="Project_Rationale" data-name="Project Rationale" transform="translate(0 25)" fill="#4d4f53" font-size="26" font-family="HelveticaNeue, Helvetica Neue" style="isolation: isolate"><tspan x="0" y="0">Project Rationale</tspan></text>
        <text id="Business_case_and_feasibility" data-name="Business case and feasibility" transform="translate(0 56.947)" fill="#4d4f53" font-size="20" font-family="HelveticaNeue, Helvetica Neue" style="isolation: isolate"><tspan x="0" y="0">Business case and feasibility</tspan></text>
      </g>
      <g id="Rectangle_415" data-name="Rectangle 415" transform="translate(557.695 779.044)">
        <g id="Path_2957" data-name="Path 2957" transform="translate(-310.483 -1503.661)" fill="#fff">
          <path d="M 559.237548828125 1596.601440429688 L 356.3382568359375 1596.601440429688 C 350.0983581542969 1596.601440429688 344.0453491210938 1595.37939453125 338.347412109375 1592.969360351562 C 332.8435974121094 1590.641479492188 327.9005432128906 1587.308715820312 323.6556396484375 1583.063842773438 C 319.4106750488281 1578.81884765625 316.0779418945312 1573.875854492188 313.7500305175781 1568.371948242188 C 311.3400268554688 1562.674072265625 310.1180114746094 1556.62109375 310.1180114746094 1550.381225585938 C 310.1180114746094 1544.141235351562 311.3400268554688 1538.088256835938 313.7500305175781 1532.390380859375 C 316.0779418945312 1526.886474609375 319.4106750488281 1521.943481445312 323.6556396484375 1517.698486328125 C 327.9005432128906 1513.453491210938 332.8435974121094 1510.120849609375 338.347412109375 1507.792846679688 C 344.0453491210938 1505.3828125 350.0983276367188 1504.160888671875 356.3382568359375 1504.160888671875 L 559.237548828125 1504.160888671875 C 565.4774780273438 1504.160888671875 571.5304565429688 1505.3828125 577.2284545898438 1507.792846679688 C 582.7322387695312 1510.120849609375 587.67529296875 1513.453491210938 591.9202270507812 1517.698486328125 C 596.1651611328125 1521.943481445312 599.4978637695312 1526.886474609375 601.8258056640625 1532.390380859375 C 604.2357788085938 1538.088256835938 605.457763671875 1544.141235351562 605.457763671875 1550.381225585938 C 605.457763671875 1556.62109375 604.2357788085938 1562.674072265625 601.8258056640625 1568.371948242188 C 599.4978637695312 1573.875854492188 596.1651611328125 1578.81884765625 591.9202270507812 1583.063842773438 C 587.6752319335938 1587.308715820312 582.7322387695312 1590.641479492188 577.2284545898438 1592.969360351562 C 571.5304565429688 1595.37939453125 565.4774780273438 1596.601440429688 559.237548828125 1596.601440429688 Z" stroke="none"/>
          <path d="M 356.3382568359375 1504.660888671875 C 350.1656494140625 1504.660888671875 344.1781616210938 1505.869506835938 338.5421752929688 1508.25341796875 C 333.0979614257812 1510.55615234375 328.2083740234375 1513.852783203125 324.0091552734375 1518.052001953125 C 319.8099975585938 1522.251220703125 316.5132446289062 1527.140869140625 314.2105102539062 1532.585083007812 C 311.8267211914062 1538.221069335938 310.6180419921875 1544.208618164062 310.6180419921875 1550.381225585938 C 310.6180419921875 1556.553833007812 311.8267211914062 1562.541259765625 314.2105102539062 1568.17724609375 C 316.5132446289062 1573.621459960938 319.8099975585938 1578.511108398438 324.0091552734375 1582.710205078125 C 328.2083740234375 1586.909423828125 333.0979614257812 1590.206176757812 338.5421752929688 1592.508911132812 C 344.1781616210938 1594.892700195312 350.1656494140625 1596.101440429688 356.3382568359375 1596.101440429688 L 559.237548828125 1596.101440429688 C 565.4102172851562 1596.101440429688 571.397705078125 1594.892700195312 577.0336303710938 1592.508911132812 C 582.4779052734375 1590.206176757812 587.367431640625 1586.909423828125 591.566650390625 1582.710205078125 C 595.765869140625 1578.511108398438 599.0625610351562 1573.621459960938 601.365234375 1568.17724609375 C 603.7490234375 1562.541259765625 604.957763671875 1556.553833007812 604.957763671875 1550.381225585938 C 604.957763671875 1544.208618164062 603.7490234375 1538.221069335938 601.365234375 1532.585083007812 C 599.0625610351562 1527.140869140625 595.765869140625 1522.251220703125 591.566650390625 1518.052001953125 C 587.367431640625 1513.852783203125 582.4779052734375 1510.55615234375 577.0336303710938 1508.25341796875 C 571.397705078125 1505.869506835938 565.4102172851562 1504.660888671875 559.237548828125 1504.660888671875 L 356.3382568359375 1504.660888671875 M 356.3382568359375 1503.660888671875 L 559.237548828125 1503.660888671875 C 585.0404663085938 1503.660888671875 605.957763671875 1524.578247070312 605.957763671875 1550.381225585938 C 605.957763671875 1576.183959960938 585.0404663085938 1597.101440429688 559.237548828125 1597.101440429688 L 356.3382568359375 1597.101440429688 C 330.535400390625 1597.101440429688 309.6180419921875 1576.183959960938 309.6180419921875 1550.381225585938 C 309.6180419921875 1524.578247070312 330.535400390625 1503.660888671875 356.3382568359375 1503.660888671875 Z" stroke="none" fill="#d10d74"/>
        </g>
      </g>
      <g id="Submit_for_approval_ODC_PMU_" data-name="Submit for approval ODC PMU " transform="translate(587.839 790.93)" style="isolation: isolate">
        <text id="Assessment_Approval" data-name="Assessment &amp; Approval" transform="translate(-9.34 28)" fill="#4d4f53" font-size="24" font-family="HelveticaNeue, Helvetica Neue" style="isolation: isolate"><tspan x="0" y="0">Assessment &amp; Approval</tspan></text>
        <text id="_PMU_Steering_Committee_" data-name="(PMU/Steering Committee)" transform="translate(-1.839 59.376)" fill="#d10d74" font-size="20" font-family="HelveticaNeue, Helvetica Neue" style="isolation: isolate"><tspan x="0" y="0">(PMU/Steering Committee)</tspan></text>
      </g>
      <g id="Group_2301-2" data-name="Group 2301" transform="translate(656.767 342.696)">
        <circle id="Ellipse_210-2" data-name="Ellipse 210" cx="48.233" cy="48.233" r="48.233" fill="#d10d74"/>
        <g id="Group_2300-2" data-name="Group 2300" transform="translate(16.599 16.201)">
          <g id="Group_2299-2-2" data-name="Group 2299-2">
            <g id="Group_2288-2-2" data-name="Group 2288-2" transform="translate(18.396 62.537)">
              <path id="Path_2498-2-2" data-name="Path 2498-2" d="M459.37,1108.188c-.268-.293-.545-.582-.341-1.024a.979.979,0,0,1,1.032-.507h25.16c.452,0,.887.045,1.09.525.183.431-.05.741-.368,1Z" transform="translate(-458.958 -1106.656)" fill="#fff"/>
            </g>
            <g id="Group_2289-2-2" data-name="Group 2289-2" transform="translate(19.465 10.051)">
              <path id="Path_2499-2-2" data-name="Path 2499-2" d="M460.162,1083.241v-9.516a4.672,4.672,0,0,1,3.363-4.839c1.306-.478,2.606-.976,3.918-1.443a.879.879,0,0,0,.7-.814,1.047,1.047,0,0,1,.059-.267,2.67,2.67,0,0,0-.446-2.647,9.651,9.651,0,0,1-1.591-5.1,15.579,15.579,0,0,1,.032-4.567c.046-.224-.087-.39-.162-.578a5.353,5.353,0,0,1-.219-4c.158-.421.343-.614.862-.438a9.716,9.716,0,0,0,5.4-.134,16.927,16.927,0,0,1,3.512-.5,4.821,4.821,0,0,1,4.712,4.926,4.952,4.952,0,0,1-.041.529,35.484,35.484,0,0,0-.177,4.231,11.508,11.508,0,0,1-2,6.221,1.068,1.068,0,0,0-.15.77,2.681,2.681,0,0,0,2.363,2.88,20.1,20.1,0,0,1,2.7.972,4.492,4.492,0,0,1,3.211,4.38c.034,6.663.025,13.327.023,19.99a1.136,1.136,0,0,1-2.262.208,1.186,1.186,0,0,1,0-.219c-.016-2.143,0-4.286-.012-6.43-.013-2.459-.086-4.921-.039-7.378.037-1.94-.093-3.871-.056-5.812a2.293,2.293,0,0,0-1.85-2.653c-1.48-.533-2.944-1.117-4.437-1.614a1.878,1.878,0,0,1-1.482-1.735,2.1,2.1,0,0,0-.052-.268c-.178-.963-.17-.945-1.1-.586a4.807,4.807,0,0,1-3.8-.077c-.458-.2-.707-.142-.726.368a2.524,2.524,0,0,1-2.211,2.526c-1.358.368-2.658.957-3.982,1.456a2.205,2.205,0,0,0-1.7,2.418c-.024,2.488-.016,4.975-.018,7.463V1092.6a4.7,4.7,0,0,1-.1,1.017,1.127,1.127,0,0,1-2.222-.118,7.8,7.8,0,0,1-.034-1.161v-9.105ZM473.11,1055.7h0c-1.347,0-2.694.012-4.04,0-.5-.006-.693.175-.687.682a20.707,20.707,0,0,0,.206,3.07,7.015,7.015,0,0,0,2.387,4.489,2.977,2.977,0,0,0,4.209.07c.034-.033.067-.067.1-.1a6.362,6.362,0,0,0,1.943-2.925,15.75,15.75,0,0,0,.609-4.525c.012-.569-.2-.773-.754-.764-1.32.02-2.645,0-3.967,0Z" transform="translate(-460.145 -1048.395)" fill="#fff"/>
            </g>
            <g id="Group_2292-2" data-name="Group 2292" transform="translate(12.496)">
              <path id="Path_2502-2" data-name="Path 2502" d="M459.511,1054.808a8.019,8.019,0,0,1-1.122-1.43c-.967-1.357-1.938-2.709-2.871-4.086a1.43,1.43,0,0,0-1.357-.7c-1.749.035-1.751.01-1.752-1.713v-8.759c0-.864.058-.868.957-.851,1.571.028,3.142-.016,4.713-.006,1.068,0,2.136-.01,3.2,0,2.64.014,5.28.031,7.92-.009.954-.014,1.91.079,2.868-.01.44-.041.656.177.654.652-.013,2.487,0,4.973,0,7.459,0,.287-.021.573-.382.624a29.352,29.352,0,0,1-5.663.867,6.377,6.377,0,0,1-1.88-.292c-.414-.154-.668-.031-.771.382a4.4,4.4,0,0,0-.2,1c-.013.546-.268.7-.775.686-.934-.027-1.868.012-2.8-.016-.5-.014-.682.167-.676.667.021,1.687,0,3.376,0,5.063A3.975,3.975,0,0,1,459.511,1054.808Zm1.327-11.407h-4.176c-.432,0-.8-.026-.814.611-.008.607.267.718.787.713q4.177-.022,8.353,0c.472,0,.723-.116.715-.65-.008-.495-.182-.688-.689-.679-1.386.022-2.777.007-4.167.005Zm-1.022-3.287c-1.092,0-2.184.016-3.275-.008-.492-.011-.693.15-.691.667s.2.668.691.668q3.2-.025,6.408,0c.48,0,.709-.144.7-.668s-.215-.678-.7-.667c-1.034.022-2.081.008-3.128.008Zm7.049,0h-.29c-.439-.008-.849-.072-.856.623s.366.724.865.694a4.576,4.576,0,0,1,.546,0c.432.025.587-.166.623-.6.073-.812-.454-.733-.883-.712Z" transform="translate(-452.409 -1037.238)" fill="#fff"/>
            </g>
            <g id="Group_2293-2-2" data-name="Group 2293-2" transform="translate(10.29 58.594)">
              <path id="Path_2503-2-2" data-name="Path 2503-2" d="M471.766,1103.929h-20.26a4.911,4.911,0,0,1-.884-.057.725.725,0,0,1-.659-.751.7.7,0,0,1,.646-.754h0a6.775,6.775,0,0,1,1.087-.087h40.589c.868,0,1.335.291,1.351.834s-.422.813-1.335.814Z" transform="translate(-449.961 -1102.279)" fill="#fff"/>
            </g>
            <g id="Group_2294-2-2" data-name="Group 2294-2" transform="translate(29.231 32.178)">
              <path id="Path_2504-2-2" data-name="Path 2504-2" d="M477.31,1084.027a2.03,2.03,0,0,1-.893,2.056c-.469.4-.869.875-1.322,1.291a1.2,1.2,0,0,1-1.693.146,1.219,1.219,0,0,1-.177-.184c-.607-.587-1.2-1.189-1.8-1.785a1.467,1.467,0,0,1-.432-1.239c.182-2.477.336-4.957.5-7.437.056-.863.091-1.735.163-2.592s.585-1.377,1.269-1.324a1.262,1.262,0,0,1,1.081,1.419c0,.027-.008.054-.013.08q-.3,4.571-.634,9.14a.936.936,0,0,0,.288.934c.2.153.352.533.668.343.334-.205.725-.441.693-.934-.188-2.82-.385-5.638-.571-8.459a12.113,12.113,0,0,1-.044-1.435,1.178,1.178,0,0,1,1.058-1.081,1.129,1.129,0,0,1,1.168.946c.119.833.183,1.677.238,2.518C477.007,1078.9,477.152,1081.381,477.31,1084.027Z" transform="translate(-470.986 -1072.956)" fill="#fff"/>
            </g>
            <g id="Group_2296-2-2" data-name="Group 2296-2" transform="translate(38.215 38.399)">
              <path id="Path_2506-2-2" data-name="Path 2506-2" d="M480.972,1088.7v-7.386a1.316,1.316,0,0,1,.533-1.253c.81-.515,1.671.018,1.736,1.048.133,2.277.073,4.557.087,6.836.017,2.621,0,5.242.008,7.864a3.361,3.361,0,0,1-.113,1.016,1.078,1.078,0,0,1-1.118.826,1.041,1.041,0,0,1-1.068-.886,5.061,5.061,0,0,1-.064-1.088Q480.966,1092.188,480.972,1088.7Z" transform="translate(-480.958 -1079.862)" fill="#fff"/>
            </g>
            <g id="Group_2526-2" data-name="Group 2526">
              <g id="Group_2529-2" data-name="Group 2529" transform="translate(1 -5.071)">
                <g id="Group_2290-2-3" data-name="Group 2290-2" transform="translate(48.938 15.848)">
                  <path id="Path_2500-2-3" data-name="Path 2500-2" d="M495.443,1095.219v-4.078a1.2,1.2,0,0,0-.361-.959,6.254,6.254,0,0,1-1.041-8.435,16.623,16.623,0,0,1,2.2-2.767,21.711,21.711,0,0,0,2.251-3.658c.313-.495-.13-1.034-.18-1.558-.071-.719-.611-.686-1.135-.75a4.307,4.307,0,0,1-3.869-4.281c-.08-1.972-.087-3.949-.18-5.92-.312-6.532,5.551-8.718,9.689-7.771a6.9,6.9,0,0,1,5.838,5.588,18.106,18.106,0,0,1,.22,3.3c.031,3.282-.063,6.562-.263,9.84a1.966,1.966,0,0,0,.359,1.373,3.928,3.928,0,0,1,.722,2.462q-.1,8.388-.18,16.772a1.412,1.412,0,0,1-.887,1.545c-.933.333-1.732-.3-1.74-1.436-.012-1.46.078-2.921.093-4.381.03-2.873.03-5.746.061-8.62.01-1.153.087-2.3.1-3.451a2.381,2.381,0,0,0-1.938-2.592,4.332,4.332,0,0,0-4.951,2.018,17.027,17.027,0,0,1-3.252,4.635,5.629,5.629,0,0,0-1.454,2.85,3.449,3.449,0,0,0,1.33,3.347,3.1,3.1,0,0,1,1.135,2.753c-.073,2.717-.026,5.438-.015,8.157a1.486,1.486,0,0,1-.61,1.408,1.255,1.255,0,0,1-1.934-1.137c-.034-1.411-.007-2.823-.007-4.233Zm2.957-24.707c1.432,0,1.762.208,2.089,1.212.163.506.061,1.239.5,1.471s.978-.318,1.51-.351c.76-.048.9-.436.795-1.121-.372-2.376-.7-4.761-1.05-7.139a2.189,2.189,0,0,0-2.2-2.182,2.216,2.216,0,0,0-.354.031c-1.127.022-2.25.1-3.377.113-.526.009-.657.258-.62.726.056.688.088,1.379.118,2.07a29.7,29.7,0,0,0,.15,3.6,1.64,1.64,0,0,0,1.16,1.389,3.6,3.6,0,0,0,1.27.18Z" transform="translate(-492.861 -1054.829)" fill="#fff"/>
                </g>
                <g id="Group_2297-2-3" data-name="Group 2297-2" transform="translate(57.365 41.204)">
                  <path id="Path_2507-2-3" data-name="Path 2507-2" d="M501.189,1090.155v-8.692c0-.929.367-1.45,1.05-1.561a1.214,1.214,0,0,1,1.454.916,1.182,1.182,0,0,1,.03.252c.041,2.123.031,4.246.041,6.369q.012,2.65.019,5.3c0,2.147.016,4.3-.01,6.451a1.272,1.272,0,0,1-1.247,1.3c-.03,0-.062,0-.091,0a1.308,1.308,0,0,1-1.238-1.375l0-.028c-.022-2.25-.011-4.511-.012-6.768v-2.153Z" transform="translate(-501.184 -1079.872)" fill="#fff"/>
                </g>
              </g>
            </g>
            <g id="Group_2527-2" data-name="Group 2527" transform="translate(-3.258 10.99)">
              <g id="Group_2290-2-4" data-name="Group 2290-2" transform="translate(0 0)">
                <path id="Path_2500-2-4" data-name="Path 2500-2" d="M507.043,1095.032v-4.06a1.2,1.2,0,0,1,.36-.954,6.225,6.225,0,0,0,1.036-8.4,16.547,16.547,0,0,0-2.185-2.754,21.614,21.614,0,0,1-2.24-3.641c-.311-.493.129-1.029.179-1.551.071-.715.608-.683,1.13-.747a4.288,4.288,0,0,0,3.851-4.261c.08-1.963.087-3.93.179-5.893.31-6.5-5.525-8.677-9.644-7.735a6.869,6.869,0,0,0-5.811,5.562,18.025,18.025,0,0,0-.219,3.286c-.031,3.267.063,6.532.262,9.794a1.957,1.957,0,0,1-.358,1.366,3.91,3.91,0,0,0-.719,2.45q.1,8.349.179,16.695a1.405,1.405,0,0,0,.883,1.538c.929.332,1.724-.3,1.732-1.429.012-1.453-.078-2.907-.093-4.361-.03-2.86-.03-5.72-.06-8.58-.01-1.148-.087-2.293-.095-3.435a2.37,2.37,0,0,1,1.929-2.58,4.312,4.312,0,0,1,4.928,2.008,16.95,16.95,0,0,0,3.237,4.613,5.6,5.6,0,0,1,1.447,2.837,3.433,3.433,0,0,1-1.324,3.332,3.082,3.082,0,0,0-1.13,2.741c.073,2.7.026,5.413.015,8.119a1.479,1.479,0,0,0,.607,1.4,1.249,1.249,0,0,0,1.925-1.132c.034-1.4.007-2.81.007-4.213Zm-2.943-24.592c-1.425,0-1.754.208-2.079,1.206-.162.5-.06,1.234-.5,1.464s-.974-.316-1.5-.35c-.757-.047-.9-.434-.791-1.115.37-2.365.692-4.739,1.045-7.105a2.179,2.179,0,0,1,2.186-2.172,2.225,2.225,0,0,1,.353.03c1.122.022,2.239.1,3.361.113.524.009.654.257.617.723-.055.685-.088,1.373-.118,2.06a29.57,29.57,0,0,1-.149,3.584,1.632,1.632,0,0,1-1.155,1.383,3.586,3.586,0,0,1-1.264.179Z" transform="translate(-492.861 -1054.829)" fill="#fff"/>
              </g>
              <g id="Group_2297-2-4" data-name="Group 2297-2" transform="translate(5.772 25.239)">
                <path id="Path_2507-2-4" data-name="Path 2507-2" d="M503.771,1090.108v-8.651c0-.924-.366-1.443-1.045-1.554a1.209,1.209,0,0,0-1.447.912,1.179,1.179,0,0,0-.03.251c-.04,2.113-.031,4.227-.04,6.339q-.012,2.638-.019,5.274c0,2.137-.016,4.278.01,6.421a1.266,1.266,0,0,0,1.242,1.29c.03,0,.061,0,.091,0a1.3,1.3,0,0,0,1.233-1.369l0-.028c.022-2.239.011-4.49.012-6.736v-2.143Z" transform="translate(-501.184 -1079.872)" fill="#fff"/>
              </g>
            </g>
            <g id="Group_2298-2-2" data-name="Group 2298-2" transform="translate(24.52 38.42)">
              <path id="Path_2508-2-2" data-name="Path 2508-2" d="M465.761,1088.757V1081.5a5.044,5.044,0,0,1,.014-.547,1.1,1.1,0,0,1,1.129-1.071l.055,0a1.059,1.059,0,0,1,1.058,1.062.513.513,0,0,1,0,.053c.024,1.391.013,2.782.013,4.175v10.879a4.022,4.022,0,0,1-.023.615,1.113,1.113,0,0,1-1.141.971,1.089,1.089,0,0,1-1.086-1.02c-.034-.385-.017-.775-.017-1.162v-6.706Z" transform="translate(-465.756 -1079.885)" fill="#fff"/>
            </g>
          </g>
        </g>
      </g>
      <g id="Group_2301-3" data-name="Group 2301" transform="translate(672 630.43)">
        <circle id="Ellipse_210-3" data-name="Ellipse 210" cx="33" cy="33" r="33" transform="translate(0 0)" fill="#fff" stroke="#d10d74" stroke-width="1"/>
        <g id="Group_2300-3" data-name="Group 2300" transform="translate(14.737 15.6)">
          <g id="Group_2299-2-3" data-name="Group 2299-2" transform="translate(23.7 0)">
            <g id="Group_2528" data-name="Group 2528">
              <g id="Group_2290-2-5" data-name="Group 2290-2">
                <path id="Path_2500-2-5" data-name="Path 2500-2" d="M494.909,1086.87v-3.235a.954.954,0,0,0-.287-.761,4.961,4.961,0,0,1-.826-6.692,13.2,13.2,0,0,1,1.741-2.2,17.21,17.21,0,0,0,1.786-2.9c.248-.393-.1-.82-.143-1.236-.056-.57-.484-.545-.9-.6a3.417,3.417,0,0,1-3.069-3.4c-.064-1.565-.069-3.132-.143-4.7-.247-5.182,4.4-6.916,7.686-6.165a5.475,5.475,0,0,1,4.631,4.433,14.362,14.362,0,0,1,.174,2.619c.025,2.6-.05,5.206-.209,7.806a1.559,1.559,0,0,0,.285,1.089,3.117,3.117,0,0,1,.573,1.953q-.083,6.654-.143,13.306a1.12,1.12,0,0,1-.7,1.226c-.741.264-1.374-.238-1.381-1.139-.01-1.158.062-2.317.074-3.476.024-2.279.024-4.558.048-6.838.008-.915.069-1.827.076-2.738a1.888,1.888,0,0,0-1.537-2.056,3.436,3.436,0,0,0-3.928,1.6,13.508,13.508,0,0,1-2.58,3.676,4.467,4.467,0,0,0-1.154,2.261,2.736,2.736,0,0,0,1.055,2.655,2.457,2.457,0,0,1,.9,2.184c-.058,2.155-.021,4.314-.012,6.47a1.179,1.179,0,0,1-.483,1.117,1,1,0,0,1-1.534-.9c-.027-1.119-.006-2.24-.006-3.358Zm2.345-19.6c1.136,0,1.4.165,1.657.961.129.4.048.983.4,1.167s.776-.252,1.2-.279c.6-.038.714-.346.631-.889-.295-1.885-.552-3.776-.833-5.663a1.735,1.735,0,0,0-2.023-1.707c-.894.018-1.785.077-2.679.09-.418.007-.521.2-.492.576.044.546.07,1.094.094,1.642a23.558,23.558,0,0,0,.119,2.856,1.3,1.3,0,0,0,.921,1.1,2.867,2.867,0,0,0,1.007.143Z" transform="translate(-492.861 -1054.829)" fill="#d10d74"/>
              </g>
              <g id="Group_2297-2-5" data-name="Group 2297-2" transform="translate(6.685 20.115)">
                <path id="Path_2507-2-5" data-name="Path 2507-2" d="M501.188,1088.03v-6.895c0-.737.292-1.15.833-1.239a.963.963,0,0,1,1.153.727.94.94,0,0,1,.024.2c.032,1.684.025,3.369.032,5.052q.009,2.1.015,4.2c0,1.7.013,3.41-.008,5.117a1.009,1.009,0,0,1-.99,1.028c-.024,0-.049,0-.072,0a1.038,1.038,0,0,1-.982-1.091l0-.022c-.018-1.785-.009-3.578-.01-5.369v-1.708Z" transform="translate(-501.184 -1079.872)" fill="#d10d74"/>
              </g>
            </g>
          </g>
          <g id="Group_2300-4" data-name="Group 2300" transform="translate(0 0)">
            <g id="Group_2299-2-4" data-name="Group 2299-2">
              <g id="Group_2289-2-3" data-name="Group 2289-2">
                <path id="Path_2499-2-3" data-name="Path 2499-2" d="M480.756,1075.943v-7.523a3.694,3.694,0,0,0-2.659-3.826c-1.033-.378-2.06-.771-3.1-1.141a.7.7,0,0,1-.554-.644.831.831,0,0,0-.047-.211,2.111,2.111,0,0,1,.352-2.092,7.628,7.628,0,0,0,1.258-4.029,12.314,12.314,0,0,0-.026-3.61c-.036-.177.069-.308.128-.457a4.231,4.231,0,0,0,.173-3.166c-.125-.333-.271-.486-.682-.346a7.68,7.68,0,0,1-4.267-.106,13.371,13.371,0,0,0-2.777-.4,3.811,3.811,0,0,0-3.725,3.894,3.933,3.933,0,0,0,.032.418,28.043,28.043,0,0,1,.14,3.345,9.1,9.1,0,0,0,1.583,4.918.844.844,0,0,1,.119.609,2.12,2.12,0,0,1-1.868,2.277,15.877,15.877,0,0,0-2.134.768,3.551,3.551,0,0,0-2.538,3.463c-.027,5.267-.02,10.535-.018,15.8a.9.9,0,1,0,1.788.164.936.936,0,0,0,0-.173c.013-1.694,0-3.388.009-5.083.01-1.944.068-3.89.031-5.833-.029-1.534.073-3.06.044-4.595a1.813,1.813,0,0,1,1.462-2.1c1.17-.422,2.327-.883,3.508-1.276a1.484,1.484,0,0,0,1.172-1.371,1.654,1.654,0,0,1,.041-.212c.141-.761.135-.747.873-.464a3.8,3.8,0,0,0,3-.061c.362-.162.559-.112.574.291a2,2,0,0,0,1.748,2c1.074.291,2.1.756,3.148,1.151a1.743,1.743,0,0,1,1.342,1.911c.019,1.967.013,3.933.014,5.9v9.2a3.72,3.72,0,0,0,.077.8.891.891,0,0,0,1.757-.094,6.169,6.169,0,0,0,.027-.918v-7.2Zm-10.236-21.769h0c1.065,0,2.129.009,3.194,0,.393-.005.548.138.543.539a16.362,16.362,0,0,1-.163,2.427,5.546,5.546,0,0,1-1.887,3.549,2.353,2.353,0,0,1-3.327.055c-.027-.026-.053-.053-.078-.08a5.031,5.031,0,0,1-1.536-2.312,12.454,12.454,0,0,1-.481-3.577c-.009-.45.155-.611.6-.6,1.043.016,2.091,0,3.136,0Z" transform="translate(-460.145 -1048.395)" fill="#d10d74"/>
              </g>
              <g id="Group_2294-2-3" data-name="Group 2294-2" transform="translate(7.879 17.492)">
                <path id="Path_2504-2-3" data-name="Path 2504-2" d="M471.01,1081.708a1.6,1.6,0,0,0,.706,1.625c.371.317.687.692,1.045,1.021a.95.95,0,0,0,1.338.115.974.974,0,0,0,.14-.145c.48-.464.949-.94,1.421-1.411a1.16,1.16,0,0,0,.341-.979c-.144-1.959-.266-3.919-.394-5.879-.044-.682-.072-1.372-.129-2.049s-.462-1.088-1-1.047a1,1,0,0,0-.855,1.122c0,.021.006.043.011.063q.236,3.614.5,7.226a.74.74,0,0,1-.228.739c-.161.121-.278.422-.528.271s-.573-.348-.548-.739c.149-2.229.3-4.458.452-6.687a9.571,9.571,0,0,0,.035-1.135.931.931,0,0,0-.836-.855.893.893,0,0,0-.923.748c-.094.659-.145,1.326-.188,1.991C471.25,1077.656,471.136,1079.616,471.01,1081.708Z" transform="translate(-470.986 -1072.956)" fill="#d10d74"/>
              </g>
              <g id="Group_2296-2-3" data-name="Group 2296-2" transform="translate(3.919 22.41)">
                <path id="Path_2506-2-3" data-name="Path 2506-2" d="M482.83,1086.849v-5.839a1.04,1.04,0,0,0-.422-.991c-.64-.407-1.321.014-1.372.828-.105,1.8-.058,3.6-.069,5.4-.014,2.072,0,4.144-.006,6.217a2.658,2.658,0,0,0,.09.8.853.853,0,0,0,.884.653.823.823,0,0,0,.845-.7,4,4,0,0,0,.051-.86Q482.835,1089.606,482.83,1086.849Z" transform="translate(-480.958 -1079.862)" fill="#d10d74"/>
              </g>
              <g id="Group_2298-2-3" data-name="Group 2298-2" transform="translate(14.83 22.427)">
                <path id="Path_2508-2-3" data-name="Path 2508-2" d="M467.551,1086.9v-5.734a4.007,4.007,0,0,0-.011-.432.871.871,0,0,0-.892-.847l-.043,0a.837.837,0,0,0-.836.84.4.4,0,0,0,0,.042c-.019,1.1-.011,2.2-.011,3.3v8.6a3.175,3.175,0,0,0,.018.486.88.88,0,0,0,.9.768.861.861,0,0,0,.859-.806c.027-.3.014-.613.014-.919v-5.3Z" transform="translate(-465.756 -1079.885)" fill="#d10d74"/>
              </g>
            </g>
          </g>
        </g>
      </g>
      <g id="Group_2531" data-name="Group 2531" transform="translate(-64)">
        <g id="Programme_Enterprise_Support_Function" data-name="Programme Enterprise Support Function" transform="translate(890.313 267.104)" style="isolation: isolate">
          <text id="Programme_Enterprise_Support_Function-2" data-name="Programme / Enterprise / Support Function" transform="translate(0 25)" fill="#4d4f53" font-size="26" font-family="HelveticaNeue-Bold, Helvetica Neue" font-weight="700" style="isolation: isolate"><tspan x="0" y="0">Programme / Enterprise / Support Function</tspan></text>
        </g>
        <g id="PMU_Supportive_Controlling_Directive_" data-name="PMU Supportive Controlling Directive " transform="translate(569.5 268.922)" style="isolation: isolate">
          <text id="PMU_" data-name="PMU " transform="translate(15 25)" fill="#4d4f53" font-size="26" font-family="HelveticaNeue-Bold, Helvetica Neue" font-weight="700" style="isolation: isolate"><tspan x="0" y="0">PMU </tspan></text>
        </g>
        <g id="Group_2487" data-name="Group 2487" transform="translate(755.793 284.422)">
          <g id="Group_2287" data-name="Group 2287" transform="translate(0 0)">
            <path id="Path_2493-2" data-name="Path 2493-2" d="M485.535,1004.436l-13.348,13.349-13.349-13.349" transform="translate(-458.838 -959.512)" fill="#d10d74"/>
            <line id="Line_708-2" data-name="Line 708-2" y1="58.273" transform="translate(13.349)" fill="none" stroke="#d10d74" stroke-linecap="round" stroke-miterlimit="10" stroke-width="1"/>
          </g>
          <path id="Path_2948-2" data-name="Path 2948-2" d="M473.6,954.568H518.82" transform="translate(-460.301 -954.568)" fill="none" stroke="#d10d74" stroke-width="1"/>
        </g>
        <g id="Group_2301-4" data-name="Group 2301" transform="translate(814.312 251.422)">
          <circle id="Ellipse_210-4" data-name="Ellipse 210" cx="33" cy="33" r="33" transform="translate(0 0)" fill="#fff" stroke="#d10d74" stroke-width="1"/>
          <g id="Group_2300-5" data-name="Group 2300" transform="translate(14.737 15.6)">
            <g id="Group_2299-2-5" data-name="Group 2299-2" transform="translate(23.7 0)">
              <g id="Group_2528-2" data-name="Group 2528">
                <g id="Group_2290-2-6" data-name="Group 2290-2">
                  <path id="Path_2500-2-6" data-name="Path 2500-2" d="M494.909,1086.87v-3.235a.954.954,0,0,0-.287-.761,4.961,4.961,0,0,1-.826-6.692,13.2,13.2,0,0,1,1.741-2.2,17.21,17.21,0,0,0,1.786-2.9c.248-.393-.1-.82-.143-1.236-.056-.57-.484-.545-.9-.6a3.417,3.417,0,0,1-3.069-3.4c-.064-1.565-.069-3.132-.143-4.7-.247-5.182,4.4-6.916,7.686-6.165a5.475,5.475,0,0,1,4.631,4.433,14.362,14.362,0,0,1,.174,2.619c.025,2.6-.05,5.206-.209,7.806a1.559,1.559,0,0,0,.285,1.089,3.117,3.117,0,0,1,.573,1.953q-.083,6.654-.143,13.306a1.12,1.12,0,0,1-.7,1.226c-.741.264-1.374-.238-1.381-1.139-.01-1.158.062-2.317.074-3.476.024-2.279.024-4.558.048-6.838.008-.915.069-1.827.076-2.738a1.888,1.888,0,0,0-1.537-2.056,3.436,3.436,0,0,0-3.928,1.6,13.508,13.508,0,0,1-2.58,3.676,4.467,4.467,0,0,0-1.154,2.261,2.736,2.736,0,0,0,1.055,2.655,2.457,2.457,0,0,1,.9,2.184c-.058,2.155-.021,4.314-.012,6.47a1.179,1.179,0,0,1-.483,1.117,1,1,0,0,1-1.534-.9c-.027-1.119-.006-2.24-.006-3.358Zm2.345-19.6c1.136,0,1.4.165,1.657.961.129.4.048.983.4,1.167s.776-.252,1.2-.279c.6-.038.714-.346.631-.889-.295-1.885-.552-3.776-.833-5.663a1.735,1.735,0,0,0-2.023-1.707c-.894.018-1.785.077-2.679.09-.418.007-.521.2-.492.576.044.546.07,1.094.094,1.642a23.558,23.558,0,0,0,.119,2.856,1.3,1.3,0,0,0,.921,1.1,2.867,2.867,0,0,0,1.007.143Z" transform="translate(-492.861 -1054.829)" fill="#d10d74"/>
                </g>
                <g id="Group_2297-2-6" data-name="Group 2297-2" transform="translate(6.685 20.115)">
                  <path id="Path_2507-2-6" data-name="Path 2507-2" d="M501.188,1088.03v-6.895c0-.737.292-1.15.833-1.239a.963.963,0,0,1,1.153.727.94.94,0,0,1,.024.2c.032,1.684.025,3.369.032,5.052q.009,2.1.015,4.2c0,1.7.013,3.41-.008,5.117a1.009,1.009,0,0,1-.99,1.028c-.024,0-.049,0-.072,0a1.038,1.038,0,0,1-.982-1.091l0-.022c-.018-1.785-.009-3.578-.01-5.369v-1.708Z" transform="translate(-501.184 -1079.872)" fill="#d10d74"/>
                </g>
              </g>
            </g>
            <g id="Group_2300-6" data-name="Group 2300" transform="translate(0 0)">
              <g id="Group_2299-2-6" data-name="Group 2299-2">
                <g id="Group_2289-2-4" data-name="Group 2289-2">
                  <path id="Path_2499-2-4" data-name="Path 2499-2" d="M480.756,1075.943v-7.523a3.694,3.694,0,0,0-2.659-3.826c-1.033-.378-2.06-.771-3.1-1.141a.7.7,0,0,1-.554-.644.831.831,0,0,0-.047-.211,2.111,2.111,0,0,1,.352-2.092,7.628,7.628,0,0,0,1.258-4.029,12.314,12.314,0,0,0-.026-3.61c-.036-.177.069-.308.128-.457a4.231,4.231,0,0,0,.173-3.166c-.125-.333-.271-.486-.682-.346a7.68,7.68,0,0,1-4.267-.106,13.371,13.371,0,0,0-2.777-.4,3.811,3.811,0,0,0-3.725,3.894,3.933,3.933,0,0,0,.032.418,28.043,28.043,0,0,1,.14,3.345,9.1,9.1,0,0,0,1.583,4.918.844.844,0,0,1,.119.609,2.12,2.12,0,0,1-1.868,2.277,15.877,15.877,0,0,0-2.134.768,3.551,3.551,0,0,0-2.538,3.463c-.027,5.267-.02,10.535-.018,15.8a.9.9,0,1,0,1.788.164.936.936,0,0,0,0-.173c.013-1.694,0-3.388.009-5.083.01-1.944.068-3.89.031-5.833-.029-1.534.073-3.06.044-4.595a1.813,1.813,0,0,1,1.462-2.1c1.17-.422,2.327-.883,3.508-1.276a1.484,1.484,0,0,0,1.172-1.371,1.654,1.654,0,0,1,.041-.212c.141-.761.135-.747.873-.464a3.8,3.8,0,0,0,3-.061c.362-.162.559-.112.574.291a2,2,0,0,0,1.748,2c1.074.291,2.1.756,3.148,1.151a1.743,1.743,0,0,1,1.342,1.911c.019,1.967.013,3.933.014,5.9v9.2a3.72,3.72,0,0,0,.077.8.891.891,0,0,0,1.757-.094,6.169,6.169,0,0,0,.027-.918v-7.2Zm-10.236-21.769h0c1.065,0,2.129.009,3.194,0,.393-.005.548.138.543.539a16.362,16.362,0,0,1-.163,2.427,5.546,5.546,0,0,1-1.887,3.549,2.353,2.353,0,0,1-3.327.055c-.027-.026-.053-.053-.078-.08a5.031,5.031,0,0,1-1.536-2.312,12.454,12.454,0,0,1-.481-3.577c-.009-.45.155-.611.6-.6,1.043.016,2.091,0,3.136,0Z" transform="translate(-460.145 -1048.395)" fill="#d10d74"/>
                </g>
                <g id="Group_2294-2-4" data-name="Group 2294-2" transform="translate(7.879 17.492)">
                  <path id="Path_2504-2-4" data-name="Path 2504-2" d="M471.01,1081.708a1.6,1.6,0,0,0,.706,1.625c.371.317.687.692,1.045,1.021a.95.95,0,0,0,1.338.115.974.974,0,0,0,.14-.145c.48-.464.949-.94,1.421-1.411a1.16,1.16,0,0,0,.341-.979c-.144-1.959-.266-3.919-.394-5.879-.044-.682-.072-1.372-.129-2.049s-.462-1.088-1-1.047a1,1,0,0,0-.855,1.122c0,.021.006.043.011.063q.236,3.614.5,7.226a.74.74,0,0,1-.228.739c-.161.121-.278.422-.528.271s-.573-.348-.548-.739c.149-2.229.3-4.458.452-6.687a9.571,9.571,0,0,0,.035-1.135.931.931,0,0,0-.836-.855.893.893,0,0,0-.923.748c-.094.659-.145,1.326-.188,1.991C471.25,1077.656,471.136,1079.616,471.01,1081.708Z" transform="translate(-470.986 -1072.956)" fill="#d10d74"/>
                </g>
                <g id="Group_2296-2-4" data-name="Group 2296-2" transform="translate(3.919 22.41)">
                  <path id="Path_2506-2-4" data-name="Path 2506-2" d="M482.83,1086.849v-5.839a1.04,1.04,0,0,0-.422-.991c-.64-.407-1.321.014-1.372.828-.105,1.8-.058,3.6-.069,5.4-.014,2.072,0,4.144-.006,6.217a2.658,2.658,0,0,0,.09.8.853.853,0,0,0,.884.653.823.823,0,0,0,.845-.7,4,4,0,0,0,.051-.86Q482.835,1089.606,482.83,1086.849Z" transform="translate(-480.958 -1079.862)" fill="#d10d74"/>
                </g>
                <g id="Group_2298-2-4" data-name="Group 2298-2" transform="translate(14.83 22.427)">
                  <path id="Path_2508-2-4" data-name="Path 2508-2" d="M467.551,1086.9v-5.734a4.007,4.007,0,0,0-.011-.432.871.871,0,0,0-.892-.847l-.043,0a.837.837,0,0,0-.836.84.4.4,0,0,0,0,.042c-.019,1.1-.011,2.2-.011,3.3v8.6a3.175,3.175,0,0,0,.018.486.88.88,0,0,0,.9.768.861.861,0,0,0,.859-.806c.027-.3.014-.613.014-.919v-5.3Z" transform="translate(-465.756 -1079.885)" fill="#d10d74"/>
                </g>
              </g>
            </g>
          </g>
        </g>
        <g id="Group_2301-5" data-name="Group 2301" transform="translate(654.5 251.422)">
          <circle id="Ellipse_210-5" data-name="Ellipse 210" cx="33" cy="33" r="33" fill="#fff" stroke="#d10d74" stroke-width="1"/>
        </g>
        <g id="Group_2530" data-name="Group 2530" transform="translate(680.154 264.572)">
          <g id="Group_2290-2-7" data-name="Group 2290-2">
            <path id="Path_2500-2-7" data-name="Path 2500-2" d="M505.475,1090.586v-3.61a1.064,1.064,0,0,1,.32-.849,5.537,5.537,0,0,0,.921-7.468,14.714,14.714,0,0,0-1.943-2.45,19.207,19.207,0,0,1-1.993-3.239c-.277-.438.115-.915.16-1.379.063-.636.54-.608,1-.664a3.813,3.813,0,0,0,3.425-3.79c.071-1.746.077-3.5.16-5.241.276-5.783-4.914-7.718-8.578-6.88a6.11,6.11,0,0,0-5.169,4.947,16.012,16.012,0,0,0-.194,2.922c-.028,2.906.055,5.809.233,8.711a1.739,1.739,0,0,1-.318,1.215,3.478,3.478,0,0,0-.639,2.179q.093,7.426.16,14.849a1.249,1.249,0,0,0,.785,1.368c.826.3,1.534-.265,1.541-1.271.011-1.293-.069-2.586-.082-3.879-.027-2.543-.027-5.087-.054-7.631-.009-1.021-.077-2.039-.084-3.055a2.107,2.107,0,0,1,1.716-2.294,3.834,3.834,0,0,1,4.383,1.786,15.081,15.081,0,0,0,2.879,4.1,4.984,4.984,0,0,1,1.287,2.523,3.054,3.054,0,0,1-1.178,2.963,2.742,2.742,0,0,0-1,2.438c.065,2.4.023,4.814.013,7.221a1.316,1.316,0,0,0,.54,1.246,1.111,1.111,0,0,0,1.712-1.007c.03-1.249.006-2.5.006-3.747Zm-2.617-21.873c-1.268,0-1.56.184-1.849,1.073-.144.448-.054,1.1-.445,1.3s-.866-.281-1.336-.311c-.673-.042-.8-.386-.7-.992.329-2.1.616-4.215.93-6.319a1.936,1.936,0,0,1,2.258-1.9c1,.02,1.992.086,2.989.1.466.008.582.229.549.643-.049.61-.078,1.221-.1,1.832a26.326,26.326,0,0,1-.133,3.188,1.452,1.452,0,0,1-1.027,1.229,3.2,3.2,0,0,1-1.124.16Z" transform="translate(-492.861 -1054.829)" fill="#d10d74"/>
          </g>
          <g id="Group_2297-2-7" data-name="Group 2297-2" transform="translate(5.348 22.255)">
            <path id="Path_2507-2-7" data-name="Path 2507-2" d="M503.272,1088.135v-6.984c0-.746-.3-1.165-.844-1.254a.976.976,0,0,0-1.168.736.958.958,0,0,0-.024.2c-.033,1.706-.025,3.412-.033,5.117q-.01,2.129-.016,4.257c0,1.726-.013,3.454.008,5.183a1.022,1.022,0,0,0,1,1.041c.024,0,.05,0,.073,0a1.051,1.051,0,0,0,1-1.105l0-.023c.018-1.807.009-3.624.01-5.437v-1.73Z" transform="translate(-501.184 -1079.872)" fill="#d10d74"/>
          </g>
        </g>
        <line id="Line_708" data-name="Line 708" x2="57.126" transform="translate(721.373 284.448)" fill="none" stroke="#d10d74" stroke-linecap="round" stroke-miterlimit="10" stroke-width="1"/>
      </g>
    </g>
  </g>
</svg>
