<svg xmlns="http://www.w3.org/2000/svg" width="55.993" height="56" viewBox="0 0 55.993 56">
  <g id="DLD0MP.tif" transform="translate(-814.02 -314)" style="isolation: isolate">
    <g id="Group_2476" data-name="Group 2476" transform="translate(814.02 314)">
      <path id="Path_2944" data-name="Path 2944" d="M825.156,331.5c2.445,0,4.891-.005,7.336,0,.887,0,1.373.489,1.306,1.257a1.089,1.089,0,0,1-1.26,1.016c-.753-.017-.8.413-.83.981-.032.656.34.707.841.694.745-.02,1.491-.017,2.236,0a1.029,1.029,0,0,0,.974-.538c.995-1.547,2.029-3.07,3.011-4.625a1.7,1.7,0,0,1,1.674-.894c.766.043,1.537,0,2.305.016a1.187,1.187,0,0,1,1.3,1.092c.027.675-.392,1.085-1.171,1.209a5.461,5.461,0,0,1-1.459-.012,1.09,1.09,0,0,0-1.154.578c-.863,1.383-1.816,2.711-2.644,4.113a2.745,2.745,0,0,1-2.468,1.43c-1.49.039-2.981.029-4.471.01a1.162,1.162,0,0,1-1.254-1.279,17,17,0,0,1,.006-1.886c.05-.662-.177-.893-.859-.887-3.516.028-7.034.015-10.55.013a5.771,5.771,0,0,1-1.391-.078,3.343,3.343,0,0,1-2.174-4.9.973.973,0,0,0,.031-1.08,3.218,3.218,0,0,1,1.005-4.376.808.808,0,0,0,.4-.967,3.154,3.154,0,0,1,1.391-3.4.869.869,0,0,0,.4-1.039,3.309,3.309,0,0,1,3.283-3.931c3.074-.008,6.149.049,9.222-.02a6.868,6.868,0,0,1,3.826,1.066c1.894,1.141,3.835,2.2,5.748,3.316a2.136,2.136,0,0,0,1.129.283q2.76-.014,5.519,0a2.849,2.849,0,0,1,.759.078,1.088,1.088,0,0,1,.875,1.249,1.057,1.057,0,0,1-1.107,1.044c-2.305.023-4.611.012-6.916,0a2.415,2.415,0,0,1-1.155-.462c-2.263-1.295-4.531-2.582-6.789-3.885a2.843,2.843,0,0,0-1.467-.375q-4.541,0-9.083.006a3.654,3.654,0,0,0-.627.031c-.572.1-.953.415-.916,1.035a.947.947,0,0,0,1,.962c.791.029,1.584.009,2.375.017.949.01,1.455.4,1.474,1.122s-.539,1.232-1.463,1.252c-1.327.029-2.655.011-3.982.02-.775.005-1.207.345-1.22.942s.463,1,1.245,1c1.188.007,2.376,0,3.563,0,.186,0,.374-.009.559.006a1.294,1.294,0,0,1,1.3,1.206,1.273,1.273,0,0,1-1.32,1.178c-1,.023-2,.007-3,.008s-2-.008-3,0a.984.984,0,1,0-.03,1.944c1.817.014,3.633.005,5.45.01a5.151,5.151,0,0,1,.766.038,1.222,1.222,0,0,1,1.137,1.267,1.209,1.209,0,0,1-1.257,1.071c-1.56.02-3.121.009-4.681.011-.489,0-.979-.016-1.467.008a.993.993,0,0,0-1.055.985,1.025,1.025,0,0,0,.963,1.022,4.3,4.3,0,0,0,.7.031Q821.592,331.5,825.156,331.5Z" transform="translate(-814.021 -314)" fill="#d10d74"/>
      <path id="Path_2945" data-name="Path 2945" d="M898.914,411.05c-2.422,0-4.844,0-7.266,0-.95,0-1.434-.406-1.425-1.149.008-.725.469-1.112,1.365-1.147.047,0,.093,0,.14,0,.913.023.4-.711.54-1.079.152-.4-.144-.577-.545-.573-.862.006-1.724.014-2.585,0a.984.984,0,0,0-.885.566c-1.011,1.565-2.049,3.113-3.045,4.687a1.546,1.546,0,0,1-1.5.8c-.814-.034-1.63.011-2.445-.015a1.194,1.194,0,0,1-1.283-1.184,1.173,1.173,0,0,1,1.389-1.143c1.569.338,2.457-.322,3.151-1.654.557-1.069,1.346-2.014,1.951-3.061a2.7,2.7,0,0,1,2.434-1.366c1.442-.05,2.887-.031,4.331-.014.975.011,1.371.444,1.378,1.442,0,.606.03,1.213-.009,1.816-.041.619.209.8.812.8,3.7-.022,7.406-.017,11.109-.008a3.322,3.322,0,0,1,3.47,3.668c-.033.713-.657,1.248-.63,1.881.026.608.581,1.137.625,1.82a3.237,3.237,0,0,1-1.454,3.063.834.834,0,0,0-.4.972,3.269,3.269,0,0,1-1.516,3.49.609.609,0,0,0-.3.75,3.328,3.328,0,0,1-3.35,4.116c-3.33.016-6.661-.022-9.991.012a6.4,6.4,0,0,1-3.221-1.209c-1.828-1.024-3.641-2.075-5.449-3.133a2.239,2.239,0,0,0-1.191-.315c-1.77.01-3.54,0-5.31,0a5.608,5.608,0,0,1-.7-.021,1.16,1.16,0,0,1-1.134-1.253,1.126,1.126,0,0,1,1.207-1.1c1.583-.027,3.175.083,4.749-.044a7.422,7.422,0,0,1,4.713,1.339c1.751,1.1,3.579,2.088,5.377,3.118a2.769,2.769,0,0,0,1.415.312q4.577,0,9.153,0a2.746,2.746,0,0,0,.624-.046,1,1,0,0,0-.118-1.977c-.813-.04-1.63-.012-2.445-.024-.878-.013-1.418-.419-1.456-1.079-.042-.728.507-1.27,1.42-1.295,1.326-.036,2.654-.007,3.982-.014.822,0,1.263-.352,1.264-.974,0-.592-.486-.975-1.271-.979-1.3-.007-2.608,0-3.913,0-.891-.006-1.5-.521-1.477-1.231s.556-1.147,1.471-1.153c1.956-.012,3.913,0,5.869-.011a1.021,1.021,0,0,0,1.133-.973c0-.55-.458-.943-1.14-.974-.209-.009-.419,0-.629,0-1.63,0-3.26,0-4.891,0a4.177,4.177,0,0,1-.764-.055,1.161,1.161,0,0,1,.156-2.317c1.35-.028,2.7-.014,4.052-.016.676,0,1.351.014,2.026,0,.735-.02,1.182-.422,1.178-1.016a1.087,1.087,0,0,0-1.2-1.012c-2.515-.014-5.03-.005-7.546-.005Z" transform="translate(-854.003 -372.531)" fill="#d10d74"/>
      <path id="Path_2946" data-name="Path 2946" d="M831.52,398.91q0-3.634,0-7.267c0-.916.373-1.382,1.094-1.4.754-.015,1.182.448,1.17,1.392-.007.579.242.725.757.7s1.024.014,1.015-.719c-.011-.859-.015-1.718-.037-2.577-.01-.4-.3-.6-.607-.793-1.525-.987-3.037-1.992-4.569-2.969a1.731,1.731,0,0,1-.93-1.726c.06-.764-.007-1.537.022-2.3a1.1,1.1,0,0,1,1.15-1.214c.684,0,1.072.43,1.114,1.239a6.155,6.155,0,0,1,.018,1.6c-.092.446.214.667.542.88,1.426.925,2.83,1.885,4.273,2.781a2.67,2.67,0,0,1,1.287,2.339c.048,1.466.032,2.935.013,4.4-.012.917-.418,1.3-1.341,1.331a18.459,18.459,0,0,1-1.886-.008c-.663-.049-.83.234-.826.854.022,3.61.013,7.22.01,10.831,0,3.063-2.419,4.554-5.139,3.166a.751.751,0,0,0-.778.026,3.248,3.248,0,0,1-4.581-1.05.671.671,0,0,0-.756-.3,3.36,3.36,0,0,1-3.633-1.5.614.614,0,0,0-.762-.3,3.4,3.4,0,0,1-4.122-3.587c.088-3.188.034-6.381.022-9.572a4.968,4.968,0,0,1,.727-2.584c1.186-2.031,2.335-4.083,3.524-6.112a2.94,2.94,0,0,0,.4-1.592c-.021-1.677-.009-3.354-.007-5.031a5.063,5.063,0,0,1,.025-.628c.1-.766.553-1.228,1.19-1.221.705.008,1.138.453,1.146,1.3.022,2.213.007,4.426.007,6.638a2.486,2.486,0,0,1-.463,1.227c-1.282,2.244-2.56,4.491-3.855,6.727a2.968,2.968,0,0,0-.416,1.527q0,4.577,0,9.154a3.1,3.1,0,0,0,.05.625,1,1,0,0,0,1.993-.109c.042-.837.018-1.676.025-2.515a1.307,1.307,0,0,1,.487-1.109,1.106,1.106,0,0,1,1.771.622,6.018,6.018,0,0,1,.12,1.667c0,1-.007,2,0,3,.008.678.355,1.1.892,1.123a1.044,1.044,0,0,0,1.057-1.132c.02-1.164.008-2.329.01-3.493,0-.233-.007-.466.005-.7a1.192,1.192,0,1,1,2.364.018c.016,1.816.008,3.633.01,5.45,0,.21-.01.42,0,.629a1.008,1.008,0,0,0,1.016,1.022.968.968,0,0,0,.926-1.021c.019-1.793.015-3.587.013-5.38a4.657,4.657,0,0,1,.1-1.11,1.112,1.112,0,0,1,1.139-.942,1.067,1.067,0,0,1,1.093.984,7.479,7.479,0,0,1,.054,1.323c.005,1.654-.014,3.307.009,4.961.012.892.622,1.377,1.341,1.126.628-.219.71-.745.712-1.3,0-1.816,0-3.633,0-5.45Q831.521,399.889,831.52,398.91Z" transform="translate(-814.021 -354.012)" fill="#d10d74"/>
      <path id="Path_2947" data-name="Path 2947" d="M911.07,325.107q0,3.6,0,7.2c0,.093,0,.187,0,.279a1.138,1.138,0,1,1-2.273.045c-.076-.843-.627-1.176-1.443-.887-.28.1-.315.313-.324.553-.034.858.105,1.714.017,2.576-.042.406.236.669.575.887,1.567,1.008,3.111,2.051,4.687,3.043a1.649,1.649,0,0,1,.86,1.618c-.039.79.008,1.584-.018,2.375A1.1,1.1,0,0,1,912,344c-.733-.005-1.21-.406-1.084-1.214a2.968,2.968,0,0,0-1.914-3.4c-1.011-.515-1.91-1.246-2.887-1.834a2.7,2.7,0,0,1-1.349-2.379c-.043-1.489-.029-2.981-.014-4.471a1.157,1.157,0,0,1,1.262-1.267c.652-.018,1.306-.034,1.956.008s.841-.226.837-.853c-.023-3.354-.013-6.708-.013-10.062,0-.372,0-.745,0-1.118a3.31,3.31,0,0,1,4.9-2.944.894.894,0,0,0,1.027.1,3.214,3.214,0,0,1,4.416.826,1.148,1.148,0,0,0,1.221.514,3.168,3.168,0,0,1,3.343,1.531.6.6,0,0,0,.689.3c2.6-.332,4.153,1.053,4.148,3.663-.006,3.168-.011,6.336,0,9.5a4.572,4.572,0,0,1-.654,2.388c-1.255,2.152-2.479,4.322-3.729,6.477a2.159,2.159,0,0,0-.263,1.137c0,1.793,0,3.587,0,5.38a2.555,2.555,0,0,1-.122.965,1.094,1.094,0,0,1-1.247.784,1.02,1.02,0,0,1-.98-1.014q-.042-3.527.006-7.056a3.368,3.368,0,0,1,.679-1.516q1.818-3.185,3.648-6.363a2.871,2.871,0,0,0,.38-1.468q0-4.647,0-9.293a2.149,2.149,0,0,0-.022-.418.987.987,0,0,0-1.043-.925.95.95,0,0,0-.981.98c-.04.767-.01,1.537-.026,2.305a2.676,2.676,0,0,1-.1.756,1.124,1.124,0,0,1-2.18-.135,11.032,11.032,0,0,1-.1-2.159c-.016-.838.011-1.677-.015-2.515-.02-.667-.409-1.065-.959-1.052a1.014,1.014,0,0,0-.981,1.059c-.02,1.3-.008,2.609-.01,3.913a3.354,3.354,0,0,1-.024.627,1.163,1.163,0,0,1-2.307.071,3.2,3.2,0,0,1-.047-.764c0-1.84,0-3.68-.007-5.52,0-.7-.369-1.157-.917-1.188a1.043,1.043,0,0,0-1.034,1.153c-.015,1.63,0,3.261,0,4.891a5.84,5.84,0,0,1-.113,1.528,1.084,1.084,0,0,1-1.108.886,1.049,1.049,0,0,1-1.095-.891,3.389,3.389,0,0,1-.063-.762c-.006-1.887.006-3.773-.012-5.66a1.047,1.047,0,0,0-.976-1.148c-.611-.012-1.01.41-1.072,1.138-.01.116-.009.233-.009.349q0,2.97,0,5.939Q911.068,324.443,911.07,325.107Z" transform="translate(-872.564 -314.021)" fill="#d10d74"/>
    </g>
  </g>
</svg>
