<svg xmlns="http://www.w3.org/2000/svg" width="49.808" height="53.354" viewBox="0 0 49.808 53.354">
  <g id="dK9v7h.tif" transform="translate(-114.745 -170.768)" style="isolation: isolate">
    <g id="Group_2506" data-name="Group 2506" transform="translate(114.745 170.768)">
      <path id="Path_2978" data-name="Path 2978" d="M114.748,224.122c0-1.007.011-2.014,0-3.021a1.648,1.648,0,0,1,.24-.88q8.825-15.335,17.649-30.67a.782.782,0,0,0-.061-1.037,8.818,8.818,0,0,1,4.818-13.881c.4-.1.508-.265.494-.661-.032-.936,0-1.875-.016-2.813,0-.282.06-.4.37-.391q1.406.029,2.813,0c.3-.006.384.092.379.384-.016.972,0,1.945-.012,2.917,0,.3.057.448.382.537a8.794,8.794,0,0,1,6.7,9.311,8.188,8.188,0,0,1-1.833,4.674.643.643,0,0,0-.051.861c1.819,3.115,3.615,6.245,5.436,9.36.193.33.188.529-.1.779-.606.519-1.177,1.076-1.833,1.538-.35.246-.523.278-.769-.156-1.787-3.154-3.611-6.287-5.406-9.437-.19-.333-.329-.41-.7-.24a8.314,8.314,0,0,1-7.2,0c-.334-.152-.479-.136-.673.2q-3.791,6.644-7.619,13.267c-.136.236-.191.384.061.6a17.543,17.543,0,0,0,13.867,4.413c7.637-.824,12.716-5.2,16.083-11.852.189-.374.293-.489.687-.225.706.471,1.452.884,2.19,1.3.248.141.356.256.207.561-3.513,7.149-8.893,12-16.888,13.484a22.158,22.158,0,0,1-14.621-2.048,17.363,17.363,0,0,1-3.238-2.167c-.143-.121-.292-.235-.464-.374-1.172,2.036-2.324,4.033-3.473,6.032q-2.152,3.745-4.3,7.494a1.68,1.68,0,0,1-.6.621,25.231,25.231,0,0,0-2.413,1.508Zm19.576-40.946a5.326,5.326,0,1,0,5.369-5.3A5.333,5.333,0,0,0,134.324,183.176Z" transform="translate(-114.745 -170.768)" fill="#d10d74"/>
      <path id="Path_2979" data-name="Path 2979" d="M279.291,333.765c-.762-.6-1.639-1.018-2.451-1.538a1.462,1.462,0,0,1-.51-.5q-2.887-4.905-5.793-9.8c-.178-.3-.25-.462.16-.639a5.811,5.811,0,0,0,2.429-1.921.855.855,0,0,1,.318.417q2.885,5.085,5.768,10.172a1.306,1.306,0,0,1,.184.685c-.007,1.04,0,2.08,0,3.121Z" transform="translate(-229.588 -280.411)" fill="#d10d74"/>
    </g>
  </g>
</svg>
