<svg xmlns="http://www.w3.org/2000/svg" width="48.582" height="61.382" viewBox="0 0 48.582 61.382">
  <g id="Group_2521" data-name="Group 2521" transform="translate(-334.518 -134.005)" style="isolation: isolate">
    <path id="Path_2986" data-name="Path 2986" d="M383.037,162.962q.012-1.61.018-3.219l0-4.231q0-5.23,0-10.461c0-1.259-.518-1.842-1.675-1.89a36.649,36.649,0,0,1-6.072-.795c-6.621-1.4-11.487-3.862-15.313-7.758a1.543,1.543,0,0,0-2.462.019l-.4.388a21.542,21.542,0,0,1-1.709,1.542c-5,3.889-11,5.982-18.912,6.587-1.4.107-1.986.415-1.987,2.047v10.959q0,8.641,0,17.282a4.858,4.858,0,0,0,.251,1.443c1.524,4.918,4.979,8.373,7.819,10.834a64.8,64.8,0,0,0,14.909,9.366,2.777,2.777,0,0,0,2.555,0,66.351,66.351,0,0,0,14.068-8.636,29.417,29.417,0,0,0,6.974-7.728,12.668,12.668,0,0,0,2-7.089C382.994,168.743,383.016,165.8,383.037,162.962Zm-45.562,3.423c-.008-.508-.015-1.016-.015-1.523l0-5.982c0-1.171,0-2.342,0-3.513q0-1.351.018-2.7.008-1,.015-2.007c0-.363.005-.726.009-1.089.011-1.063.022-2.161-.011-3.245-.005-.184.011-.25,0-.253a.771.771,0,0,1,.253-.05c7.161-.688,13.066-2.667,18.052-6.052a17.36,17.36,0,0,0,2.7-2.177c.243-.246.267-.236.5-.03,5.051,4.5,11.285,7.086,19.649,8.133a3.213,3.213,0,0,1,1.293.279,3.553,3.553,0,0,1,.121,1.382q0,4.359,0,8.717v3.632q0,1.792-.006,3.584c-.008,2.927-.016,5.952.028,8.93a7.9,7.9,0,0,1-1.054,3.9,26.054,26.054,0,0,1-7.459,8.366,63.446,63.446,0,0,1-12.323,7.483.874.874,0,0,1-.866.019,61.118,61.118,0,0,1-14.007-8.864,31.564,31.564,0,0,1-4.853-5.31,12.046,12.046,0,0,1-2.074-8.185C337.508,168.68,337.491,167.513,337.474,166.385Z" transform="translate(0 0)" fill="#d10d74"/>
    <path id="Path_2987" data-name="Path 2987" d="M368.961,195.963q1.408.006,2.816.005h2.17l2.6-.006h1.742q2.534,0,5.065,0a3.49,3.49,0,0,0,3.708-3.7c.014-2.959.015-6.157,0-10.065a3.461,3.461,0,0,0-2.488-3.447c-.256-.084-.256-.084-.247-.378a7.112,7.112,0,0,0-3.585-6.8,8.888,8.888,0,0,0-6.457-1.052c-4.761.945-6.612,4.715-6.317,7.818.029.3,0,.313-.17.366a3.628,3.628,0,0,0-2.627,3.778l0,1.838c0,2.593-.01,5.274.006,7.912A3.586,3.586,0,0,0,368.961,195.963Zm-.783-3.989q-.007-4.72,0-9.44c0-.857.169-1.03,1-1.032,2.346,0,4.573-.007,6.71-.007,2.489,0,4.855,0,7.135.01.9,0,1.032.142,1.032,1.068v2.14q0,3.61,0,7.221c0,1-.021,1.018-1.028,1.022q-2.415.009-4.829,0H374.33q-2.576,0-5.149,0C368.264,192.952,368.18,192.87,368.179,191.974Zm13.165-13.515c0,.067-.012.1-.009.106a1.251,1.251,0,0,1-.284.024q-1.8-.006-3.6,0H376.1c-.453,0-.917,0-1.376,0-1.122,0-2.281-.009-3.423.016-.34.012-.356-.03-.372-.325a4.378,4.378,0,0,1,1.2-3.468,5.487,5.487,0,0,1,3.962-1.5h.038a5.663,5.663,0,0,1,4.046,1.574A4.62,4.62,0,0,1,381.343,178.459Z" transform="translate(-16.762 -19.866)" fill="#d10d74"/>
    <path id="Path_2988" data-name="Path 2988" d="M386.91,207.189h.038A1.943,1.943,0,0,0,388.762,206a1.822,1.822,0,0,0-.416-2.173.93.93,0,0,1-.4-.836,1.194,1.194,0,0,0-.253-.938.986.986,0,0,0-.779-.274.954.954,0,0,0-.733.324,1.116,1.116,0,0,0-.2.908c.043.306-.037.467-.39.782a1.83,1.83,0,0,0-.473,2.158A1.944,1.944,0,0,0,386.91,207.189Z" transform="translate(-27.586 -37.073)" fill="#d10d74"/>
  </g>
</svg>
