<svg xmlns="http://www.w3.org/2000/svg" width="53.574" height="54.081" viewBox="0 0 53.574 54.081">
  <path id="Path_3016" data-name="Path 3016" d="M519.524,4356.2l-8.224-7.855a7.149,7.149,0,0,1,1.819-1.817q4.291,4.23,8.561,8.44l.21-.161-6.2-10.264a8.8,8.8,0,0,1,2.152-1.329l6.257,10.937.284-.1-3.322-12.058a4.1,4.1,0,0,1,2.269-.583c1.129,4.317,2.24,8.566,3.382,12.939a8.73,8.73,0,0,0-6.682,5.323,8.339,8.339,0,0,0-.291,5.658,8.479,8.479,0,0,0,9.28,6.057c3.47-.377,7.074-2.988,7.555-8.317h13.44a15.729,15.729,0,0,1-.606,4.991c-1.387-.144-2.69-.28-3.993-.417-.03.084-.061.17-.092.253,1.2.566,2.395,1.128,3.646,1.717a15.034,15.034,0,0,1-2.058,4.605l-3.989-1.741c-.054.075-.108.148-.16.223,1.075.974,2.151,1.947,3.238,2.931a15.052,15.052,0,0,1-3.168,3.551c-1.21-1.047-2.407-2.087-3.605-3.126l-.215.144,2.5,4.1a15.229,15.229,0,0,1-3.783,2.423q-1.426-2.246-2.851-4.484c-.07.033-.141.065-.211.1.458,1.673.917,3.347,1.4,5.1a13.2,13.2,0,0,1-4.1,1.136l-1.613-5.461c-.088.012-.176.025-.264.034v5.7a14.476,14.476,0,0,1-4.013,0V4378.8l-.317-.053-1.676,5.9a14.038,14.038,0,0,1-3.7-.97c.585-2.2,1.159-4.355,1.732-6.513-.071-.032-.143-.066-.215-.1-1.139,1.919-2.279,3.837-3.441,5.8a11.981,11.981,0,0,1-3.192-1.827c1.254-2.138,2.494-4.249,3.733-6.359-.061-.056-.121-.113-.182-.17-1.751,1.705-3.5,3.411-5.278,5.141a12.649,12.649,0,0,1-2.457-2.312c1.93-2.045,3.8-4.036,5.851-6.206-2.557,1.463-4.931,2.819-7.334,4.194a18.1,18.1,0,0,1-1.733-2.907c2.689-1.5,5.309-2.955,7.93-4.411-.039-.081-.076-.164-.113-.246-2.858.773-5.715,1.546-8.628,2.337a9.238,9.238,0,0,1-.954-3.083l9.314-2.358c-.008-.084-.018-.171-.028-.255h-9.558a16.536,16.536,0,0,1-.066-3.066h10.257l.029-.328-9.8-2.417a6.482,6.482,0,0,1,.778-2.843c3.468.958,6.9,1.91,10.337,2.861l.128-.267-9.415-5.211a8.5,8.5,0,0,1,1.361-2.408l9.919,5.691Z" transform="matrix(0.259, -0.966, 0.966, 0.259, -4324.367, -592.35)" fill="#d10d74" fill-rule="evenodd"/>
</svg>
