<svg xmlns="http://www.w3.org/2000/svg" width="54.842" height="54.911" viewBox="0 0 54.842 54.911">
  <path id="Path_3014" data-name="Path 3014" d="M471.732,66.256a39.192,39.192,0,0,0-5.224-1.161,4.1,4.1,0,0,0-.7-.06h0a3.866,3.866,0,0,0-3.528,2.262c-.316-.252-.633-.505-.946-.763-.717-.591-1.46-1.2-2.275-1.774a14.222,14.222,0,0,1-4.922-5.935c-.554-1.223-1.193-2.369-1.811-3.477-.207-.37-.413-.739-.615-1.111a6.017,6.017,0,0,0-4.1-3.168,5.524,5.524,0,0,0-5.432,1.916,6,6,0,0,0-1.264,4.951c.181.978.445,1.89.7,2.771.068.236.137.471.2.705a8.247,8.247,0,0,1,.286,1.455h-5.088c-.228-1.387-.454-2.775-.724-4.155A2.063,2.063,0,0,1,436.686,57a10.334,10.334,0,0,0-.419-12.019,5.21,5.21,0,0,0-5.305-2.2c-.535.081-.673.286-.436.811.675,1.494,1.3,3.013,1.966,4.511a.9.9,0,0,1-.2,1.143c-.95.966-1.873,1.959-2.784,2.963a.611.611,0,0,1-.8.193c-1.118-.469-2.242-.923-3.376-1.353a.873.873,0,0,1-.644-.824c-.151-1.631-.325-3.26-.5-4.89-.084-.8-.172-.841-.929-.514a5.587,5.587,0,0,0-3.534,5.871c.231,4.222,1.99,7.534,5.925,9.453a1.412,1.412,0,0,1,.73.734c.384.884.8,1.756,1.181,2.64a5.17,5.17,0,0,0-2.835,3.549,6.865,6.865,0,0,0,.711,5.568,5.591,5.591,0,0,0,1.065,6c-.04.162-.1.355-.124.451a5.62,5.62,0,0,0,2,6.372,6.735,6.735,0,0,0,4.046,6.174,12.8,12.8,0,0,0,2.519.938c.144.552.28,1.107.462,1.647a4.837,4.837,0,0,0,5.378,3.372,5.087,5.087,0,0,0,4.542-4.327,4.083,4.083,0,0,0-.024-1.276c.638-.18,1.266-.372,1.878-.568.84-.269,1.677-.551,2.514-.833a39.558,39.558,0,0,1,9.382-2.354,4,4,0,0,0,.518-.078,3.639,3.639,0,0,0,.814,1.633c1.208,1.379,3.016,1.379,4.213,1.379h.249L465,91.15c.331-.033.73-.053,1.153-.073a21.59,21.59,0,0,0,2.924-.284,3.678,3.678,0,0,0,3.176-3.617,7.305,7.305,0,0,1,.1-.772c.026-.169.052-.337.074-.505l.586-4.322q.745-5.5,1.484-11C474.8,68.288,473.949,66.955,471.732,66.256ZM458.861,85.52c-4.366.35-8.4,1.991-12.508,3.307A25.4,25.4,0,0,1,438.6,90.31c-.115,0-.229,0-.346,0a10.634,10.634,0,0,1-4.607-1.1,4.132,4.132,0,0,1-2.5-4.647c.046-.372.038-.6-.354-.792a3.029,3.029,0,0,1-1.805-3.916c.351-1.2.543-2.046-.532-3.1-1.023-1.006-.819-2.522-.2-3.825a.954.954,0,0,0-.135-1.2,4.137,4.137,0,0,1-.768-3.957,2.53,2.53,0,0,1,2.486-2.065c.954-.082,1.909-.1,2.85-.1.913,0,1.813.019,2.688.019.469,0,.929-.005,1.381-.022H440.6c.87,0,1.724,0,2.578,0,1.089,0,1.535-.423,1.641-1.527a9.175,9.175,0,0,0-.377-3.38c-.3-1.075-.644-2.144-.847-3.239a3.089,3.089,0,0,1,2.873-3.771,2.8,2.8,0,0,1,.588.063,3.339,3.339,0,0,1,2.27,1.806c.8,1.462,1.652,2.9,2.337,4.409a16.972,16.972,0,0,0,5.838,7.041c1.2.844,2.3,1.842,3.467,2.741a1.062,1.062,0,0,1,.418,1.112q-.85,6.857-1.663,13.718C459.657,85.124,459.521,85.467,458.861,85.52Zm12.939-15.3q-1.024,7.661-2.068,15.319a15.1,15.1,0,0,0-.194,1.554.977.977,0,0,1-.95,1.028c-1.362.251-2.745.214-3.858.326h-.107c-2.347,0-2.609-.337-2.328-2.451q1.1-8.226,2.193-16.452a7.684,7.684,0,0,1,.135-.772,1.221,1.221,0,0,1,1.189-1.015,1.388,1.388,0,0,1,.234.02,37.033,37.033,0,0,1,4.868,1.074C471.866,69.15,471.93,69.243,471.8,70.217Z" transform="translate(-419.714 -42.707)" fill="#d10d74"/>
</svg>
