<svg xmlns="http://www.w3.org/2000/svg" width="67.043" height="63.919" viewBox="0 0 67.043 63.919">
  <g id="_5HgfdQ.tif" data-name="5HgfdQ.tif" transform="translate(-488.706 -245.143)" style="isolation: isolate">
    <g id="Group_2503" data-name="Group 2503" transform="translate(488.706 245.143)">
      <path id="Path_2967" data-name="Path 2967" d="M18,29.265l2.966,1.691c.708.4,1.422.8,2.119,1.219a.726.726,0,0,0,.846.012q4.967-2.9,9.95-5.765c.209-.121.422-.214.42-.526-.009-1.957,0-3.914,0-6.02-.679.376-1.227.678-1.772.983-.75.42-1.49.857-2.247,1.262a1.053,1.053,0,0,1-1.489-.374,1.032,1.032,0,0,1,.458-1.462c1.469-.848,2.943-1.687,4.434-2.5a.952.952,0,0,0,.562-.984c-.04-5.071-.055-10.144-.077-15.216A5.431,5.431,0,0,1,34.18.93a.973.973,0,0,1,.955-.925,1,1,0,0,1,1.074.7,2.089,2.089,0,0,1,.075.784c.025,5.116.056,10.232.059,15.348a1.078,1.078,0,0,0,.625,1.086q9.08,5.153,18.14,10.343a1.271,1.271,0,0,1,.652,1.258c-.013,6.9,0,13.8-.021,20.707a1.006,1.006,0,0,0,.6,1.024c3.21,1.8,6.406,3.618,9.606,5.433.134.076.27.151.4.23a1.083,1.083,0,0,1,.542,1.541c-.331.558-.923.667-1.614.281-1.019-.571-2.032-1.151-3.047-1.727-2.28-1.293-4.564-2.579-6.837-3.886a.869.869,0,0,0-1.01-.022Q45.241,58.42,36.081,63.7a1.315,1.315,0,0,1-1.472-.014Q25.36,58.362,16.1,53.053a.77.77,0,0,0-.9.057Q8.626,56.844,2.038,60.566a3.488,3.488,0,0,1-.581.312.991.991,0,0,1-1.3-.462.992.992,0,0,1,.285-1.354,4.923,4.923,0,0,1,.621-.375q6.586-3.726,13.176-7.442a1.013,1.013,0,0,0,.613-1.023c-.021-6.726.016-13.452-.044-20.178a2,2,0,0,1,1.241-2.114c1.1-.545,2.133-1.236,3.2-1.854a1.1,1.1,0,0,1,1.623.248c.347.57.138,1.164-.566,1.584C19.566,28.35,18.824,28.782,18,29.265Zm-.153,22.353c.665.384,1.253.726,1.842,1.063q6.989,4,13.98,8c.628.359.631.356.632-.379,0-1.7-.005-3.393.005-5.089a.677.677,0,0,0-.356-.7q-5.057-2.928-10.1-5.883a.55.55,0,0,0-.611-.074C21.474,49.571,19.7,50.572,17.851,51.618Zm34.877.01c-1.821-1.033-3.563-2.017-5.3-3.011a.59.59,0,0,0-.67,0q-5,2.961-10.005,5.9a.592.592,0,0,0-.335.577c.012,1.872.008,3.745.01,5.616,0,.086,0,.177.174.217Zm.882-20.514c-1.785,1.018-3.461,1.985-5.151,2.929a.682.682,0,0,0-.338.714q0,5.654-.006,11.308a.772.772,0,0,0,.46.779c1.044.568,2.071,1.169,3.106,1.754.624.353,1.251.7,1.928,1.078Zm-1.053-1.842c-5.332-3.052-10.549-6.035-15.761-9.026-.449-.257-.407.033-.4.314.01,1.785.025,3.571.024,5.356a.625.625,0,0,0,.347.633q4.968,2.82,9.923,5.664a.545.545,0,0,0,.611.064C49.01,31.29,50.73,30.314,52.556,29.273Zm-35.568,20.4c1.693-.958,3.268-1.876,4.872-2.74a.988.988,0,0,0,.581-1.033c-.021-3.479-.055-6.959.018-10.438a1.757,1.757,0,0,0-1.108-1.87c-1.463-.741-2.865-1.6-4.363-2.455Zm17.317,2.48c0-1.071-.018-2.141.009-3.212a.809.809,0,0,0-.471-.834c-1.651-.928-3.27-1.913-4.932-2.819a1.659,1.659,0,0,1-.981-1.686c.05-1.872.008-3.746.032-5.62a.835.835,0,0,0-.493-.888c-.8-.411-1.584-.866-2.356-1.335-.418-.255-.579-.272-.575.308q.028,4.993,0,9.985a.886.886,0,0,0,.552.863c2.877,1.666,5.746,3.347,8.62,5.019A.846.846,0,0,0,34.306,52.148Zm11.7-16.693c-1.013.573-1.878,1.093-2.772,1.557a.976.976,0,0,0-.612,1.023c.041,1.873.007,3.747.036,5.62a1.575,1.575,0,0,1-.872,1.558c-1.648.933-3.267,1.915-4.895,2.884-.2.118-.466.178-.465.5,0,1.181,0,2.363,0,3.561a1.444,1.444,0,0,0,.7-.313c2.752-1.62,5.494-3.255,8.257-4.855a1.083,1.083,0,0,0,.635-1.087c-.027-2.932-.012-5.863-.012-8.8ZM44.85,33.664a1.683,1.683,0,0,0-.185-.159c-3.035-1.739-6.076-3.47-9.1-5.223-.349-.2-.568-.052-.833.1q-4.256,2.462-8.514,4.924c-.158.091-.362.138-.468.369,1,.57,1.994,1.128,2.975,1.711.269.159.445.044.656-.082,1.665-.989,3.347-1.948,4.992-2.971a1.431,1.431,0,0,1,1.7-.01c1.713,1.036,3.455,2.023,5.185,3.031a.472.472,0,0,0,.543.057C42.8,34.825,43.811,34.256,44.85,33.664ZM39.765,43.93a1.753,1.753,0,0,0-.227-.2c-1.333-.775-2.672-1.537-4-2.325a.606.606,0,0,0-.717.057c-1,.6-2.013,1.181-3.011,1.787a2.888,2.888,0,0,0-.975.679c1.428.827,2.819,1.631,4.207,2.437a.468.468,0,0,0,.544.037C36.964,45.577,38.347,44.768,39.765,43.93Zm-3.477-9c0,1.5,0,2.877,0,4.255,0,.218.15.3.3.389,1.162.672,2.327,1.339,3.485,2.018.317.186.456.182.45-.246-.018-1.19-.008-2.379,0-3.569,0-.2,0-.4-.205-.517Zm-6.216,6.874c.705-.415,1.292-.754,1.874-1.1.716-.428,1.652-.712,2.079-1.339.449-.66.108-1.661.139-2.513.021-.6,0-1.2,0-1.909-1.358.8-2.584,1.53-3.816,2.248a.493.493,0,0,0-.282.473C30.076,39,30.073,40.341,30.073,41.805Z" transform="translate(0 0)" fill="#d10d74"/>
      <path id="Path_2968" data-name="Path 2968" d="M4.5,1.242a.944.944,0,0,1-.5.71c-.79.475-1.58.952-2.387,1.4A1.046,1.046,0,0,1,.171,3.021a1.033,1.033,0,0,1,.38-1.479c.782-.488,1.572-.966,2.385-1.4A1.063,1.063,0,0,1,4.5,1.242Z" transform="translate(22.58 22.302)" fill="#d10d74"/>
    </g>
  </g>
</svg>
