<svg xmlns="http://www.w3.org/2000/svg" viewBox="0 0 1921.5 1081.5"><defs><style>.cls-1{opacity:0.6;}.cls-2{fill:none;stroke:#fff;stroke-linecap:round;stroke-miterlimit:10;stroke-width:1.5px;stroke-dasharray:0 80;}</style></defs><g id="Layer_2" data-name="Layer 2"><g id="Layer_1-2" data-name="Layer 1"><g id="Group_2438" data-name="Group 2438" class="cls-1"><line id="Line_778" data-name="Line 778" class="cls-2" x1="0.75" y1="155.04" x2="1920.75" y2="155.04"/><line id="Line_779" data-name="Line 779" class="cls-2" x1="0.75" y1="77.89" x2="1920.75" y2="77.89"/><line id="Line_780" data-name="Line 780" class="cls-2" x1="0.75" y1="232.18" x2="1920.75" y2="232.18"/><line id="Line_781" data-name="Line 781" class="cls-2" x1="0.75" y1="309.32" x2="1920.75" y2="309.32"/><line id="Line_782" data-name="Line 782" class="cls-2" x1="0.75" y1="386.46" x2="1920.75" y2="386.46"/><line id="Line_783" data-name="Line 783" class="cls-2" x1="0.75" y1="463.61" x2="1920.75" y2="463.61"/><line id="Line_784" data-name="Line 784" class="cls-2" x1="0.75" y1="540.75" x2="1920.75" y2="540.75"/><line id="Line_785" data-name="Line 785" class="cls-2" x1="0.75" y1="617.89" x2="1920.75" y2="617.89"/><line id="Line_786" data-name="Line 786" class="cls-2" x1="0.75" y1="695.04" x2="1920.75" y2="695.04"/><line id="Line_787" data-name="Line 787" class="cls-2" x1="0.75" y1="772.18" x2="1920.75" y2="772.18"/><line id="Line_788" data-name="Line 788" class="cls-2" x1="0.75" y1="849.32" x2="1920.75" y2="849.32"/><line id="Line_789" data-name="Line 789" class="cls-2" x1="0.75" y1="926.46" x2="1920.75" y2="926.46"/><line id="Line_790" data-name="Line 790" class="cls-2" x1="0.75" y1="1003.61" x2="1920.75" y2="1003.61"/><line id="Line_791" data-name="Line 791" class="cls-2" x1="0.75" y1="1080.75" x2="1920.75" y2="1080.75"/><line id="Line_792" data-name="Line 792" class="cls-2" x1="0.75" y1="0.75" x2="1920.75" y2="0.75"/></g></g></g></svg>